<svg xmlns="http://www.w3.org/2000/svg" width="94.496" height="108.434" viewBox="0 0 94.496 108.434">
  <path id="Icon" d="M33.146,38.189l25.774,28.2a2.341,2.341,0,0,0,1.748.772h.013a2.343,2.343,0,0,0,1.754-.787l25.854-28.8a2.356,2.356,0,0,0,.162-2.967l-9.476-13.2a2.345,2.345,0,0,0-1.926-.988H43.7a2.36,2.36,0,0,0-2,1.1l-8.8,13.8A2.375,2.375,0,0,0,33.146,38.189Zm15.4-.1L56.44,59.124,37.31,38.191ZM66.2,23.494l3.2,11.348-17.723.152,2.963-11.5Zm17.768,14.3L64.9,59.029l7.806-21.143Zm-14.544.125L60.664,61.634,51.817,38.066Zm15.321-3.2-12.157.1L69.391,23.493h7.3ZM44.085,23.494h7.382L48.5,35.022l-11.832.1ZM27.518,9.727a1.536,1.536,0,0,1,2.449-1.856l6.33,8.354a1.537,1.537,0,1,1-2.449,1.856Zm66.67,0L87.86,18.081a1.537,1.537,0,0,1-2.449-1.856l6.33-8.354a1.536,1.536,0,0,1,2.449,1.856ZM59.261,12.054l-.28-10.476A1.537,1.537,0,1,1,62.054,1.5l.28,10.476a1.536,1.536,0,0,1-1.495,1.577H60.8a1.536,1.536,0,0,1-1.535-1.494ZM90.126,70.8a9.367,9.367,0,0,0-9.78.475L60.968,81.83a1.458,1.458,0,0,0-.21.138,4.321,4.321,0,0,1-1.071.6,5.206,5.206,0,0,0,1.079-2.9c.1-2.464-1.619-4.816-5.123-6.991-7.381-4.583-21.842-7.6-27.569-4.457l-.055.032L15.45,75.837,15.2,75.4a5.365,5.365,0,0,0-7.321-1.962l-5.2,3A5.366,5.366,0,0,0,.716,83.76l12.7,21.993a5.362,5.362,0,0,0,7.321,1.961l5.2-3A5.365,5.365,0,0,0,28.009,97.6l1.145-.74c.116.038.255.081.417.125l18.635,5.12a14.579,14.579,0,0,0,4.779.852A12.269,12.269,0,0,0,59.61,101L88.359,83.667c4.456-2.076,5.262-5.053,5.344-6.649A6.919,6.919,0,0,0,90.126,70.8ZM24.4,102.054l-5.2,3a2.289,2.289,0,0,1-3.123-.837L3.377,82.224A2.289,2.289,0,0,1,4.214,79.1l5.2-3a2.289,2.289,0,0,1,3.123.837l12.7,21.993a2.289,2.289,0,0,1-.837,3.123ZM90.636,76.861c-.081,1.574-1.373,3.014-3.638,4.053a1.5,1.5,0,0,0-.154.081L58.012,98.381l-.025.015a9.657,9.657,0,0,1-8.817.791c-.033-.011-.066-.022-.1-.031L30.384,94.023c-.2-.055-.344-.1-.469-.149a2.313,2.313,0,0,0-2.4.389l-1.036.669L16.987,78.5l12.591-7.607c4.263-2.3,17.488.069,24.444,4.388,2.386,1.482,3.725,3.031,3.674,4.25-.047,1.109-1.287,2.349-3.493,3.507a59.483,59.483,0,0,1-13.028-3.056,1.537,1.537,0,0,0-.961,2.919c11.4,3.757,18.711,4.272,22.328,1.572L81.853,73.952c.025-.014.05-.028.075-.044a6.372,6.372,0,0,1,6.635-.464,3.871,3.871,0,0,1,2.072,3.417M12.014,83.566A1.536,1.536,0,1,1,9.363,85.12l-.01-.018L7.5,81.9a1.536,1.536,0,0,1,2.661-1.536Z" transform="translate(0 0.001)" fill="#145fff"/>
</svg>
