<svg xmlns="http://www.w3.org/2000/svg" width="108.419" height="108.491" viewBox="0 0 108.419 108.491">
  <path id="Icon" d="M83.4,57.257A29.442,29.442,0,0,1,57.281,83.507a1.012,1.012,0,0,0-1.024,1v21.937a2.048,2.048,0,1,1-4.1,0V98.493a1.108,1.108,0,0,0-1.024-1.024A43.174,43.174,0,0,1,12.589,64.3a2.048,2.048,0,1,1,3.929-1.159c.013.044.025.09.035.135A38.934,38.934,0,0,0,51.005,93.24c.265.132.518,0,.771-.253a.771.771,0,0,0,.385-.771V84.531a1.012,1.012,0,0,0-1-1.024h-.024a29.8,29.8,0,0,1-17.66-8.433,29.49,29.49,0,0,1-8.433-17.8,1.072,1.072,0,0,0-1.024-.9H2.108a2.108,2.108,0,1,1,0-4.216h8.324a1.084,1.084,0,0,0,1.024-.9,43.645,43.645,0,0,1,32-39.464,2.12,2.12,0,0,1,1.024,4.108A39.079,39.079,0,0,0,15.661,50.981a.988.988,0,0,0,1.024,1.2h7.288a1.072,1.072,0,0,0,1.024-.9,29.442,29.442,0,0,1,26.141-26.3,1.012,1.012,0,0,0,1.024-1c0-.008,0-.016,0-.024V2.048a2.048,2.048,0,0,1,4.1,0V26.9a2.084,2.084,0,0,1-1.983,2.18q-.1,0-.2,0c-22.274,0-33.405,27.273-17.66,43.03s42.621,4.481,43.006-17.865a2.024,2.024,0,0,1,2-2.048h24.888a2.108,2.108,0,0,1,0,4.216H98.119a.988.988,0,0,0-1.024.9A43.537,43.537,0,0,1,64.2,96.409c-2.686.638-3.614-3.457-.9-4.1a39.151,39.151,0,0,0,29.574-34.8.988.988,0,0,0-1.024-1.2H84.422a1.072,1.072,0,0,0-1.024.9ZM99.986,23.19,85.181,37.91a2.023,2.023,0,0,1-1.4.651H73.918a1.723,1.723,0,0,0-.759.253L55.619,56.486a2.084,2.084,0,0,1-2.951-2.939l17.54-17.684a.7.7,0,0,0,.385-.638v-9.89a2.109,2.109,0,0,1,.639-1.53L85.952,9.1A2.084,2.084,0,0,1,89.566,10.5v8.071A1.1,1.1,0,0,0,90.59,19.6h7.939a2.108,2.108,0,0,1,1.53,3.614ZM83.121,34.031,91.7,25.454a1.036,1.036,0,0,0-.639-1.795H87.446a2.132,2.132,0,0,1-2.18-2.048V18.106a1.06,1.06,0,0,0-1.795-.759l-8.433,8.577a1.132,1.132,0,0,0-.385.771v6.662a1.012,1.012,0,0,0,1,1.024h6.806c.265,0,.518,0,.639-.265ZM71.6,54.27A17.407,17.407,0,1,1,54.173,36.886h.036a2.06,2.06,0,0,1,0,4.108,13.251,13.251,0,1,0,0,26.5c7.686,0,12.806-5.758,13.179-13.251a2.12,2.12,0,0,1,4.237-.175,2.141,2.141,0,0,1-.008.3Z" fill="#145fff"/>
</svg>
