<svg xmlns="http://www.w3.org/2000/svg" width="108.419" height="108.629" viewBox="0 0 108.419 108.629">
  <path id="Icon" d="M39.4,7.086v-5.4a1.711,1.711,0,0,1,3.421,0v5.4a1.711,1.711,0,0,1-3.421,0M7.086,39.4h-5.4a1.711,1.711,0,0,0,0,3.421h5.4a1.71,1.71,0,1,0,0-3.421m59.3-21.141,3.8-3.8a1.713,1.713,0,0,0-2.422-2.422l-3.8,3.8a1.713,1.713,0,0,0,2.422,2.422m-50.547,0a1.713,1.713,0,0,0,2.422-2.422l-3.8-3.8a1.713,1.713,0,0,0-2.422,2.422Zm92.49-3.7L93.265,63.328A1.709,1.709,0,0,1,91.289,64.5L80.772,62.414,69.149,73.441c-1.317,4.781-.382,8.393,2.911,11.134,1.317,1.254,2.8,2.677,2.7,4.993a6.2,6.2,0,0,1-1.934,4.037c-2.422,2.21.234,3.761,2.465,5.269,1.785,1.169,3.633,2.38,3.23,4.356-.446,2.295-2.932,2.38-6.714,2.528a68.554,68.554,0,0,0-13.152,1.509c-3.91.914-7.713,2.018-11.771.871-2.21-.574-5.694-1.827-6.99-4.164H37.257A6.066,6.066,0,0,1,31.2,97.918V95.284H29.778a6.069,6.069,0,0,1-4.207-10.39c-3.017-2.7-2.146-8.265,1.679-9.816a18.02,18.02,0,0,0-5.907-12.77C2.964,45.225,14.331,14.055,39.254,12.44A28.929,28.929,0,0,1,68.47,32.052c11.644-6.034,25.837-13.45,37.417-19.484A1.713,1.713,0,0,1,108.329,14.565ZM30.692,74.482H51.557a21.009,21.009,0,0,1,5.418-13.173c-.446-.595-2.762-3.655-3.166-4.186L29.481,52.343C41.145,46.287,53.766,39.7,65.431,33.624c-9.009-26.942-47.764-21.906-49.74,6.459a25.46,25.46,0,0,0,8.01,19.7A21.646,21.646,0,0,1,30.692,74.482Zm-3.548,6.055a2.648,2.648,0,0,0,2.635,2.635h22.65a2.624,2.624,0,0,0,0-5.248H29.778A2.644,2.644,0,0,0,27.143,80.538ZM52.428,91.863a2.624,2.624,0,0,0,0-5.248H29.778a2.624,2.624,0,0,0,.021,5.248Zm-7.479,8.69a2.648,2.648,0,0,0,2.635-2.635V95.284H34.644v2.635a2.634,2.634,0,0,0,2.635,2.635Zm20.8-27.622-6.672-8.818a17.7,17.7,0,0,0-4.122,10.964,6.1,6.1,0,0,1,1.679,9.838A6.067,6.067,0,0,1,52.428,95.3H51V97.94a6.055,6.055,0,0,1-5.8,6.034c4.016,2.04,8.435,1.1,12.706-.021,7.288-1.572,11.2-1.4,16.212-1.7-4.186-2.422-8.18-6.31-3.867-10.879,1.572-1.785,1.487-2.4-.552-4.292C65.771,83.831,64.178,78.6,65.75,72.931ZM81.558,39.679l-.425.3L57.251,56l.446.595,3.867,5.121,5.121,6.778,2-10.156C72.039,52.768,77.988,45.012,81.558,39.679ZM76.65,61.628c-.361-.064-4.759-.935-4.951-.977l-1.36,6.969Zm27.2-44.152C96.452,21.322,84.3,27.653,76.756,31.584,64.687,37.873,51.833,44.545,39.743,50.855l14.682,2.89,32.87-22.033a1.787,1.787,0,0,1,1.572-.149,1.7,1.7,0,0,1,.807,2.55q-8.223,11.665-16.4,23.351l.319.064,16.87,3.315ZM15.84,63.965l-3.8,3.8A1.732,1.732,0,0,0,13.248,70.7a1.689,1.689,0,0,0,1.211-.51l3.8-3.8a1.693,1.693,0,0,0,0-2.422,1.732,1.732,0,0,0-2.422,0" fill="#145fff"/>
</svg>
