<svg xmlns="http://www.w3.org/2000/svg" xmlns:xlink="http://www.w3.org/1999/xlink" width="526.408" height="692.369" viewBox="0 0 526.408 692.369">
  <defs>
    <linearGradient id="linear-gradient" x1="0.054" y1="1" x2="0.953" y2="1" gradientUnits="objectBoundingBox">
      <stop offset="0" stop-color="#003391"/>
      <stop offset="1" stop-color="#7a6af7"/>
    </linearGradient>
    <clipPath id="clip-path">
      <path id="Path_121660" data-name="Path 121660" d="M3,395H214.542v11.651H3Zm0,0" transform="translate(-3 -395)" fill="#fff"/>
    </clipPath>
  </defs>
  <g id="Image" transform="translate(-201 -968)">
    <g id="Shape" transform="translate(727.408 968) rotate(90)" fill="none">
      <path d="M326.185,26.667a25,25,0,0,1,40,0L662.369,421.58c12.361,16.481.6,40-20,40H50c-20.6,0-32.361-23.519-20-40Z" stroke="none"/>
      <path d="M 346.1846313476562 17.66665649414062 C 342.552734375 17.66665649414062 338.9214782714844 18.49649047851562 335.6833801269531 20.06649780273438 C 332.243896484375 21.73416137695312 329.317138671875 24.15667724609375 326.9846496582031 27.26666259765625 L 30.79998779296875 422.1796569824219 C 29.35406494140625 424.1074829101562 28.2113037109375 426.1926574707031 27.40350341796875 428.3770751953125 C 26.63299560546875 430.4602355957031 26.16448974609375 432.638671875 26.0108642578125 434.8517456054688 C 25.7152099609375 439.111572265625 26.587646484375 443.4205932617188 28.53375244140625 447.312744140625 C 30.47979736328125 451.2049255371094 33.403564453125 454.4882507324219 36.98883056640625 456.8076782226562 C 38.85150146484375 458.0126647949219 40.87530517578125 458.94482421875 43.004150390625 459.5783996582031 C 45.23638916015625 460.2428283691406 47.59014892578125 460.5796508789062 50 460.5796508789062 L 642.369384765625 460.5796508789062 C 644.7792358398438 460.5796508789062 647.1329956054688 460.2427368164062 649.3652954101562 459.5783996582031 C 651.494140625 458.94482421875 653.5178833007812 458.0125732421875 655.3805541992188 456.8075866699219 C 658.9658203125 454.4881591796875 661.8895263671875 451.2049255371094 663.8356323242188 447.3126525878906 C 665.78173828125 443.4205017089844 666.6541137695312 439.1115112304688 666.3584594726562 434.8516540527344 C 666.2048950195312 432.638671875 665.7363891601562 430.4602355957031 664.9658813476562 428.3770751953125 C 664.1580810546875 426.1925659179688 663.0153198242188 424.1074829101562 661.5693969726562 422.1796569824219 L 365.3846435546875 27.26666259765625 C 363.0521545410156 24.15667724609375 360.1253967285156 21.73416137695312 356.6858825683594 20.06649780273438 C 353.4478149414062 18.49649047851562 349.8165588378906 17.66665649414062 346.1846313476562 17.66665649414062 M 346.1846313476562 16.66665649414062 C 353.6846313476562 16.66665649414062 361.1846313476562 20 366.1846313476562 26.66665649414062 L 662.369384765625 421.5796508789062 C 674.7300415039062 438.0604858398438 662.970458984375 461.57958984375 642.369384765625 461.5796508789062 L 50 461.5796508789062 C 29.39886474609375 461.5796508789062 17.6392822265625 438.0604858398438 30 421.5796508789062 L 326.1846313476562 26.66665649414062 C 331.1846313476562 20 338.6846313476562 16.66665649414062 346.1846313476562 16.66665649414062 Z" stroke="none" fill="#35ccde"/>
    </g>
    <path id="Shape-2" data-name="Shape" d="M269.289,33.508a25,25,0,0,1,42.286,0l245.1,388.434a25,25,0,0,1-21.143,38.341H45.335a25,25,0,0,1-21.143-38.341Z" transform="translate(661.283 1023.752) rotate(90)" fill="url(#linear-gradient)"/>
    <g id="Icon" transform="translate(265.83 1242.04)">
      <path id="Path_121566" data-name="Path 121566" d="M208.267,280.277q-1.373.626-2.783,1.161.691,1.446,1.461,2.842,1.464-.706,2.891-1.506Q209.012,281.553,208.267,280.277Zm0,0" transform="translate(-136.498 -186.161)" fill="#fff" fill-rule="evenodd"/>
      <path id="Path_121567" data-name="Path 121567" d="M11.423,147.221,3.056,140.48s7.82-12.5,22.092-11.156c0,0,12.063.631,15.771,10.331,0,0,4.187,12.939-5.432,21.5,0,0-15.243,13.367-21.356,16.709l7.255-3.1H42.58V185.2H2.313v-9.862l22.335-18.014c4.715-3.8,8.208-11.453,2.444-16.165a6.845,6.845,0,0,0-5.67-1.4C17.381,140.477,13.632,144.7,11.423,147.221Zm0,0" transform="translate(-1.548 -85.829)" fill="#fff" fill-rule="evenodd"/>
      <path id="Path_121568" data-name="Path 121568" d="M337.143,141.525l-.009-10.025h36.743v8.953l-13.8,13.522s11.548,1.158,14.357,11.966c3.165,12.18-7.622,22.428-20.514,21.514,0,0-11.086.527-19.8-9.636l7.653-7.522s5.677,7.391,13.859,6.335c0,0,7.154,0,7.513-6.288.472-8.284-9.369-8.591-15.7-7.834l-1.848-7.391,17.685-17.686-6.995,4.092Zm0,0" transform="translate(-221.941 -87.341)" fill="#fff" fill-rule="evenodd"/>
      <path id="Path_121569" data-name="Path 121569" d="M497.053,127.641A28.678,28.678,0,1,1,468.2,156.319a28.678,28.678,0,0,1,28.853-28.678Zm0,10.942c9.143,0,16.6,7.967,16.6,17.736s-7.458,17.735-16.6,17.735-16.6-7.967-16.6-17.735S487.908,138.583,497.053,138.583Zm0,0" transform="translate(-310.998 -84.778)" fill="#fff" fill-rule="evenodd"/>
      <path id="Path_121570" data-name="Path 121570" d="M230.314,133.6q1.026-1,2.13-1.932-1.021-1.179-2.13-2.286-1.11,1.106-2.13,2.286Q229.29,132.606,230.314,133.6Zm0,0" transform="translate(-151.576 -85.937)" fill="#fff" fill-rule="evenodd"/>
      <path id="Path_121571" data-name="Path 121571" d="M228.93,105.87q1.4-1.43,2.933-2.743-1.4-1.72-2.933-3.3-1.531,1.586-2.934,3.3Q227.523,104.439,228.93,105.87Zm0,0" transform="translate(-150.123 -66.301)" fill="#fff" fill-rule="evenodd"/>
      <path id="Path_121572" data-name="Path 121572" d="M242.456,121.838q1.365-1.019,2.828-1.941-.966-1.543-2.025-3.01c-1,.75-1.977,1.536-2.907,2.36Q241.45,120.506,242.456,121.838Zm0,0" transform="translate(-159.658 -77.635)" fill="#fff" fill-rule="evenodd"/>
      <path id="Path_121573" data-name="Path 121573" d="M261.568,153.039c-.33-.754-.683-1.5-1.052-2.228q1.29-.474,2.615-.862.509,1.236.96,2.5Q262.815,152.7,261.568,153.039Zm0,0" transform="translate(-173.051 -99.595)" fill="#fff" fill-rule="evenodd"/>
      <path id="Path_121574" data-name="Path 121574" d="M250.262,157.3c-.382-.614-.779-1.217-1.2-1.809.7-.34,1.4-.662,2.115-.962q.59,1,1.122,2.042Q251.267,156.906,250.262,157.3Zm0,0" transform="translate(-165.444 -102.638)" fill="#fff" fill-rule="evenodd"/>
      <path id="Path_121575" data-name="Path 121575" d="M253.659,137.708q-.755-1.307-1.593-2.56,1.4-.777,2.839-1.468.783,1.424,1.481,2.9Q255.006,137.1,253.659,137.708Zm0,0" transform="translate(-167.439 -88.789)" fill="#fff" fill-rule="evenodd"/>
      <path id="Path_121576" data-name="Path 121576" d="M241.314,144.849q-.844-1.041-1.767-2.028,1.135-.771,2.3-1.481.881,1.131,1.678,2.32Q242.405,144.223,241.314,144.849Zm0,0" transform="translate(-159.123 -93.877)" fill="#fff" fill-rule="evenodd"/>
      <path id="Path_121577" data-name="Path 121577" d="M217.129,122.037q1-1.33,2.1-2.589-1.393-1.236-2.9-2.362-1.054,1.464-2.016,3Q215.769,121.014,217.129,122.037Zm0,0" transform="translate(-142.362 -77.767)" fill="#fff" fill-rule="evenodd"/>
      <path id="Path_121578" data-name="Path 121578" d="M230.314,283.93q1.026,1,2.13,1.932-1.021,1.178-2.13,2.286-1.11-1.106-2.13-2.286Q229.29,284.929,230.314,283.93Zm0,0" transform="translate(-151.576 -188.588)" fill="#fff" fill-rule="evenodd"/>
      <path id="Path_121579" data-name="Path 121579" d="M228.93,308.051q1.4,1.43,2.933,2.743-1.4,1.719-2.933,3.3-1.531-1.586-2.934-3.3Q227.523,309.481,228.93,308.051Zm0,0" transform="translate(-150.123 -204.609)" fill="#fff" fill-rule="evenodd"/>
      <path id="Path_121580" data-name="Path 121580" d="M242.456,294.246q1.365,1.019,2.828,1.941-.966,1.543-2.025,3.01c-1-.75-1.977-1.536-2.907-2.36Q241.45,295.579,242.456,294.246Zm0,0" transform="translate(-159.658 -195.44)" fill="#fff" fill-rule="evenodd"/>
      <path id="Path_121581" data-name="Path 121581" d="M217.129,294.047q1,1.33,2.1,2.589-1.393,1.236-2.9,2.362-1.054-1.464-2.016-3Q215.769,295.071,217.129,294.047Zm0,0" transform="translate(-142.362 -195.308)" fill="#fff" fill-rule="evenodd"/>
      <path id="Path_121582" data-name="Path 121582" d="M274.622,147.944q1.413-.22,2.855-.338-.148-1.552-.409-3.1-1.544.258-3.06.627Q274.366,146.536,274.622,147.944Zm0,0" transform="translate(-182.013 -95.981)" fill="#fff" fill-rule="evenodd"/>
      <path id="Path_121583" data-name="Path 121583" d="M288.418,125.475q1.973-.35,3.98-.533-.142-2.212-.472-4.391-2.166.4-4.3.988Q288.1,123.492,288.418,125.475Zm0,0" transform="translate(-191.055 -80.068)" fill="#fff" fill-rule="evenodd"/>
      <path id="Path_121584" data-name="Path 121584" d="M291.249,146.3q1.7-.039,3.43.059.11-1.816.1-3.627-1.879.042-3.736.235Q291.2,144.627,291.249,146.3Zm0,0" transform="translate(-193.325 -94.8)" fill="#fff" fill-rule="evenodd"/>
      <path id="Path_121585" data-name="Path 121585" d="M291.82,164.751c.1-1,.158-2.006.188-3.009q1.592.179,3.164.451-.189,1.615-.477,3.224Q293.27,165.038,291.82,164.751Zm0,0" transform="translate(-193.844 -107.428)" fill="#fff" fill-rule="evenodd"/>
      <path id="Path_121586" data-name="Path 121586" d="M277.977,163.426c-.054-.891-.143-1.783-.262-2.676q1.373.032,2.735.13c.041.955.046,1.91.021,2.862Q279.231,163.549,277.977,163.426Zm0,0" transform="translate(-184.475 -106.769)" fill="#fff" fill-rule="evenodd"/>
      <path id="Path_121587" data-name="Path 121587" d="M265.486,163.966q-.293-1.041-.65-2.07c.763-.134,1.529-.248,2.3-.337q.289,1.129.509,2.273Q266.564,163.866,265.486,163.966Zm0,0" transform="translate(-175.921 -107.307)" fill="#fff" fill-rule="evenodd"/>
      <path id="Path_121588" data-name="Path 121588" d="M269.767,130.744q1.588-.5,3.207-.9-.415-1.814-.986-3.6-1.71.58-3.385,1.279Q269.253,129.121,269.767,130.744Zm0,0" transform="translate(-178.422 -83.851)" fill="#fff" fill-rule="evenodd"/>
      <path id="Path_121589" data-name="Path 121589" d="M187.81,270.383q.256,1.409.614,2.811-1.515.366-3.061.626-.262-1.544-.409-3.1Q186.4,270.6,187.81,270.383Zm0,0" transform="translate(-122.861 -179.589)" fill="#fff" fill-rule="evenodd"/>
      <path id="Path_121590" data-name="Path 121590" d="M186.893,256.535q.083,1.336.263,2.676-1.373-.032-2.735-.13-.061-1.432-.021-2.862Q185.641,256.41,186.893,256.535Zm0,0" transform="translate(-122.483 -170.181)" fill="#fff" fill-rule="evenodd"/>
      <path id="Path_121591" data-name="Path 121591" d="M171.762,290.148q.313,1.981.8,3.936-2.139.588-4.3.989-.328-2.18-.473-4.393Q169.784,290.5,171.762,290.148Zm0,0" transform="translate(-111.455 -192.718)" fill="#fff" fill-rule="evenodd"/>
      <path id="Path_121592" data-name="Path 121592" d="M190.959,285.8q.519,1.623,1.177,3.223-1.68.7-3.4,1.275-.575-1.788-1-3.607Q189.367,286.3,190.959,285.8Zm0,0" transform="translate(-124.714 -189.83)" fill="#fff" fill-rule="evenodd"/>
      <path id="Path_121593" data-name="Path 121593" d="M222.908,273.266c-.707.422-1.426.822-2.15,1.2q.777,1.133,1.632,2.22,1.129-.71,2.233-1.479Q223.727,274.263,222.908,273.266Zm0,0" transform="translate(-146.643 -181.504)" fill="#fff" fill-rule="evenodd"/>
      <path id="Path_121594" data-name="Path 121594" d="M216.283,263.922q-1,.419-2.025.778.555,1.021,1.166,2.011,1.065-.476,2.1-1.013C217.09,265.117,216.679,264.525,216.283,263.922Zm0,0" transform="translate(-142.326 -175.298)" fill="#fff" fill-rule="evenodd"/>
      <path id="Path_121595" data-name="Path 121595" d="M202.371,268.336q-1.289.358-2.613.626.476,1.287,1.015,2.542,1.373-.412,2.712-.916Q202.9,269.479,202.371,268.336Zm0,0" transform="translate(-132.695 -178.23)" fill="#fff" fill-rule="evenodd"/>
      <path id="Path_121596" data-name="Path 121596" d="M199.43,257.25c-.72.042-1.446.063-2.168.062q.181,1.147.433,2.285,1.16-.1,2.315-.261Q199.685,258.3,199.43,257.25Zm0,0" transform="translate(-131.037 -170.866)" fill="#fff" fill-rule="evenodd"/>
      <path id="Path_121597" data-name="Path 121597" d="M170.987,271.666c.026,1.109.1,2.218.2,3.324q-1.85.2-3.727.245-.012-1.8.1-3.618Q169.285,271.712,170.987,271.666Zm0,0" transform="translate(-111.243 -180.409)" fill="#fff" fill-rule="evenodd"/>
      <path id="Path_121598" data-name="Path 121598" d="M302.313,184.648q1.271.655,2.508,1.41.793-1.344,1.494-2.745-1.4-.7-2.843-1.3Q302.936,183.36,302.313,184.648Zm0,0" transform="translate(-200.814 -120.894)" fill="#fff" fill-rule="evenodd"/>
      <path id="Path_121599" data-name="Path 121599" d="M277.234,176.223q1.053.25,2.1.565c.1-.768.185-1.539.242-2.311-.761-.163-1.525-.3-2.293-.418Q277.291,175.145,277.234,176.223Zm0,0" transform="translate(-184.156 -115.609)" fill="#fff" fill-rule="evenodd"/>
      <path id="Path_121600" data-name="Path 121600" d="M290.137,179.55q1.251.47,2.481,1.034.372-1.32.676-2.652-1.352-.476-2.731-.858Q290.384,178.316,290.137,179.55Zm0,0" transform="translate(-192.726 -117.612)" fill="#fff" fill-rule="evenodd"/>
      <path id="Path_121601" data-name="Path 121601" d="M325.258,175.2q1.8.879,3.53,1.914,1.188-1.873,2.2-3.827-1.987-.95-4.061-1.737Q326.17,173.408,325.258,175.2Zm0,0" transform="translate(-216.054 -113.941)" fill="#fff" fill-rule="evenodd"/>
      <path id="Path_121602" data-name="Path 121602" d="M315.926,192.488q1.4.972,2.736,2.068,1.157-1.4,2.213-2.874-1.541-1.074-3.156-2.011Q316.869,191.112,315.926,192.488Zm0,0" transform="translate(-209.856 -125.98)" fill="#fff" fill-rule="evenodd"/>
      <path id="Path_121603" data-name="Path 121603" d="M308.164,168.932q1.58.527,3.119,1.167.732-1.711,1.325-3.493-1.722-.537-3.489-.961Q308.706,167.319,308.164,168.932Zm0,0" transform="translate(-204.7 -110.021)" fill="#fff" fill-rule="evenodd"/>
      <path id="Path_121604" data-name="Path 121604" d="M159.713,232.007q-.622,1.287-1.158,2.633-1.443-.6-2.844-1.3.7-1.4,1.5-2.744Q158.442,231.349,159.713,232.007Zm0,0" transform="translate(-103.438 -153.164)" fill="#fff" fill-rule="evenodd"/>
      <path id="Path_121605" data-name="Path 121605" d="M176.3,208.886q-.693.834-1.336,1.71-.812-.829-1.582-1.7.767-.879,1.583-1.71Q175.6,208.059,176.3,208.886Zm0,0" transform="translate(-115.173 -137.612)" fill="#fff" fill-rule="evenodd"/>
      <path id="Path_121606" data-name="Path 121606" d="M167.2,219.747q-.72,1.129-1.364,2.318-1.092-.833-2.134-1.716.8-1.192,1.67-2.326Q166.262,218.908,167.2,219.747Zm0,0" transform="translate(-108.746 -144.811)" fill="#fff" fill-rule="evenodd"/>
      <path id="Path_121607" data-name="Path 121607" d="M133.47,238.836q-.913,1.787-1.675,3.65-2.072-.783-4.061-1.737,1.019-1.954,2.2-3.827Q131.666,237.953,133.47,238.836Zm0,0" transform="translate(-84.855 -157.364)" fill="#fff" fill-rule="evenodd"/>
      <path id="Path_121608" data-name="Path 121608" d="M152.884,247.2q-.535,1.617-.947,3.3-1.769-.425-3.5-.969.588-1.785,1.317-3.5Q151.3,246.669,152.884,247.2Zm0,0" transform="translate(-98.609 -163.412)" fill="#fff" fill-rule="evenodd"/>
      <path id="Path_121609" data-name="Path 121609" d="M188.5,244.256q-1.055-.25-2.1-.565c-.1.768-.185,1.539-.241,2.311.76.163,1.524.3,2.291.418C188.444,245.7,188.461,244.975,188.5,244.256Zm0,0" transform="translate(-123.663 -161.86)" fill="#fff" fill-rule="evenodd"/>
      <path id="Path_121610" data-name="Path 121610" d="M171.441,253.362q-1.478-.3-2.932-.7-.3,1.576-.493,3.158,1.6.292,3.221.486Q171.293,254.83,171.441,253.362Zm0,0" transform="translate(-111.611 -167.818)" fill="#fff" fill-rule="evenodd"/>
      <path id="Path_121611" data-name="Path 121611" d="M173.971,239.386q-1.255-.47-2.483-1.034-.372,1.32-.675,2.652,1.351.476,2.731.858Q173.723,240.618,173.971,239.386Zm0,0" transform="translate(-113.469 -158.314)" fill="#fff" fill-rule="evenodd"/>
      <path id="Path_121612" data-name="Path 121612" d="M178.148,227.791q-.911-.584-1.789-1.228-.527,1.037-1,2.1,1,.608,2.024,1.153Q177.735,228.79,178.148,227.791Zm0,0" transform="translate(-116.491 -150.483)" fill="#fff" fill-rule="evenodd"/>
      <path id="Path_121613" data-name="Path 121613" d="M144.5,222.707q-.946,1.372-1.793,2.806-1.613-.929-3.156-2,1.053-1.464,2.211-2.864Q143.1,221.742,144.5,222.707Zm0,0" transform="translate(-92.704 -146.557)" fill="#fff" fill-rule="evenodd"/>
      <path id="Path_121614" data-name="Path 121614" d="M303,231.046q.641,1.279,1.194,2.617,1.434-.613,2.827-1.335-.718-1.391-1.532-2.723Q304.268,230.375,303,231.046Zm0,0" transform="translate(-201.273 -152.504)" fill="#fff" fill-rule="evenodd"/>
      <path id="Path_121615" data-name="Path 121615" d="M295.074,197.761q.925.816,1.8,1.68.842-1.088,1.615-2.231-1.021-.86-2.09-1.675Q295.773,196.676,295.074,197.761Zm0,0" transform="translate(-196.005 -129.874)" fill="#fff" fill-rule="evenodd"/>
      <path id="Path_121616" data-name="Path 121616" d="M288.27,208.151q.7.823,1.359,1.692.8-.838,1.557-1.724-.775-.868-1.6-1.689Q288.951,207.313,288.27,208.151Zm0,0" transform="translate(-191.486 -137.111)" fill="#fff" fill-rule="evenodd"/>
      <path id="Path_121617" data-name="Path 121617" d="M305.836,208.311q1.013,1.118,1.954,2.3,1.167-1.1,2.26-2.26-1.12-1.177-2.315-2.293Q306.823,207.213,305.836,208.311Zm0,0" transform="translate(-203.154 -136.862)" fill="#fff" fill-rule="evenodd"/>
      <path id="Path_121618" data-name="Path 121618" d="M296.363,218.9q.734,1.119,1.395,2.3,1.08-.846,2.11-1.743c-.541-.788-1.11-1.556-1.7-2.3Q297.29,218.044,296.363,218.9Zm0,0" transform="translate(-196.862 -144.23)" fill="#fff" fill-rule="evenodd"/>
      <path id="Path_121619" data-name="Path 121619" d="M325.922,237.547q.936,1.774,1.722,3.628,2.062-.812,4.037-1.79-1.047-1.94-2.255-3.8Q327.711,236.641,325.922,237.547Zm0,0" transform="translate(-216.495 -156.477)" fill="#fff" fill-rule="evenodd"/>
      <path id="Path_121620" data-name="Path 121620" d="M286.223,192.019q.934.539,1.845,1.138c.317-.705.616-1.422.891-2.146-.681-.373-1.375-.723-2.076-1.055C286.685,190.653,286.463,191.339,286.223,192.019Zm0,0" transform="translate(-190.126 -126.169)" fill="#fff" fill-rule="evenodd"/>
      <path id="Path_121621" data-name="Path 121621" d="M309.156,246.146q.557,1.611.99,3.284,1.765-.449,3.484-1.015-.613-1.777-1.365-3.485Q310.732,245.593,309.156,246.146Zm0,0" transform="translate(-205.359 -162.683)" fill="#fff" fill-rule="evenodd"/>
      <path id="Path_121622" data-name="Path 121622" d="M316.238,221.569q.964,1.357,1.831,2.781,1.6-.95,3.13-2.038-1.074-1.45-2.251-2.834Q317.626,220.585,316.238,221.569Zm0,0" transform="translate(-210.063 -145.777)" fill="#fff" fill-rule="evenodd"/>
      <path id="Path_121623" data-name="Path 121623" d="M159.792,185.568q-1.263.673-2.489,1.443-.81-1.332-1.529-2.726,1.391-.718,2.826-1.333Q159.151,184.289,159.792,185.568Zm0,0" transform="translate(-103.479 -121.517)" fill="#fff" fill-rule="evenodd"/>
      <path id="Path_121624" data-name="Path 121624" d="M133.306,176.433q-1.79.9-3.5,1.96-1.212-1.855-2.255-3.8,1.975-.976,4.038-1.79Q132.371,174.656,133.306,176.433Zm0,0" transform="translate(-84.731 -114.776)" fill="#fff" fill-rule="evenodd"/>
      <path id="Path_121625" data-name="Path 121625" d="M144.426,193.6q-1.385.992-2.708,2.1-1.177-1.387-2.252-2.844,1.527-1.1,3.131-2.053Q143.462,192.237,144.426,193.6Zm0,0" transform="translate(-92.647 -126.735)" fill="#fff" fill-rule="evenodd"/>
      <path id="Path_121626" data-name="Path 121626" d="M156.181,208.561q-1.015-1.116-1.955-2.3-1.167,1.1-2.261,2.258,1.12,1.179,2.315,2.294Q155.193,209.66,156.181,208.561Zm0,0" transform="translate(-100.95 -137.002)" fill="#fff" fill-rule="evenodd"/>
      <path id="Path_121627" data-name="Path 121627" d="M167.06,198.979q-.736-1.119-1.394-2.3-1.08.848-2.11,1.743.81,1.183,1.7,2.3Q166.13,199.829,167.06,198.979Zm0,0" transform="translate(-108.648 -130.635)" fill="#fff" fill-rule="evenodd"/>
      <path id="Path_121628" data-name="Path 121628" d="M152.846,169.923q-1.572.547-3.1,1.207-.751-1.7-1.371-3.475,1.718-.561,3.477-1.007Q152.285,168.317,152.846,169.923Zm0,0" transform="translate(-98.563 -110.687)" fill="#fff" fill-rule="evenodd"/>
      <path id="Path_121629" data-name="Path 121629" d="M276.508,269.766q-.238,1.41-.578,2.817,1.521.349,3.069.586.242-1.546.367-3.1C278.406,270,277.451,269.9,276.508,269.766Zm0,0" transform="translate(-183.29 -179.18)" fill="#fff" fill-rule="evenodd"/>
      <path id="Path_121630" data-name="Path 121630" d="M289.945,237.445c.179.8.332,1.611.467,2.419q1.318-.38,2.619-.85-.319-1.3-.7-2.584Q291.149,236.98,289.945,237.445Zm0,0" transform="translate(-192.599 -157.037)" fill="#fff" fill-rule="evenodd"/>
      <path id="Path_121631" data-name="Path 121631" d="M278.914,241.807q.083,1.08.1,2.168,1.143-.2,2.276-.473c-.077-.773-.18-1.544-.3-2.311Q279.958,241.534,278.914,241.807Zm0,0" transform="translate(-185.272 -160.2)" fill="#fff" fill-rule="evenodd"/>
      <path id="Path_121632" data-name="Path 121632" d="M292.383,252.974c.107,1,.185,2,.227,3.006q1.59-.2,3.157-.493-.213-1.612-.519-3.217C294.3,252.536,293.347,252.768,292.383,252.974Zm0,0" transform="translate(-194.218 -167.559)" fill="#fff" fill-rule="evenodd"/>
      <path id="Path_121633" data-name="Path 121633" d="M278.638,255.832q-.069,1.338-.228,2.68,1.372-.049,2.732-.165.041-1.432-.017-2.862Q279.888,255.693,278.638,255.832Zm0,0" transform="translate(-184.937 -169.693)" fill="#fff" fill-rule="evenodd"/>
      <path id="Path_121634" data-name="Path 121634" d="M290.251,289.352q-.289,1.985-.747,3.945,2.145.561,4.318.932.3-2.182.416-4.4Q292.233,289.676,290.251,289.352Zm0,0" transform="translate(-192.306 -192.189)" fill="#fff" fill-rule="evenodd"/>
      <path id="Path_121635" data-name="Path 121635" d="M286.367,226.807q.439.99.821,2.009c.673-.384,1.335-.785,1.984-1.209q-.5-1.053-1.057-2.076Q287.258,226.2,286.367,226.807Zm0,0" transform="translate(-190.222 -149.798)" fill="#fff" fill-rule="evenodd"/>
      <path id="Path_121636" data-name="Path 121636" d="M271.74,285.23q-.5,1.629-1.135,3.237c1.124.45,2.264.861,3.412,1.232q.553-1.8.952-3.619Q273.34,285.712,271.74,285.23Zm0,0" transform="translate(-179.753 -189.451)" fill="#fff" fill-rule="evenodd"/>
      <path id="Path_121637" data-name="Path 121637" d="M240.65,273.078q1.068.62,2.165,1.178-.763,1.143-1.6,2.239c-.758-.463-1.511-.947-2.251-1.451Q239.844,274.086,240.65,273.078Zm0,0" transform="translate(-158.734 -181.38)" fill="#fff" fill-rule="evenodd"/>
      <path id="Path_121638" data-name="Path 121638" d="M248.333,263.648q1,.4,2.036.752-.541,1.027-1.14,2.025-1.07-.462-2.112-.987Q247.757,264.561,248.333,263.648Zm0,0" transform="translate(-164.152 -175.116)" fill="#fff" fill-rule="evenodd"/>
      <path id="Path_121639" data-name="Path 121639" d="M254.428,279.918q1.381.608,2.8,1.126-.673,1.454-1.424,2.861-1.474-.689-2.911-1.469Q253.7,281.2,254.428,279.918Zm0,0" transform="translate(-167.987 -185.923)" fill="#fff" fill-rule="evenodd"/>
      <path id="Path_121640" data-name="Path 121640" d="M261.4,267.895q1.3.342,2.624.593-.46,1.293-.983,2.555-1.378-.394-2.723-.881Q260.889,269.046,261.4,267.895Zm0,0" transform="translate(-172.919 -177.937)" fill="#fff" fill-rule="evenodd"/>
      <path id="Path_121641" data-name="Path 121641" d="M231.976,266.609q.81.718,1.667,1.39-.856.787-1.754,1.527-.854-.795-1.659-1.637Q231.126,267.275,231.976,266.609Zm0,0" transform="translate(-152.935 -177.083)" fill="#fff" fill-rule="evenodd"/>
      <path id="Path_121642" data-name="Path 121642" d="M266.132,256.762q1.08.051,2.169.034-.169,1.151-.4,2.29c-.775-.054-1.549-.133-2.319-.231Q265.889,257.817,266.132,256.762Zm0,0" transform="translate(-176.414 -170.542)" fill="#fff" fill-rule="evenodd"/>
      <path id="Path_121643" data-name="Path 121643" d="M292.853,270.761q-.022,1.665-.161,3.325,1.853.177,3.731.2-.012-1.8-.148-3.615C295.127,270.745,293.983,270.775,292.853,270.761Zm0,0" transform="translate(-194.423 -179.779)" fill="#fff" fill-rule="evenodd"/>
      <path id="Path_121644" data-name="Path 121644" d="M188.142,148.452q-1.417-.2-2.861-.3.13-1.554.37-3.1,1.546.24,3.069.588Q188.38,147.041,188.142,148.452Zm0,0" transform="translate(-123.079 -96.339)" fill="#fff" fill-rule="evenodd"/>
      <path id="Path_121645" data-name="Path 121645" d="M222.13,145.882q-1.07-.62-2.165-1.178.763-1.143,1.6-2.239,1.137.695,2.251,1.451Q222.937,144.874,222.13,145.882Zm0,0" transform="translate(-146.117 -94.624)" fill="#fff" fill-rule="evenodd"/>
      <path id="Path_121646" data-name="Path 121646" d="M215.639,156.578q-1-.4-2.034-.75.541-1.029,1.139-2.026,1.07.462,2.112.986Q216.218,155.665,215.639,156.578Zm0,0" transform="translate(-141.892 -102.154)" fill="#fff" fill-rule="evenodd"/>
      <path id="Path_121647" data-name="Path 121647" d="M207.4,137.919q-1.38-.606-2.8-1.124.671-1.456,1.425-2.861,1.472.687,2.909,1.468Q208.133,136.635,207.4,137.919Zm0,0" transform="translate(-135.914 -88.958)" fill="#fff" fill-rule="evenodd"/>
      <path id="Path_121648" data-name="Path 121648" d="M201.674,151.6q-1.3-.342-2.623-.593.46-1.293.984-2.555,1.378.393,2.723.881Q202.185,150.445,201.674,151.6Zm0,0" transform="translate(-132.225 -98.599)" fill="#fff" fill-rule="evenodd"/>
      <path id="Path_121649" data-name="Path 121649" d="M171.506,126.194c-1.32-.217-2.651-.375-3.986-.482q.114-2.213.416-4.4c1.447.251,2.888.559,4.316.933Q171.8,124.208,171.506,126.194Zm0,0" transform="translate(-111.282 -80.576)" fill="#fff" fill-rule="evenodd"/>
      <path id="Path_121650" data-name="Path 121650" d="M231.679,153.342q-.811-.718-1.667-1.39.852-.787,1.752-1.525.854.793,1.659,1.636Q232.529,152.676,231.679,153.342Zm0,0" transform="translate(-152.79 -99.912)" fill="#fff" fill-rule="evenodd"/>
      <path id="Path_121651" data-name="Path 121651" d="M170.888,147.038q-1.7-.018-3.429.1-.133-1.816-.143-3.625c1.254.012,2.5.072,3.738.187Q170.911,145.368,170.888,147.038Zm0,0" transform="translate(-111.146 -95.322)" fill="#fff" fill-rule="evenodd"/>
      <path id="Path_121652" data-name="Path 121652" d="M174.356,181.483c-.178-.8-.332-1.611-.467-2.42q-1.32.379-2.619.85.318,1.3.7,2.584Q173.152,181.946,174.356,181.483Zm0,0" transform="translate(-113.773 -118.933)" fill="#fff" fill-rule="evenodd"/>
      <path id="Path_121653" data-name="Path 121653" d="M186.791,178.4q-.083-1.08-.1-2.168-1.145.2-2.277.474.118,1.16.3,2.311Q185.743,178.678,186.791,178.4Zm0,0" transform="translate(-122.503 -117.054)" fill="#fff" fill-rule="evenodd"/>
      <path id="Path_121654" data-name="Path 121654" d="M171.325,165.4q-.162-1.5-.226-3.007-1.592.2-3.159.493.211,1.611.519,3.217Q169.881,165.711,171.325,165.4Zm0,0" transform="translate(-111.561 -107.864)" fill="#fff" fill-rule="evenodd"/>
      <path id="Path_121655" data-name="Path 121655" d="M186.327,163.9q.065-1.338.228-2.68-1.372.049-2.732.165-.043,1.432.016,2.862Q185.076,164.04,186.327,163.9Zm0,0" transform="translate(-122.098 -107.081)" fill="#fff" fill-rule="evenodd"/>
      <path id="Path_121656" data-name="Path 121656" d="M178.489,192.412q-.441-.99-.821-2.01-1.009.577-1.984,1.209.5,1.053,1.056,2.076C177.312,193.242,177.9,192.818,178.489,192.412Zm0,0" transform="translate(-116.704 -126.465)" fill="#fff" fill-rule="evenodd"/>
      <path id="Path_121657" data-name="Path 121657" d="M198.763,164.339q.282-1.047.624-2.079c-.765-.123-1.532-.228-2.3-.307-.184.756-.342,1.516-.481,2.278Q197.686,164.251,198.763,164.339Zm0,0" transform="translate(-130.599 -107.568)" fill="#fff" fill-rule="evenodd"/>
      <path id="Path_121658" data-name="Path 121658" d="M191,131.2q-1.6-.484-3.219-.853.393-1.82.941-3.615,1.715.557,3.4,1.234Q191.5,129.574,191,131.2Zm0,0" transform="translate(-124.742 -84.175)" fill="#fff" fill-rule="evenodd"/>
      <g id="Group_54703" data-name="Group 54703" transform="translate(0.996 132.638)" clip-path="url(#clip-path)">
        <path id="Path_121659" data-name="Path 121659" d="M3.395,406.728V395.6H4.869v5.517l5.525-5.517h1.992L7.72,400.11l4.871,6.619H10.648L6.689,401.1l-1.821,1.776v3.855Zm200.906,0,4.274-11.125h1.583l4.555,11.125h-1.679l-1.3-3.37h-4.652l-1.22,3.37Zm3.209-4.57h3.774l-1.162-3.08q-.529-1.4-.79-2.307a13.828,13.828,0,0,1-.6,2.126Zm-6.054-6.556h1.472v11.125h-1.472Zm-10.678,11.125V395.6h4.175a5.2,5.2,0,0,1,2.044.337,2.63,2.63,0,0,1,1.208,1.042,2.741,2.741,0,0,1,.437,1.469,2.5,2.5,0,0,1-.389,1.34,2.75,2.75,0,0,1-1.166,1.018,2.911,2.911,0,0,1,1.551,1.009,2.7,2.7,0,0,1,.544,1.686,3.249,3.249,0,0,1-.332,1.453,2.818,2.818,0,0,1-.816,1.036,3.421,3.421,0,0,1-1.217.549,7.409,7.409,0,0,1-1.8.186Zm1.474-6.449h2.4a5.435,5.435,0,0,0,1.406-.13,1.554,1.554,0,0,0,.843-.555,1.6,1.6,0,0,0,.283-.971,1.8,1.8,0,0,0-.262-.974,1.352,1.352,0,0,0-.76-.577,6.343,6.343,0,0,0-1.693-.156h-2.222Zm0,5.136h2.768a6.61,6.61,0,0,0,1-.052,2.4,2.4,0,0,0,.85-.306,1.621,1.621,0,0,0,.561-.616,1.953,1.953,0,0,0,.22-.938,1.858,1.858,0,0,0-.319-1.082,1.688,1.688,0,0,0-.885-.645,5.56,5.56,0,0,0-1.627-.184h-2.572Zm-13,1.313,4.275-11.125h1.584l4.554,11.125h-1.679l-1.3-3.37h-4.653l-1.22,3.37Zm3.21-4.57h3.774l-1.162-3.08q-.529-1.4-.788-2.307a14.1,14.1,0,0,1-.6,2.126Zm-13.187,4.57V395.6h4.932a6.562,6.562,0,0,1,2.261.3,2.486,2.486,0,0,1,1.238,1.057,3.174,3.174,0,0,1,.462,1.679,2.784,2.784,0,0,1-.767,1.994,3.882,3.882,0,0,1-2.368,1.034,3.7,3.7,0,0,1,.889.555,7.783,7.783,0,0,1,1.223,1.478l1.935,3.029h-1.852l-1.472-2.316c-.43-.665-.784-1.178-1.064-1.531a3.288,3.288,0,0,0-.746-.742,2.241,2.241,0,0,0-.672-.3,4.762,4.762,0,0,0-.821-.051h-1.706v4.94Zm1.472-6.215h3.165a4.71,4.71,0,0,0,1.578-.21,1.679,1.679,0,0,0,.864-.668,1.807,1.807,0,0,0,.3-1,1.657,1.657,0,0,0-.573-1.3,2.678,2.678,0,0,0-1.81-.508H170.75Zm-13.084,6.215,4.275-11.125h1.585l4.553,11.125H166.4l-1.3-3.37h-4.653l-1.22,3.37Zm3.21-4.57h3.774l-1.162-3.08q-.529-1.4-.788-2.307a14.176,14.176,0,0,1-.6,2.126ZM151.36,395.6h1.472v11.125H151.36Zm-11.476,11.125V395.6h3.831a9.28,9.28,0,0,1,1.982.161,3.745,3.745,0,0,1,1.63.8,4.529,4.529,0,0,1,1.317,1.9,7.46,7.46,0,0,1,.438,2.646,7.7,7.7,0,0,1-.3,2.245,5.464,5.464,0,0,1-.76,1.621,3.969,3.969,0,0,1-1.012,1.007,4.1,4.1,0,0,1-1.326.56,7.637,7.637,0,0,1-1.788.189Zm1.472-1.313h2.375a5.772,5.772,0,0,0,1.728-.2,2.481,2.481,0,0,0,1-.578,3.473,3.473,0,0,0,.815-1.406,6.857,6.857,0,0,0,.294-2.144A5.172,5.172,0,0,0,147,398.4a2.878,2.878,0,0,0-1.393-1.257,5.745,5.745,0,0,0-1.9-.228h-2.339Zm-5.4-9.813h1.473v6.43a7.572,7.572,0,0,1-.38,2.662,3.247,3.247,0,0,1-1.369,1.6,4.835,4.835,0,0,1-2.6.619,5.311,5.311,0,0,1-2.555-.539,3.053,3.053,0,0,1-1.421-1.559,7.4,7.4,0,0,1-.423-2.786V395.6h1.47v6.422a6.206,6.206,0,0,0,.27,2.134,2.058,2.058,0,0,0,.923,1.06,3.222,3.222,0,0,0,1.607.372,3.065,3.065,0,0,0,2.315-.738,4.247,4.247,0,0,0,.69-2.828Zm-18.888,11.125,4.273-11.125h1.586l4.553,11.125h-1.678l-1.3-3.37h-4.65l-1.221,3.37Zm3.208-4.57h3.775l-1.163-3.08q-.529-1.4-.787-2.307a14.5,14.5,0,0,1-.6,2.126Zm-12.851,1,1.388-.122a3,3,0,0,0,.459,1.369,2.5,2.5,0,0,0,1.119.866,4.218,4.218,0,0,0,1.706.329,4.1,4.1,0,0,0,1.488-.249,2.083,2.083,0,0,0,.96-.686,1.6,1.6,0,0,0,.316-.954,1.439,1.439,0,0,0-.306-.914,2.235,2.235,0,0,0-1-.654,19.451,19.451,0,0,0-1.982-.544,10.2,10.2,0,0,1-2.147-.694,3.014,3.014,0,0,1-1.188-1.036,2.543,2.543,0,0,1-.39-1.386,2.827,2.827,0,0,1,.477-1.573,2.97,2.97,0,0,1,1.4-1.113,5.351,5.351,0,0,1,2.041-.378,5.578,5.578,0,0,1,2.184.4,3.156,3.156,0,0,1,1.453,1.171,3.394,3.394,0,0,1,.547,1.754l-1.413.106a2.283,2.283,0,0,0-.771-1.594,3,3,0,0,0-1.937-.539,3.111,3.111,0,0,0-1.948.491,1.469,1.469,0,0,0-.611,1.178,1.263,1.263,0,0,0,.433.988,5.858,5.858,0,0,0,2.22.792,14.835,14.835,0,0,1,2.463.71A3.4,3.4,0,0,1,115.82,402a2.766,2.766,0,0,1,.459,1.583,3.022,3.022,0,0,1-.506,1.672,3.362,3.362,0,0,1-1.46,1.223,5.108,5.108,0,0,1-2.142.436,6.358,6.358,0,0,1-2.531-.441,3.543,3.543,0,0,1-1.6-1.323,3.733,3.733,0,0,1-.612-2Zm-13.236,3.574V395.6H101.7v1.313H95.665v3.446h5.219v1.313H95.665v5.054ZM81.579,401.31a6.048,6.048,0,0,1,1.486-4.336,5.067,5.067,0,0,1,3.843-1.567,5.341,5.341,0,0,1,2.777.736A4.833,4.833,0,0,1,91.57,398.2a6.651,6.651,0,0,1,.648,2.984,6.561,6.561,0,0,1-.681,3.027,4.681,4.681,0,0,1-1.936,2.024,5.531,5.531,0,0,1-2.7.686,5.239,5.239,0,0,1-2.808-.76,4.871,4.871,0,0,1-1.876-2.071,6.271,6.271,0,0,1-.638-2.78Zm1.519.022a4.454,4.454,0,0,0,1.08,3.169,3.774,3.774,0,0,0,5.448-.01,4.731,4.731,0,0,0,1.077-3.319,5.7,5.7,0,0,0-.462-2.37,3.555,3.555,0,0,0-1.342-1.573,3.658,3.658,0,0,0-1.983-.556,3.756,3.756,0,0,0-2.692,1.074,4.8,4.8,0,0,0-1.124,3.585Zm-18.38,5.4V395.6h2.215l2.633,7.876c.244.733.422,1.283.53,1.647.129-.4.325-1,.6-1.784l2.662-7.74h1.981v11.125H73.915v-9.311l-3.232,9.311h-1.33l-3.217-9.47v9.47ZM52.227,401.31a6.037,6.037,0,0,1,1.488-4.336,5.059,5.059,0,0,1,3.84-1.567,5.341,5.341,0,0,1,2.777.736,4.827,4.827,0,0,1,1.886,2.054,6.651,6.651,0,0,1,.648,2.984,6.529,6.529,0,0,1-.682,3.027,4.671,4.671,0,0,1-1.935,2.024,5.535,5.535,0,0,1-2.7.686,5.239,5.239,0,0,1-2.808-.76,4.871,4.871,0,0,1-1.876-2.071,6.252,6.252,0,0,1-.638-2.777Zm1.519.022a4.454,4.454,0,0,0,1.08,3.169,3.774,3.774,0,0,0,5.448-.01,4.731,4.731,0,0,0,1.076-3.319,5.706,5.706,0,0,0-.46-2.37,3.549,3.549,0,0,0-1.343-1.573,3.652,3.652,0,0,0-1.983-.556,3.755,3.755,0,0,0-2.69,1.074,4.8,4.8,0,0,0-1.128,3.585Zm-12.294,5.4V395.6h3.832a9.285,9.285,0,0,1,1.982.161,3.763,3.763,0,0,1,1.632.795,4.539,4.539,0,0,1,1.316,1.9,7.431,7.431,0,0,1,.438,2.646,7.7,7.7,0,0,1-.3,2.245,5.431,5.431,0,0,1-.76,1.621,3.98,3.98,0,0,1-1.012,1.007,4.123,4.123,0,0,1-1.326.56,7.64,7.64,0,0,1-1.788.189Zm1.472-1.313H45.3a5.777,5.777,0,0,0,1.728-.2,2.47,2.47,0,0,0,1-.578,3.474,3.474,0,0,0,.816-1.406,6.889,6.889,0,0,0,.292-2.144,5.187,5.187,0,0,0-.572-2.681,2.882,2.882,0,0,0-1.393-1.257,5.752,5.752,0,0,0-1.906-.228H42.924Zm-8.354-3.052v-1.3l4.712-.008v4.126a8.337,8.337,0,0,1-2.238,1.3,6.665,6.665,0,0,1-2.367.436,6.311,6.311,0,0,1-2.979-.7,4.642,4.642,0,0,1-2.023-2.028,6.373,6.373,0,0,1-.685-2.97,6.848,6.848,0,0,1,.682-3.03,4.51,4.51,0,0,1,1.953-2.093,6.15,6.15,0,0,1,2.937-.681,5.811,5.811,0,0,1,2.181.391,3.585,3.585,0,0,1,1.528,1.089,4.829,4.829,0,0,1,.844,1.821l-1.329.365a4.168,4.168,0,0,0-.622-1.337,2.551,2.551,0,0,0-1.065-.776,3.893,3.893,0,0,0-1.531-.292,4.511,4.511,0,0,0-1.746.308,3.272,3.272,0,0,0-1.19.808,3.9,3.9,0,0,0-.7,1.1,5.811,5.811,0,0,0-.425,2.238,5.435,5.435,0,0,0,.512,2.489,3.277,3.277,0,0,0,1.493,1.488,4.609,4.609,0,0,0,2.076.487,4.937,4.937,0,0,0,1.869-.37,4.733,4.733,0,0,0,1.38-.786V402.37Zm-16.445,4.365V395.6h1.511l5.843,8.734V395.6H26.89v11.125H25.38l-5.843-8.742v8.742ZM14.074,395.6h1.47v11.125h-1.47Zm0,0" transform="translate(-3.262 -395.27)" fill="#fff" fill-rule="evenodd"/>
      </g>
      <path id="Path_121661" data-name="Path 121661" d="M205.606,167.469a4.848,4.848,0,0,1,.719,2.423s1.5-2.461,4.621-.409c0,0-2.652-.356-3.282,1.011,0,0,4.075-1.066,4.949,2.707,0,0-1.886-2.1-3.61-1.722,0,0,3.913,1.367,2.818,5.387,0,0-.328-3.61-2.953-4.048,0,0,2.433,2,1.5,6.018,0,0,.055-2.981-1.859-4.4a6.348,6.348,0,0,1-.793,5.879s1.066-3.582-.656-4.9c0,0-.712-.437-.685.875,0,0-.2,7.516.168,11.182,0,0,7.526-6.368,13.965-2.134,0,0-6.376-3.113-13.719,3.742l4.9,4.3a1.229,1.229,0,0,1,2.273.649c0,1.654-2.323,1.537-3.173.544l-5.15-4.732-.037-.111-.038.111-5.149,4.732c-.849.993-3.173,1.11-3.173-.544a1.23,1.23,0,0,1,2.273-.649l4.9-4.3c-7.343-6.855-13.72-3.742-13.72-3.742,6.442-4.234,13.967,2.134,13.967,2.134.372-3.666.168-11.182.168-11.182.028-1.312-.683-.875-.683-.875-1.724,1.313-.657,4.9-.657,4.9a6.35,6.35,0,0,1-.792-5.879c-1.915,1.422-1.86,4.4-1.86,4.4-.93-4.02,1.5-6.018,1.5-6.018-2.626.438-2.954,4.048-2.954,4.048-1.1-4.02,2.816-5.387,2.816-5.387-1.722-.383-3.61,1.722-3.61,1.722.873-3.774,4.95-2.707,4.95-2.707-.628-1.367-3.282-1.011-3.282-1.011,3.118-2.052,4.622.409,4.622.409a4.821,4.821,0,0,1,.726-2.423Zm0,0" transform="translate(-126.68 -111.232)" fill="#fff" fill-rule="evenodd"/>
      <path id="Path_121662" data-name="Path 121662" d="M11.3,351.662h1.432V350.23H11.3ZM7.95,336.133H6.516v1.432H7.95Zm5.767,15.529h1.431V350.23H13.717ZM5.536,336.133H4.105v1.432H5.536Zm18.318,4.259a3.493,3.493,0,0,0-1.243-.9,3.722,3.722,0,0,0-1.658-.3H19.9v1.356h1.243a2.051,2.051,0,0,1,.943.227,2.309,2.309,0,0,1,.753.565,2.608,2.608,0,0,1,.413.791,4.215,4.215,0,0,1,.115,1.056v4.032h-6.52v1.394H24.76v-5.464a5.1,5.1,0,0,0-.226-1.545,3.163,3.163,0,0,0-.679-1.212Zm53.821,8.216H79.07V336.133H77.675Zm-5.428-1.394h-2.3a4.629,4.629,0,0,1-1.922-.339,2.677,2.677,0,0,1-1.092-1.056,4.556,4.556,0,0,0,.149-1.319v-4.446H65.69v4.673a2.747,2.747,0,0,1-.64,1.921,2.505,2.505,0,0,1-1.96.716,2.738,2.738,0,0,1-1.131-.188,3.238,3.238,0,0,1-.867-.49,3,3,0,0,1-.565-.791,2.042,2.042,0,0,1-.227-.943v-4.9H58.906v4.786a2.968,2.968,0,0,1-.189,1.092,1.681,1.681,0,0,1-.527.716,1.832,1.832,0,0,1-.755.415,2.194,2.194,0,0,1-.866.151H53.856v-7.16h-1.4v7.16H45.187l2.412-5.8a14.322,14.322,0,0,0-1.17-.942,11.021,11.021,0,0,0-1.28-.716,6.716,6.716,0,0,0-1.356-.527,4.833,4.833,0,0,0-2.677,0,9.74,9.74,0,0,0-1.356.489,8.844,8.844,0,0,0-1.282.754,10.085,10.085,0,0,0-1.17.942l2.452,5.8H34.936v-8.027H32.712a7.637,7.637,0,0,0-2.337.338,5.972,5.972,0,0,0-1.809,1.018,4.281,4.281,0,0,0-1.207,1.508,4.432,4.432,0,0,0-.416,1.883,4.053,4.053,0,0,0,.492,2.112,3.824,3.824,0,0,0,1.243,1.431,5.539,5.539,0,0,0,1.847.867,10.208,10.208,0,0,0,2.187.264h.829v.378a1.871,1.871,0,0,1-.6,1.583,3,3,0,0,1-1.772.451A5.536,5.536,0,0,1,30,350.907a7.289,7.289,0,0,1-1.169-.415l-.414,1.32a9.968,9.968,0,0,0,1.394.453,4.682,4.682,0,0,0,1.243.151,4.043,4.043,0,0,0,2.977-.98,3.609,3.609,0,0,0,.905-2.563v-.265H56.57a3.575,3.575,0,0,0,1.809-.451,3.83,3.83,0,0,0,1.281-1.169,3.273,3.273,0,0,0,1.357,1.32,4.444,4.444,0,0,0,2.073.451,5.014,5.014,0,0,0,2.11-.414,2.955,2.955,0,0,0,1.357-1.356,2.3,2.3,0,0,0,.452.6,2.214,2.214,0,0,0,.641.489,3.077,3.077,0,0,0,.941.378,4.25,4.25,0,0,0,1.019.113v.037h4.032V336.133H72.248Zm33.637,4.481h1.432v-1.432h-1.432Zm13.606-4.448-2.148-5.351a4.93,4.93,0,0,1,1.621-.981,4.747,4.747,0,0,1,1.772-.3,5.835,5.835,0,0,1,3.427,1.281l-2.184,5.351Zm9.875,0h-5.918l2.45-5.842c-.378-.3-.791-.6-1.205-.9a14.62,14.62,0,0,0-1.281-.753,9.251,9.251,0,0,0-1.32-.491,5,5,0,0,0-2.714,0,9.614,9.614,0,0,0-1.356.491,8.683,8.683,0,0,0-1.281.753c-.415.3-.792.6-1.169.9,2.449,5.75,2.487,5.841,2.487,5.842h-5.2v-8.065h-1.394V348.9a3.95,3.95,0,0,1-.076,1.018,1.42,1.42,0,0,1-.187.64.812.812,0,0,1-.415.378,1.513,1.513,0,0,1-.641.113,1.031,1.031,0,0,1-.338-.038,2.109,2.109,0,0,1-.378-.075l-.376,1.357a6.636,6.636,0,0,0,1.131.151,2.587,2.587,0,0,0,1.282-.264,2.068,2.068,0,0,0,.829-.678,3.911,3.911,0,0,0,.452-1.131,8.379,8.379,0,0,0,.113-1.47v-.3h17.9V336.166h-1.394ZM100.8,351.694h1.431v-1.432H100.8Zm-8.443-4.448h-1.4a4.968,4.968,0,0,1-1.469-.227,3.272,3.272,0,0,1-1.169-.678,2.734,2.734,0,0,1-.829-1.018,3.418,3.418,0,0,1-.3-1.394,2.825,2.825,0,0,1,.339-1.394,4.44,4.44,0,0,1,.829-1.056A6.583,6.583,0,0,1,89.6,340.8a4.272,4.272,0,0,1,1.356-.226h1.4Zm14.963-8.065h-1.394v8.065h-5.239v-8.065h-1.4v8.065H93.75v-8.065H91.563a7.851,7.851,0,0,0-2.374.376,5.192,5.192,0,0,0-1.809.98,4.5,4.5,0,0,0-1.169,1.508,4.449,4.449,0,0,0-.415,1.884,4.7,4.7,0,0,0,.489,2.11,4.628,4.628,0,0,0,1.245,1.47,5.544,5.544,0,0,0,1.845.829,8.078,8.078,0,0,0,2.187.264h15.754Zm-8.932,12.513H99.82v-1.432H98.385ZM93.75,336.166H92.317V337.6H93.75Zm-2.452,0H89.867V337.6H91.3ZM134.792,348.6h1.4V336.166h-1.4Zm62.218-1.214a3.579,3.579,0,0,1-.791,1.169,3.971,3.971,0,0,1-1.131.753,3.78,3.78,0,0,1-1.47.264,3.055,3.055,0,0,1-1.432-.3,4.57,4.57,0,0,1-1.132-.753,3.387,3.387,0,0,1-.715-1.169,3.589,3.589,0,0,1-.3-1.394,3.772,3.772,0,0,1,.3-1.432,3.388,3.388,0,0,1,.715-1.169,4.313,4.313,0,0,1,1.132-.791,3.466,3.466,0,0,1,1.432-.264,3.781,3.781,0,0,1,1.47.264,4.17,4.17,0,0,1,1.169.753,3,3,0,0,1,.753,1.169,3.786,3.786,0,0,1,.3,1.47,3.6,3.6,0,0,1-.3,1.433Zm-13.493,0a3.565,3.565,0,0,1-.791,1.169,3.683,3.683,0,0,1-1.169.753,3.466,3.466,0,0,1-1.432.264,3.053,3.053,0,0,1-1.432-.3,4.532,4.532,0,0,1-1.131-.753,4.131,4.131,0,0,1-.753-1.169,4.326,4.326,0,0,1-.265-1.394,4.55,4.55,0,0,1,.265-1.432,4.131,4.131,0,0,1,.753-1.169,4.307,4.307,0,0,1,1.131-.791,3.464,3.464,0,0,1,1.432-.264,3.774,3.774,0,0,1,1.47.264,4.167,4.167,0,0,1,1.169.753,3.47,3.47,0,0,1,.753,1.169,3.792,3.792,0,0,1,.3,1.47,3.6,3.6,0,0,1-.3,1.433Zm-33.844.64h-1.358a4.616,4.616,0,0,1-1.469-.226,3.456,3.456,0,0,1-1.207-.678,2.662,2.662,0,0,1-.791-1.018,2.9,2.9,0,0,1-.3-1.394,3.293,3.293,0,0,1,.3-1.4,3.788,3.788,0,0,1,.867-1.054,5.226,5.226,0,0,1,1.205-.678,4.33,4.33,0,0,1,1.394-.227h1.358Zm53.368,0h-4.788a4.758,4.758,0,0,0,.453-2.072,5.125,5.125,0,0,0-.414-2,5.253,5.253,0,0,0-1.055-1.621,4.835,4.835,0,0,0-1.622-1.054,5.367,5.367,0,0,0-3.956,0,4.569,4.569,0,0,0-1.545,1.093A4.327,4.327,0,0,0,189.058,344a4.938,4.938,0,0,0-.415,1.96,4.658,4.658,0,0,0,.451,2.072H184.76a4.763,4.763,0,0,0,.453-2.072,5.125,5.125,0,0,0-.415-2,5.257,5.257,0,0,0-1.054-1.621,4.84,4.84,0,0,0-1.622-1.054,4.975,4.975,0,0,0-2-.378,4.79,4.79,0,0,0-1.96.378,5.159,5.159,0,0,0-1.583,1.093A5.444,5.444,0,0,0,175.528,344a5.607,5.607,0,0,0-.378,1.96,5.144,5.144,0,0,0,.113,1.093,9.844,9.844,0,0,0,.3.98h-4.41V336.949h-1.4V348.03h-4.408v-2.149a5.027,5.027,0,0,0-.226-1.507,3.23,3.23,0,0,0-.641-1.243,4.743,4.743,0,0,0-1.245-.9,4.439,4.439,0,0,0-1.7-.264h-6.182L158,336.949h-1.507l-2.676,4.975a4.177,4.177,0,0,0,.186.792,3.378,3.378,0,0,0,.416.6h7.124a2.75,2.75,0,0,1,1.131.227,1.835,1.835,0,0,1,.754.527,1.629,1.629,0,0,1,.414.792,4.215,4.215,0,0,1,.113,1.016v2.149h-12.89v-8.065h-2.187a7.857,7.857,0,0,0-2.374.376,5.56,5.56,0,0,0-1.809.981,4.4,4.4,0,0,0-1.131,1.507,3.951,3.951,0,0,0-.414,1.885,4.684,4.684,0,0,0,.452,2.11,5.83,5.83,0,0,0,1.244,1.469,5.508,5.508,0,0,0,1.847.83,8.3,8.3,0,0,0,2.185.264H176.47a4.987,4.987,0,0,0,1.62,1.169,5.3,5.3,0,0,0,4.108,0,4.3,4.3,0,0,0,1.659-1.169H190a4.821,4.821,0,0,0,1.582,1.169,4.709,4.709,0,0,0,2.036.414,4.761,4.761,0,0,0,2.072-.414,4.307,4.307,0,0,0,1.659-1.169h7.086V336.949h-1.4Zm5.465,1.357H209.9V336.949h-1.394Zm-59.889-12.438h-1.432v1.432h1.432Zm2.45,0h-1.432v1.432h1.432ZM14.884,339.187H13.49v8.027H7.95v-8.027H5.764a7.891,7.891,0,0,0-2.375.338,5.963,5.963,0,0,0-1.809.981A4.5,4.5,0,0,0,.035,343.9a4.587,4.587,0,0,0,.453,2.11,4.384,4.384,0,0,0,1.281,1.469,5.314,5.314,0,0,0,1.809.83,8.544,8.544,0,0,0,2.187.3h9.12Zm-8.329,8.027H5.2a4.621,4.621,0,0,1-1.47-.226,4.077,4.077,0,0,1-1.207-.641,3.136,3.136,0,0,1-.792-1.055,2.832,2.832,0,0,1-.3-1.394,3.265,3.265,0,0,1,.3-1.358,3.428,3.428,0,0,1,.868-1.055,3.463,3.463,0,0,1,1.205-.679,4.389,4.389,0,0,1,1.4-.264H6.555Zm26.986,0h-1.4a4.619,4.619,0,0,1-1.469-.226,3.364,3.364,0,0,1-1.205-.641,2.744,2.744,0,0,1-.83-1.017,3.29,3.29,0,0,1-.3-1.4,2.779,2.779,0,0,1,.338-1.356,3.331,3.331,0,0,1,.829-1.056,4.871,4.871,0,0,1,1.207-.716,4.757,4.757,0,0,1,1.431-.226h1.4Zm7.689,0-2.188-5.352a5.819,5.819,0,0,1,1.659-.98,5.452,5.452,0,0,1,1.772-.3,4.637,4.637,0,0,1,1.847.376,5.573,5.573,0,0,1,1.545.9l-2.15,5.352Zm0,0" transform="translate(-0.035 -223.262)" fill="#fff" fill-rule="evenodd"/>
      <path id="Path_121663" data-name="Path 121663" d="M402.206,32.45h2.407v2.408h-2.407Zm4.815,0h2.408v2.408h-2.408ZM359.513,5.06h-2.407V2.652h2.407Zm57.642,16.755a10.189,10.189,0,0,0,3.16,1.455,15.539,15.539,0,0,0,3.813.451h.6l.853-1.7v2.358a3.2,3.2,0,0,1-1.1,2.709,4.78,4.78,0,0,1-3.01.8,8.225,8.225,0,0,1-2.007-.2,12.532,12.532,0,0,1-2.057-.7l-.754,2.308a18.535,18.535,0,0,0,2.461.752,10.514,10.514,0,0,0,2.156.252q3.538,0,5.117-1.657a6.209,6.209,0,0,0,1.556-4.464V7.469H424.13a12.812,12.812,0,0,0-4.064.6,9.72,9.72,0,0,0-3.11,1.705,7.9,7.9,0,0,0-2.057,2.609,7.994,7.994,0,0,0-.7,3.311,7.4,7.4,0,0,0,.8,3.612A6.94,6.94,0,0,0,417.155,21.815Zm0-8.478a5.332,5.332,0,0,1,1.455-1.856,6.906,6.906,0,0,1,4.464-1.605h3.864l-1.355.7V21.314h-2.458a7.986,7.986,0,0,1-2.508-.352,7,7,0,0,1-2.107-1.1,5.866,5.866,0,0,1-1.4-1.756,5.306,5.306,0,0,1-.5-2.408,4.682,4.682,0,0,1,.545-2.361ZM364.279,5.06h-2.358V2.652h2.358ZM434.06,30.294a8.7,8.7,0,0,1-1.957-.252l.6-2.307a4.171,4.171,0,0,1,.65.151h.6a2.414,2.414,0,0,0,1.106-.2,1.188,1.188,0,0,0,.7-.6,3.132,3.132,0,0,0,.352-1.154,8.7,8.7,0,0,0,.1-1.7V7.469h2.408V24.224a12.682,12.682,0,0,1-.2,2.508,4.892,4.892,0,0,1-.8,1.957,3.676,3.676,0,0,1-1.4,1.2,5.514,5.514,0,0,1-2.159.405Zm-76.3-.3h4.967V28.186a1.117,1.117,0,0,1,.15.252,3.839,3.839,0,0,0,1.456,1.2,5.314,5.314,0,0,0,2.156.4h43.794V7.469h-2.408V27.635H366.588a3.807,3.807,0,0,1-1.154-.151,1.642,1.642,0,0,1-.652-.652,3.078,3.078,0,0,1-.4-1.154,14.938,14.938,0,0,1-.1-1.7V7.469h-6.47a11,11,0,0,0-11.137,11.237v.05a10.933,10.933,0,0,0,11.083,11.236Zm-8.53-11.338c0-4.967,3.511-8.93,8.529-8.93h5.619l-1.455.7V23.973a12.338,12.338,0,0,0,.2,2.508,6.789,6.789,0,0,0,.351,1.2h-4.665c-4.967,0-8.58-4.014-8.58-8.98ZM425.261-.012h1.963V1.752h-1.8a.706.706,0,0,0-.7.7v.7H427.8v1.91h-5.08V2.529a2.548,2.548,0,0,1,2.541-2.541Zm0,0" transform="translate(-230.278 0.012)" fill="#fff" fill-rule="evenodd"/>
      <path id="Path_121664" data-name="Path 121664" d="M105.146,20.979H107.6V43.427h-2L89.613,23.234l1.4,3.257V43.427H88.561V20.979h2.354l15.233,19.342-1-2.756ZM11.6,43.628,1.926,20.979h2.8l1.4,3.357,6.615,15.985.651,1.553-.251-2.455L20.813,20.98h2.706L13.851,43.628ZM54.489,20.979h2.555V43.427H54.489ZM81.747,32.253c0,5.111-3.66,9.221-8.82,9.221A8.947,8.947,0,0,1,64.059,32.2v-.05c0-5.112,3.658-9.22,8.819-9.22s8.87,4.159,8.87,9.269Zm-8.82-11.675A11.409,11.409,0,0,0,61.452,32.2v.05A11.264,11.264,0,0,0,72.878,43.828,11.389,11.389,0,0,0,84.4,32.2v-.05A11.305,11.305,0,0,0,72.928,20.578Zm-22.6,16.786v.05c0,3.859-3.257,6.364-7.716,6.364a13.17,13.17,0,0,1-9.17-3.608L35,38.317a10.8,10.8,0,0,0,7.717,3.157c3.056,0,5.01-1.6,5.01-3.809v-.05c0-2.1-1.1-3.307-5.862-4.259C36.7,32.2,34.349,30.55,34.349,26.842v-.051c0-3.557,3.106-6.162,7.365-6.162a11.581,11.581,0,0,1,7.917,2.806l-1.453,1.954a10,10,0,0,0-6.513-2.455c-2.907,0-4.81,1.6-4.81,3.607v.1c0,2.1,1.151,3.307,6.112,4.359,5.008,1.1,7.362,2.907,7.362,6.365ZM29.535,43.427H26.98V20.979h2.555Zm0,0" transform="translate(-1.291 -13.664)" fill="#fff" fill-rule="evenodd"/>
    </g>
  </g>
</svg>
