<?xml version="1.0" encoding="utf-8"?>
<!-- Generator: Adobe Illustrator 27.9.2, SVG Export Plug-In . SVG Version: 6.00 Build 0)  -->
<svg version="1.1" id="Layer_1" xmlns="http://www.w3.org/2000/svg" xmlns:xlink="http://www.w3.org/1999/xlink" x="0px" y="0px"
	 width="512px" height="512px" viewBox="0 0 512 512" style="enable-background:new 0 0 512 512;" xml:space="preserve">
<style type="text/css">
	.st0{fill:#145FFF;}
</style>
<g>
	<path class="st0" d="M375.9,205.2h-112c-8.7,0-16-7.3-16-16s7.3-16,16-16h112c8.7,0,16,7.3,16,16S384.9,205.2,375.9,205.2z"/>
	<path class="st0" d="M151.9,221.4c-4.1,0-8.1-1.5-11.3-4.7l-16-16c-6.2-6.2-6.2-16.4,0-22.6c6.2-6.2,16.4-6.2,22.6,0l4.7,4.7
		l36.7-36.7c6.2-6.2,16.4-6.2,22.6,0c6.2,6.2,6.2,16.4,0,22.6l-48,48C160.2,219.7,156.2,221.4,151.9,221.4L151.9,221.4z"/>
	<path class="st0" d="M375.9,354.6h-112c-8.7,0-16-7.3-16-16c0-8.7,7.3-16,16-16h112c8.7,0,16,7.3,16,16
		C391.9,347.3,384.9,354.6,375.9,354.6z"/>
	<path class="st0" d="M151.9,370.8c-4.1,0-8.1-1.5-11.3-4.7l-16-16c-6.2-6.2-6.2-16.4,0-22.6c6.2-6.2,16.4-6.2,22.6,0l4.7,4.7
		l36.7-36.7c6.2-6.2,16.4-6.2,22.6,0c6.2,6.2,6.2,16.4,0,22.6l-48,48C160.2,369.1,156.2,370.8,151.9,370.8L151.9,370.8z"/>
	<path class="st0" d="M320,485.3H192C76.2,485.3,26.7,435.8,26.7,320V192C26.7,76.2,76.2,26.7,192,26.7h128
		c115.8,0,165.3,49.5,165.3,165.3v128C485.3,435.8,435.8,485.3,320,485.3z M192,58.7c-98.3,0-133.3,35-133.3,133.3v128
		c0,98.3,35,133.3,133.3,133.3h128c98.3,0,133.3-35,133.3-133.3V192c0-98.3-35-133.3-133.3-133.3H192z"/>
</g>
</svg>
