<?xml version="1.0" encoding="utf-8"?>
<!-- Generator: Adobe Illustrator 27.9.2, SVG Export Plug-In . SVG Version: 6.00 Build 0)  -->
<svg version="1.1" id="Capa_1" xmlns="http://www.w3.org/2000/svg" xmlns:xlink="http://www.w3.org/1999/xlink" x="0px" y="0px"
	 width="512px" height="512px" viewBox="0 0 512 512" style="enable-background:new 0 0 512 512;" xml:space="preserve">
<style type="text/css">
	.st0{fill:#145FFF;}
</style>
<g>
	<path class="st0" d="M510.7,306.9l-89.1-157.7c-2.7-4.8-8.8-6.5-13.6-3.8l-50.2,28.1c-2.3,1.3-4,3.5-4.7,6
		c-0.7,2.6-0.4,5.3,0.9,7.6l6.2,10.9l-14.6,4.2c-6.3,1.8-10.1,2.8-12.2,2.8c0,0,0,0,0,0c-1.4,0-3-0.6-7.5-2.3
		c-2-0.8-4.6-1.7-7.7-2.8l-20.2-7.1c-21-7.3-53.2,7.6-53.5,7.8l-31.2,15l-61.2-17.7l6.1-10.8c1.3-2.3,1.6-5.1,0.9-7.6
		s-2.4-4.7-4.7-6L104,145.3c-4.8-2.7-10.9-1-13.6,3.8L1.3,306.8c-1.3,2.3-1.6,5.1-0.9,7.6s2.4,4.7,4.7,6l50.2,28.1
		c1.5,0.9,3.2,1.3,4.9,1.3c3.5,0,6.9-1.8,8.7-5.1l6.6-11.7l17.9,14.1c-3.1,4.5-5,9.6-5.6,15.2c-1,8.9,1.5,17.7,7.1,24.6
		c5.5,6.9,13.4,11.3,22.2,12.3c-0.9,8.5,1.4,17.3,7.1,24.4c5.7,7.1,13.8,11.3,22.3,12.3c-0.9,8.8,1.6,17.5,7.1,24.4
		c5.5,6.9,13.4,11.3,22.2,12.3c-0.9,8.5,1.4,17.3,7.1,24.4c6.6,8.3,16.4,12.6,26.2,12.6c7.3,0,14.7-2.4,20.9-7.3l15.8-12.6
		c3.4-2.7,6.1-6,8.1-9.5l13.3,10.6c6.2,4.9,13.6,7.3,20.9,7.3c9.8,0,19.6-4.3,26.2-12.6c3.5-4.4,5.7-9.3,6.7-14.4
		c3.5,1.2,7.2,1.8,10.9,1.8c9.8,0,19.6-4.3,26.2-12.6c5.7-7.2,8-16,7.2-24.4c8.8-1,16.7-5.4,22.2-12.3c5.7-7.2,8-16,7.1-24.4
		c8.8-1,16.7-5.4,22.2-12.3c5.6-7,8.1-15.7,7.1-24.6c-0.6-5.5-2.5-10.7-5.6-15.2l17.9-14.1l6.6,11.8c1.8,3.3,5.2,5.1,8.7,5.1
		c1.7,0,3.3-0.4,4.9-1.3l50.2-28.1c2.3-1.3,4-3.5,4.7-6C512.3,311.9,512,309.2,510.7,306.9L510.7,306.9z M56.4,326.2l-32.7-18.3
		l79.2-140.3l32.7,18.3L56.4,326.2z M110.5,374.5c-2.2-2.8-3.2-6.3-2.8-9.9c0.4-3.6,2.2-6.8,5-9.1l32.2-25.7
		c2.8-2.2,6.3-3.2,9.9-2.8c3.6,0.4,6.8,2.2,9.1,5c2.2,2.8,3.2,6.3,2.8,9.9c-0.4,3.6-2.2,6.8-5,9.1c0,0,0,0,0,0l-32.1,25.7
		c0,0,0,0,0,0c-2.8,2.2-6.3,3.2-9.9,2.8C116,379,112.8,377.3,110.5,374.5z M139.9,411.2c-4.6-5.8-3.7-14.3,2.1-19l48.6-38.9
		c5.8-4.6,14.3-3.7,19,2.1c2.2,2.8,3.2,6.3,2.9,9.9c-0.4,3.6-2.2,6.8-4.9,9.1l-16.3,13.1c0,0-0.1,0-0.1,0.1c0,0,0,0,0,0l-32.1,25.7
		C153.1,418,144.6,417,139.9,411.2L139.9,411.2z M169.3,448c-2.2-2.8-3.2-6.3-2.8-9.9c0.4-3.6,2.2-6.8,5-9.1c0,0,0,0,0,0
		c0,0,0,0,0,0l32.2-25.8c2.8-2.2,6.3-3.2,9.9-2.8c3.6,0.4,6.8,2.2,9.1,5c2.2,2.8,3.2,6.3,2.8,9.9c-0.4,3.6-2.2,6.8-5,9.1l-16.3,13
		c0,0-0.1,0.1-0.1,0.1c0,0,0,0-0.1,0.1l-15.7,12.6c-2.8,2.2-6.3,3.2-9.9,2.8C174.8,452.5,171.5,450.7,169.3,448L169.3,448z
		 M233.4,474.2l-15.8,12.6c-5.8,4.7-14.4,3.7-19-2.1c-4.6-5.8-3.7-14.3,2.1-19c0,0,0,0,0,0l15.8-12.6c2.8-2.2,6.3-3.2,9.9-2.8
		c3.6,0.4,6.8,2.2,9.1,5c1.8,2.3,2.8,5,2.9,7.7c0,0.3,0,0.5,0,0.8C238.5,467.6,236.8,471.5,233.4,474.2L233.4,474.2z M401.4,374.5
		c-2.2,2.8-5.5,4.6-9.1,5c-3.6,0.4-7.1-0.6-9.9-2.8c0,0,0,0,0,0l-26.6-21.3c-4.3-3.5-10.6-2.8-14.1,1.6c-3.5,4.3-2.8,10.6,1.6,14.1
		l26.6,21.3c5.8,4.7,6.8,13.2,2.1,19c-2.2,2.8-5.5,4.6-9.1,5c-3.6,0.4-7.1-0.6-9.9-2.8l-28.9-23.1c-4.3-3.5-10.6-2.8-14.1,1.6
		c-3.5,4.3-2.8,10.6,1.6,14.1l28.9,23.1c5.8,4.7,6.8,13.2,2.1,19s-13.2,6.8-19,2.1L309.8,439c-0.2-0.2-0.4-0.3-0.6-0.5L294.8,427
		c-0.2-0.1-0.3-0.2-0.4-0.3c-4.3-3.1-10.3-2.3-13.6,1.9c-3.3,4.1-2.8,10,1,13.6c0.1,0.1,0.3,0.3,0.6,0.5l0.3,0.3l14.4,11.5
		c5.6,4.7,6.4,13,1.8,18.8c-4.7,5.8-13.2,6.7-19,2.1L258,457.8c-0.9-5.4-3.2-10.6-6.8-15.1c-3.3-4.1-7.3-7.3-11.9-9.4
		c3.3-4.6,5.4-10,6-15.8c1-8.9-1.5-17.7-7.1-24.6c-3.2-4.1-7.3-7.2-11.9-9.4c3.3-4.6,5.4-10,6-15.8c1-8.9-1.5-17.7-7.1-24.6
		c-9.6-12-25.8-15.6-39.2-9.9c-1.1-5-3.3-9.6-6.5-13.7c-5.6-7-13.6-11.4-22.5-12.4c-8.9-1-17.7,1.5-24.6,7.1l-24.1,19.2l-22.8-17.9
		l56.3-99.6l46.2,13.4c-16.9,12.8-18.6,28.6-14.1,39.6c5.4,13,20.8,23.2,42.2,23.2c8.2,0,17.2-1.5,26.8-4.9
		c7.4-2.6,13.6-5.2,19.1-7.5c19.9-8.3,26.7-11.1,46.3,3c11.3,8.1,27.2,21.3,41.3,32.9c6.4,5.3,12.5,10.3,17.4,14.3l32.3,25.8
		c2.8,2.2,4.6,5.5,5,9.1C404.7,368.2,403.6,371.7,401.4,374.5L401.4,374.5z M403.7,333.4l-24.2-19.3c-4.9-3.9-10.9-8.8-17.2-14.1
		c-1.9-1.6-3.8-3.1-5.8-4.7c7.9-1,15.6-3,22.4-5.8c5.1-2.1,7.5-8,5.4-13.1c-2.1-5.1-7.9-7.5-13.1-5.4c-14,5.8-34.7,7.4-46-0.7
		c-1.9-1.4-3.6-2.7-5.3-3.9c-28.7-20.6-44.2-14.1-65.7-5.2c-5.2,2.2-11.2,4.7-18,7.1c-24.4,8.6-40.6,0.8-43.8-7.1
		c-2.8-6.8,3.8-15.2,16.8-21.4l43.8-21c8.8-4.2,29.1-10.1,38.3-6.9l20.2,7.1c2.9,1,5.2,1.9,7.2,2.7c12.6,4.8,15.9,4.8,32.4,0
		l19.2-5.5l56.2,99.5L403.7,333.4z M455.6,326.3L376.4,186l32.7-18.3L488.3,308L455.6,326.3z"/>
	<path class="st0" d="M221.8,98.8l19.2,16.3c1.8,1.5,4.1,2.4,6.5,2.4c0.3,0,0.6,0,0.8,0c2.7-0.2,5.1-1.5,6.8-3.5l36.3-43.3
		c3.5-4.2,3-10.5-1.2-14.1c-4.2-3.5-10.5-3-14.1,1.2l-29.8,35.6l-11.6-9.8c-4.2-3.6-10.5-3.1-14.1,1.2S217.5,95.2,221.8,98.8
		L221.8,98.8z"/>
	<path class="st0" d="M256,169.4c46.1,0,83.6-37.5,83.6-83.6c0-46.1-37.5-83.6-83.6-83.6c-46.1,0-83.6,37.5-83.6,83.6
		C172.4,131.9,209.9,169.4,256,169.4L256,169.4z M256,22.3c35.1,0,63.6,28.5,63.6,63.6c0,35.1-28.5,63.6-63.6,63.6
		c-35.1,0-63.6-28.5-63.6-63.6C192.4,50.8,220.9,22.3,256,22.3z"/>
</g>
</svg>
