<?xml version="1.0" encoding="utf-8"?>
<!-- Generator: Adobe Illustrator 27.9.2, SVG Export Plug-In . SVG Version: 6.00 Build 0)  -->
<svg version="1.1" id="Layer_1_1_" xmlns="http://www.w3.org/2000/svg" xmlns:xlink="http://www.w3.org/1999/xlink" x="0px" y="0px"
	 width="512px" height="512px" viewBox="0 0 512 512" style="enable-background:new 0 0 512 512;" xml:space="preserve">
<style type="text/css">
	.st0{fill:#145FFF;}
</style>
<path class="st0" d="M216,496c28.2,0,51.5-20.9,55.4-48h85.3l-10.3,10.3l11.3,11.3l24-24c1.6-1.6,2.3-3.6,2.3-5.7s-0.8-4.1-2.3-5.7
	l-24-24l-11.3,11.3l10.3,10.3h-85.3c-3.9-27.1-27.2-48-55.4-48c-30.9,0-56,25.1-56,56S185.1,496,216,496L216,496z M216,400
	c22.1,0,40,17.9,40,40s-17.9,40-40,40s-40-17.9-40-40S193.9,400,216,400z"/>
<path class="st0" d="M440,496c30.9,0,56-25.1,56-56s-25.1-56-56-56s-56,25.1-56,56S409.1,496,440,496z M440,400
	c22.1,0,40,17.9,40,40s-17.9,40-40,40s-40-17.9-40-40S417.9,400,440,400z"/>
<path class="st0" d="M184,200c-28.2,0-51.5,20.9-55.4,48H116c-55.1,0-100,44.9-100,100s44.9,100,100,100h16.7l-10.3,10.3l11.3,11.3
	l24-24c1.6-1.6,2.3-3.6,2.3-5.7s-0.8-4.1-2.3-5.7l-24-24l-11.3,11.3l10.3,10.3H116c-46.3,0-84-37.7-84-84s37.7-84,84-84h12.6
	c3.9,27.1,27.2,48,55.4,48c30.9,0,56-25.1,56-56S214.9,200,184,200L184,200z M184,296c-22.1,0-40-17.9-40-40s17.9-40,40-40
	s40,17.9,40,40S206.1,296,184,296z"/>
<path class="st0" d="M213.7,42.3l-11.3,11.3L212.7,64h-85.3c-3.9-27.1-27.2-48-55.4-48c-30.9,0-56,25.1-56,56s25.1,56,56,56
	c28.2,0,51.5-20.9,55.4-48h85.3l-10.3,10.3l11.3,11.3l24-24c1.6-1.6,2.3-3.6,2.3-5.7s-0.8-4.1-2.3-5.7L213.7,42.3z M72,112
	c-22.1,0-40-17.9-40-40s17.9-40,40-40s40,17.9,40,40S94.1,112,72,112z"/>
<path class="st0" d="M496,164c0-55.1-44.9-100-100-100h-44.6c-3.9-27.1-27.2-48-55.4-48c-30.9,0-56,25.1-56,56s25.1,56,56,56
	c28.2,0,51.5-20.9,55.4-48H396c46.3,0,84,37.7,84,84s-37.7,84-84,84H267.3l10.3-10.3l-11.3-11.3l-24,24c-1.6,1.6-2.3,3.6-2.3,5.7
	c0,2,0.8,4.1,2.3,5.7l24,24l11.3-11.3L267.3,264H396C451.1,264,496,219.1,496,164z M296,112c-22.1,0-40-17.9-40-40s17.9-40,40-40
	s40,17.9,40,40S318.1,112,296,112z"/>
</svg>
