<svg xmlns="http://www.w3.org/2000/svg" width="109.471" height="108.433" viewBox="0 0 109.471 108.433">
  <g id="Icon" transform="translate(0 0)">
    <path id="Path_124582" data-name="Path 124582" d="M169.055,46.433h20.81v-.65c0-3.877.556-5.025,6.154-12.367C206.425,20.076,196.543-.167,179.46,0,162.37-.166,152.5,20.08,162.9,33.415c5.6,7.342,6.155,8.491,6.155,12.367Z" transform="translate(-124.724 0.001)" fill="#ffca38" fill-rule="evenodd"/>
    <path id="Path_124583" data-name="Path 124583" d="M106.426,158.174c-2.353-1.292-5.936-1.033-8.245,2.6l-.021.033L89.58,174.847a5.8,5.8,0,0,0-3.425-.752,5.586,5.586,0,0,0-3.83,2c-1.159,1.393-8.29,10.355-9.5,11.818-5.485,6.4-13.961,9.014-18.085,17.31-4.124-8.295-12.6-10.908-18.085-17.31-.587-.707-2.691-3.335-4.726-5.877-2.142-2.676-4.166-5.2-4.778-5.941a5.588,5.588,0,0,0-3.83-2,5.8,5.8,0,0,0-3.425.752L11.31,160.8l-.021-.033c-2.309-3.629-5.892-3.889-8.245-2.6a6.019,6.019,0,0,0-2.419,7.954l.01.02c3.029,6.768,8.114,19.459,11.577,26.969,3.256,7.163,4.717,9.176,10.418,14.358l7.692,6.991v.653H29.072a2.139,2.139,0,0,0-2.139,2.139v12.832a2.139,2.139,0,0,0,2.139,2.139H80.4a2.139,2.139,0,0,0,2.139-2.139V217.259a2.139,2.139,0,0,0-2.139-2.139H79.149v-.653l7.692-6.991c5.7-5.183,7.162-7.2,10.418-14.358,3.454-7.489,8.559-20.226,11.577-26.97l.01-.02A6.019,6.019,0,0,0,106.426,158.174ZM33.9,211.938l-8.392-7.628c-5.253-4.774-6.395-6.349-9.4-12.963C12.671,183.9,7.492,170.97,4.494,164.3a1.722,1.722,0,0,1,.611-2.381c.855-.47,1.812-.047,2.566,1.128l9.539,15.611a8.333,8.333,0,0,0,.664,4.324,91.512,91.512,0,0,0,6.789,13.824,2.139,2.139,0,0,0,3.636-2.253,87.071,87.071,0,0,1-6.447-13.145c-.815-2.06-.274-2.515-.07-2.687a1.567,1.567,0,0,1,1.154-.371,1.339,1.339,0,0,1,.921.471c1.212,1.46,8.341,10.42,9.5,11.818,6.7,8.119,18.129,10.281,19.236,22.536v1.941h-18v-1.6A2.141,2.141,0,0,0,33.9,211.938Zm-2.69,7.46H52.6v8.555H31.21Zm47.051,8.555H56.874V219.4H78.261ZM104.977,164.3c-3.007,6.688-8.167,19.578-11.612,27.044-3.007,6.614-4.149,8.189-9.4,12.964l-8.392,7.628a2.138,2.138,0,0,0-.7,1.582v1.6h-18V213.18c1.107-12.254,12.542-14.418,19.237-22.536.611-.736,2.63-3.258,4.768-5.928,2.039-2.548,4.148-5.182,4.736-5.89a1.339,1.339,0,0,1,.922-.471,1.568,1.568,0,0,1,1.154.371c.2.171.745.626-.07,2.686a87.035,87.035,0,0,1-6.447,13.145,2.139,2.139,0,1,0,3.636,2.253A91.481,91.481,0,0,0,91.6,182.986a8.329,8.329,0,0,0,.664-4.324l9.539-15.611c.754-1.176,1.712-1.6,2.566-1.128a1.723,1.723,0,0,1,.611,2.381" transform="translate(0 -123.797)" fill="#003391"/>
    <path id="Path_124584" data-name="Path 124584" d="M195.91,128.805h22.333a2.139,2.139,0,0,0,2.139-2.139V115.5a2.139,2.139,0,0,0-2.139-2.139h-9.028V94.845l3.344-3.344a2.139,2.139,0,1,0-3.025-3.025l-2.458,2.458-2.458-2.458a2.139,2.139,0,0,0-3.025,3.025l3.344,3.344v18.517H195.91a2.139,2.139,0,0,0-2.139,2.139v11.166A2.139,2.139,0,0,0,195.91,128.805Zm2.139-11.166H216.1v6.889H198.048Z" transform="translate(-152.341 -69.067)" fill="#003391"/>
    <path id="Path_124585" data-name="Path 124585" d="M82.438,92.127H88.4a2.139,2.139,0,0,0,0-4.277H82.438a2.139,2.139,0,0,0,0,4.277" transform="translate(-63.141 -69.067)" fill="#003391"/>
    <path id="Path_124586" data-name="Path 124586" d="M108.677,157.03l-5.164,2.981a2.139,2.139,0,1,0,2.139,3.7l5.164-2.981a2.139,2.139,0,0,0-2.139-3.7" transform="translate(-80.54 -123.23)" fill="#003391"/>
    <path id="Path_124587" data-name="Path 124587" d="M366.327,160.735l5.164,2.981a2.139,2.139,0,0,0,2.139-3.7l-5.164-2.981a2.139,2.139,0,1,0-2.139,3.7" transform="translate(-287.161 -123.23)" fill="#003391"/>
    <path id="Path_124588" data-name="Path 124588" d="M383.72,89.988a2.139,2.139,0,0,0,2.139,2.139h5.963a2.139,2.139,0,0,0,0-4.278h-5.963a2.139,2.139,0,0,0-2.139,2.139" transform="translate(-301.676 -69.066)" fill="#003391"/>
    <path id="Path_124589" data-name="Path 124589" d="M367.4,12.268a2.13,2.13,0,0,0,1.067-.287L373.63,9a2.139,2.139,0,0,0-2.139-3.7l-5.164,2.981a2.139,2.139,0,0,0,1.071,3.991" transform="translate(-287.162 -3.938)" fill="#003391"/>
    <path id="Path_124590" data-name="Path 124590" d="M103.515,9l5.164,2.981a2.139,2.139,0,0,0,2.139-3.7L105.653,5.3A2.139,2.139,0,0,0,103.515,9" transform="translate(-80.541 -3.938)" fill="#003391"/>
  </g>
</svg>
