<svg xmlns="http://www.w3.org/2000/svg" width="108.141" height="108.141" viewBox="0 0 108.141 108.141">
  <g id="Icon" transform="translate(0 0.11)">
    <path id="Path_124668" data-name="Path 124668" d="M276.469,47.589v-3.07H261.624V29.673h-3.19a7.414,7.414,0,0,1,0-14.828h3.19V0h44.518V44.518H291.3v3.19a7.414,7.414,0,1,1-14.828-.119Z" transform="translate(-198.001 -0.11)" fill="#ffca38"/>
    <path id="Path_124669" data-name="Path 124669" d="M91.183,114.822H74.218a2.112,2.112,0,0,0-2.112,2.112v5.183a3.287,3.287,0,0,1-3.253,3.308,3.2,3.2,0,0,1-3.126-3.189v-5.3a2.112,2.112,0,0,0-2.112-2.112H48.76V99.968a2.112,2.112,0,0,0-2.112-2.112h-5.3a3.19,3.19,0,0,1,0-6.38h5.3a2.112,2.112,0,0,0,2.112-2.112V72.4a2.112,2.112,0,0,0-2.112-2.112H29.682A2.112,2.112,0,0,0,27.57,72.4v5.3a3.205,3.205,0,0,1-3.126,3.189,3.288,3.288,0,0,1-3.253-3.308V72.4a2.112,2.112,0,0,0-2.112-2.112H2.112A2.112,2.112,0,0,0,0,72.4v89.071a2.112,2.112,0,0,0,2.112,2.112h61.5a2.112,2.112,0,0,0,2.112-2.112v-5.3a3.19,3.19,0,1,1,6.38,0v5.3a2.112,2.112,0,0,0,2.112,2.112H91.184a2.112,2.112,0,0,0,2.112-2.112V116.934A2.113,2.113,0,0,0,91.183,114.822ZM4.224,74.51H16.966v3.07a7.414,7.414,0,1,0,14.828.119V74.51H44.536V87.252h-3.19a7.414,7.414,0,0,0,0,14.828h3.19v12.742H29.682a2.112,2.112,0,0,0-2.112,2.112v5.3a3.19,3.19,0,0,1-6.38,0v-5.3a2.112,2.112,0,0,0-2.112-2.112H4.224Zm0,44.536H16.966v3.19a7.414,7.414,0,0,0,14.828,0v-3.19H44.536v12.742h-3.19a7.414,7.414,0,0,0,0,14.828h3.19v12.741H4.224Zm84.847,40.311H76.33v-3.19a7.414,7.414,0,1,0-14.828,0v3.19H48.76V144.5a2.112,2.112,0,0,0-2.112-2.112h-5.3a3.19,3.19,0,0,1,0-6.38h5.3A2.112,2.112,0,0,0,48.76,133.9V119.046H61.5v3.19a7.414,7.414,0,1,0,14.828-.119v-3.071H89.071v40.312Z" transform="translate(0 -55.551)" fill="#003391"/>
  </g>
</svg>
