<svg id="Icons" xmlns="http://www.w3.org/2000/svg" xmlns:xlink="http://www.w3.org/1999/xlink" width="102.541" height="100.536" viewBox="0 0 102.541 100.536">
  <defs>
    <clipPath id="clip-path">
      <rect id="Rectangle_13836" data-name="Rectangle 13836" width="102.541" height="100.536" fill="none"/>
    </clipPath>
  </defs>
  <g id="Group_48858" data-name="Group 48858" clip-path="url(#clip-path)">
    <path id="Path_124626" data-name="Path 124626" d="M279.155,8.043H230.894A8.043,8.043,0,0,1,238.937,0H271.11a8.043,8.043,0,0,1,8.045,8.043" transform="translate(-184.651)" fill="#ffca38"/>
    <path id="Path_124627" data-name="Path 124627" d="M279.115,80.328a4.021,4.021,0,1,1,0,8.043H242.467l1.216-1.166a3.927,3.927,0,0,0,.09-5.6,3.979,3.979,0,0,0-2.87-1.28v0Z" transform="translate(-192.656 -64.24)" fill="#ffca38"/>
    <path id="Path_124628" data-name="Path 124628" d="M61.607,90.87a0,0,0,0,1,0,0l-.008,0h0l-.028-.012,0,0-.014-.006-.006,0,0,0-.006,0a.01.01,0,0,0-.008,0l-.01-.006s0,0,0,0v19.915H45.8v.292a3.877,3.877,0,0,1-3.879,3.879h0a3.881,3.881,0,0,1-3.879-3.879V90.423a8.489,8.489,0,0,1,8.488-8.488l12.667.006a10.2,10.2,0,0,1,4.448,1.025.007.007,0,0,0,.006,0l.016.008s0,0,0,0a.184.184,0,0,0,.02.01A.118.118,0,0,0,63.7,83a.024.024,0,0,1,.012.006l.008,0,.006,0,7,3.373,5.149-4.857a3.862,3.862,0,0,1,5.658.092,3.927,3.927,0,0,1-.09,5.6l-1.216,1.165h0L74.3,94.064a4.025,4.025,0,0,1-4.544.733Z" transform="translate(-30.421 -64.248)" fill="#ffca38"/>
    <path id="Path_124629" data-name="Path 124629" d="M273.1,154.653h34.185a2,2,0,1,0,0-4.005H273.1a2,2,0,1,0,0,4.005" transform="translate(-216.8 -120.477)" fill="#003391"/>
    <path id="Path_124630" data-name="Path 124630" d="M283.194,190.81H242.977a2,2,0,0,0,0,4.006h40.218a2,2,0,1,0,0-4.006" transform="translate(-192.712 -152.595)" fill="#003391"/>
    <path id="Path_124631" data-name="Path 124631" d="M100.536,101.646H92.344a14.747,14.747,0,0,0-6.961-10.528,8.537,8.537,0,1,0-15.942,0,14.9,14.9,0,0,0-5.1,5.181,14.9,14.9,0,0,0-5.1-5.181,8.537,8.537,0,1,0-15.942,0A14.9,14.9,0,0,0,38.2,96.3a14.9,14.9,0,0,0-5.1-5.181,8.511,8.511,0,0,0,0-6.1V34.883l5.107,2.461V49.355a6.031,6.031,0,0,0,6.024,6.024h6.7L45.51,65.45h-5.3a2,2,0,1,0,0,4.005h3.144l-4.907,9.113a2,2,0,1,0,3.526,1.9L47.9,69.455H92.843l5.93,11.012a2,2,0,1,0,3.526-1.9l-4.907-9.113h3.144a2,2,0,1,0,0-4.005h-5.3L89.813,55.379h6.7a6.031,6.031,0,0,0,6.024-6.024V17.182a6.032,6.032,0,0,0-6.024-6.026H44.232a6.032,6.032,0,0,0-6.024,6.026v6.831c-5.4-2.6-1.241-.593-4.092-1.973a12.263,12.263,0,0,0-5.331-1.234,9.2,9.2,0,1,0-14.992.254,10.506,10.506,0,0,0-8.178,10.23V51.9a5.894,5.894,0,0,0,3.879,5.53V81.973a6.861,6.861,0,0,0,7.131,6.855,8.466,8.466,0,0,0,.531,2.29A14.748,14.748,0,0,0,10.2,101.646H2a2,2,0,1,0,0,4.005h98.534a2,2,0,1,0,0-4.005ZM77.411,83.531a4.533,4.533,0,1,1-4.533,4.533,4.538,4.538,0,0,1,4.533-4.533m-26.142,0a4.533,4.533,0,1,1-4.533,4.533,4.538,4.538,0,0,1,4.533-4.533M45.58,94.423a8.517,8.517,0,0,0,11.38,0,10.777,10.777,0,0,1,5.184,7.223H40.4a10.777,10.777,0,0,1,5.184-7.223M20.6,88.064A4.533,4.533,0,1,1,25.128,92.6,4.538,4.538,0,0,1,20.6,88.064M90.687,65.45H50.059l5.423-10.071H85.264ZM44.232,15.161H96.515a2.022,2.022,0,0,1,2.019,2.021V49.355a2.021,2.021,0,0,1-2.019,2.019H44.232a2.021,2.021,0,0,1-2.019-2.019v-11.4a6.015,6.015,0,0,0,3.055-1.578l7.153-6.858a5.928,5.928,0,0,0,.138-8.425,5.861,5.861,0,0,0-8.482-.151L42.213,22.7v-5.52A2.022,2.022,0,0,1,44.232,15.161ZM21.2,10.4A5.2,5.2,0,1,1,16,15.6a5.205,5.205,0,0,1,5.2-5.2M13.5,81.973V57.435A5.892,5.892,0,0,0,17.382,51.9V38.322a2,2,0,1,0-4.006,0V51.9a1.877,1.877,0,0,1-3.755,0V31.291A6.492,6.492,0,0,1,16.1,24.806l12.665.006a8.239,8.239,0,0,1,3.555.814h0c.111.055,7.122,3.433,7.2,3.465a2,2,0,0,0,2.163-.384c7.052-6.651,4.677-4.383,5.168-4.875a1.977,1.977,0,0,1,2.788,2.8l-7.15,6.856a2.031,2.031,0,0,1-2.284.37L32.1,29.952a2.006,2.006,0,0,0-3,1.745v48.81a8.494,8.494,0,0,0-5.894-.759v-16.2a2,2,0,0,0-4.006,0V81.932a8.575,8.575,0,0,0-1.9,2.726A2.853,2.853,0,0,1,13.5,81.973Zm.753,19.673a10.78,10.78,0,0,1,5.184-7.224,8.517,8.517,0,0,0,11.382,0A10.78,10.78,0,0,1,36,101.646Zm52.283,0a10.78,10.78,0,0,1,5.184-7.224,8.517,8.517,0,0,0,11.382,0,10.779,10.779,0,0,1,5.184,7.224Z" transform="translate(0 -5.115)" fill="#003391"/>
  </g>
</svg>
