<svg xmlns="http://www.w3.org/2000/svg" width="104.706" height="106.436" viewBox="0 0 104.706 106.436">
  <g id="Icon" transform="translate(0 -0.102)">
    <path id="Path_124635" data-name="Path 124635" d="M214.394,470.176H187.236a1.654,1.654,0,0,1-1.636-1.663v-7.65a1.653,1.653,0,0,1,1.636-1.663,1.774,1.774,0,0,1,1.636,1.663v5.987h23.722v-5.987a1.653,1.653,0,0,1,1.636-1.663,1.774,1.774,0,0,1,1.636,1.663v7.65A1.439,1.439,0,0,1,214.394,470.176Z" transform="translate(-147.644 -363.639)" fill="#003391"/>
    <path id="Path_124636" data-name="Path 124636" d="M192.646,499.326H150.436a1.654,1.654,0,0,1-1.636-1.663A1.774,1.774,0,0,1,150.436,496h42.209a1.654,1.654,0,0,1,1.636,1.663,1.774,1.774,0,0,1-1.636,1.663" transform="translate(-118.37 -392.789)" fill="#003391"/>
    <path id="Path_124640" data-name="Path 124640" d="M109.434,124.535H9.636A1.654,1.654,0,0,1,8,122.872V89.278a1.653,1.653,0,0,1,1.636-1.663,1.774,1.774,0,0,1,1.636,1.663v31.764H107.8V72.482a5.14,5.14,0,0,0-5.072-5.155h-53.5a1.654,1.654,0,0,1-1.636-1.663A1.774,1.774,0,0,1,49.228,64h53.5a8.449,8.449,0,0,1,8.344,8.482v50.391a1.774,1.774,0,0,1-1.636,1.663" transform="translate(-6.364 -50.594)" fill="#003391"/>
    <path id="Path_124643" data-name="Path 124643" d="M102.726,360.02H16.18A8.312,8.312,0,0,1,8,351.538V340.063A1.653,1.653,0,0,1,9.636,338.4h99.8a1.654,1.654,0,0,1,1.636,1.663v11.475a8.449,8.449,0,0,1-8.344,8.482M11.272,341.892v9.646a5.14,5.14,0,0,0,5.072,5.155H102.89a5.14,5.14,0,0,0,5.072-5.155v-9.646Z" transform="translate(-6.364 -267.951)" fill="#003391"/>
    <path id="Path_124644" data-name="Path 124644" d="M247.272,374.4A3.327,3.327,0,1,1,244,377.726a3.3,3.3,0,0,1,3.272-3.326" transform="translate(-194.101 -296.467)" fill="#e3ecff"/>
    <path id="Path_124645" data-name="Path 124645" d="M240.908,377.178a4.99,4.99,0,1,1,4.908-4.989,4.964,4.964,0,0,1-4.908,4.989m0-6.819a1.663,1.663,0,1,0,1.636,1.663,1.774,1.774,0,0,0-1.636-1.663" transform="translate(-187.737 -290.764)" fill="#003391"/>
    <path id="Path_124646" data-name="Path 124646" d="M194.193,134.91a11.578,11.578,0,0,1-.491,1.33,2.073,2.073,0,0,0,.164,2.162l1.963,2.661a2.045,2.045,0,0,1-.164,2.661l-1.472,1.663a2,2,0,0,1-2.781.166l-2.618-2a1.985,1.985,0,0,0-2.127-.166c-.491.166-.818.333-1.309.5a1.969,1.969,0,0,0-1.309,1.663l-.491,3.326a2.139,2.139,0,0,1-2.127,1.829h-2.127a2.436,2.436,0,0,1-2.127-1.829l-.491-3.326a2.279,2.279,0,0,0-1.309-1.663c-.491-.166-.818-.333-1.309-.5a1.985,1.985,0,0,0-2.127.166l-2.618,2a1.964,1.964,0,0,1-2.618-.166l-1.472-1.663a2.045,2.045,0,0,1-.164-2.661l1.963-2.661a2.073,2.073,0,0,0,.164-2.162c-.164-.5-.327-.832-.491-1.33a1.949,1.949,0,0,0-1.636-1.33l-3.272-.5a2.153,2.153,0,0,1-1.8-2.162V128.59a2.455,2.455,0,0,1,1.8-2.162l3.272-.5a2.257,2.257,0,0,0,1.636-1.33,11.575,11.575,0,0,1,.491-1.33,2.073,2.073,0,0,0-.164-2.162l-1.963-2.661a2.045,2.045,0,0,1,.164-2.661l1.472-1.663a1.806,1.806,0,0,1,2.618-.166l2.618,2a1.985,1.985,0,0,0,2.127.166c.491-.166.818-.333,1.309-.5a1.969,1.969,0,0,0,1.309-1.663l.491-3.326a2.139,2.139,0,0,1,2.127-1.829h2.127a2.275,2.275,0,0,1,2.127,1.829l.491,3.326a2.279,2.279,0,0,0,1.309,1.663c.491.166.818.333,1.309.5a1.985,1.985,0,0,0,2.127-.166l2.618-2a2.2,2.2,0,0,1,2.781.166l1.472,1.663a2.045,2.045,0,0,1,.164,2.661l-1.963,2.661a2.073,2.073,0,0,0-.164,2.162c.164.5.327.832.491,1.33a1.949,1.949,0,0,0,1.636,1.33l3.272.5a2.153,2.153,0,0,1,1.8,2.162v2.328a2.455,2.455,0,0,1-1.8,2.162l-3.272.5A1.887,1.887,0,0,0,194.193,134.91Z" transform="translate(-127.279 -86.081)" fill="#ffca38"/>
    <path id="Path_124647" data-name="Path 124647" d="M207.815,170.474a6.506,6.506,0,0,0-3.6-3.326,2.3,2.3,0,0,0-.982-.333,5.307,5.307,0,0,0-2.781-.665,8.165,8.165,0,0,0-2.127.333,6.6,6.6,0,0,0-.164-4.989l-.491-1a6.533,6.533,0,0,0-3.272-3.659,6.01,6.01,0,0,0,3.272-3.659c.164-.333.164-.665.327-1a5.92,5.92,0,0,0,.164-4.989,9.431,9.431,0,0,0,2.127.333,5.7,5.7,0,0,0,2.781-.665,2.3,2.3,0,0,1,.982-.333,7.085,7.085,0,0,0,3.6-3.326,6.506,6.506,0,0,0,3.6,3.326c.327.166.654.166.982.333a5.307,5.307,0,0,0,2.781.665,8.165,8.165,0,0,0,2.127-.333,6.6,6.6,0,0,0,.164,4.989,2.391,2.391,0,0,1,.327,1,6.533,6.533,0,0,0,3.272,3.659,6.01,6.01,0,0,0-3.272,3.659l-.491,1a5.92,5.92,0,0,0-.164,4.989,9.431,9.431,0,0,0-2.127-.333,5.7,5.7,0,0,0-2.781.665,2.3,2.3,0,0,1-.982.333A7.107,7.107,0,0,0,207.815,170.474Z" transform="translate(-154.645 -113.33)" fill="#fecb4d"/>
    <path id="Path_124648" data-name="Path 124648" d="M175.068,146.035h-2.127a3.868,3.868,0,0,1-3.763-3.16l-.491-3.326a.355.355,0,0,0-.327-.333,5.765,5.765,0,0,1-1.472-.665c-.164,0-.327-.166-.491,0l-2.618,2a3.7,3.7,0,0,1-4.908-.333l-1.472-1.663a3.628,3.628,0,0,1-.327-4.823l1.963-2.661a.315.315,0,0,0,0-.5c-.164-.5-.491-1-.654-1.5l-.327-.333-3.272-.5A3.628,3.628,0,0,1,152,124.582v-2.328a3.9,3.9,0,0,1,3.108-3.825l3.272-.5a.355.355,0,0,0,.327-.333,5.957,5.957,0,0,1,.654-1.5v-.333l-2.127-2.661a3.628,3.628,0,0,1,.327-4.823l1.472-1.663a3.7,3.7,0,0,1,4.908-.333l2.618,2c.164.166.327,0,.491,0,.491-.166.982-.5,1.472-.665a.355.355,0,0,0,.327-.333l.491-3.326a3.74,3.74,0,0,1,3.763-3.16h2.127a3.868,3.868,0,0,1,3.763,3.16l.491,3.326a.355.355,0,0,0,.327.333,5.764,5.764,0,0,1,1.472.665h.491l2.618-2a3.894,3.894,0,0,1,4.908.333l1.472,1.663a3.628,3.628,0,0,1,.327,4.823l-1.963,2.661a.315.315,0,0,0,0,.5c.164.5.491,1,.654,1.5a.355.355,0,0,0,.327.333l3.272.5a3.768,3.768,0,0,1,3.108,3.825v2.328a3.9,3.9,0,0,1-3.108,3.825l-3.272.5a.355.355,0,0,0-.327.333,5.956,5.956,0,0,1-.654,1.5v.333l1.963,2.661a3.628,3.628,0,0,1-.327,4.823l-1.472,1.663a3.7,3.7,0,0,1-4.908.333l-2.945-2.162a.3.3,0,0,0-.491,0c-.491.166-.982.5-1.472.665-.164,0-.164.166-.164.333l-.491,3.326A3.74,3.74,0,0,1,175.068,146.035Zm-8.18-10.81a5.731,5.731,0,0,1,1.636.333c.327.166.818.333,1.145.5a4.124,4.124,0,0,1,2.454,2.993l.491,3.326a.355.355,0,0,0,.327.333h2.127a.355.355,0,0,0,.327-.333l.491-3.326a3.8,3.8,0,0,1,2.454-2.993,7.908,7.908,0,0,0,1.145-.5,3.8,3.8,0,0,1,3.763.333l2.618,2a.3.3,0,0,0,.491,0l1.472-1.663a.315.315,0,0,0,0-.5l-1.636-2.661a3.594,3.594,0,0,1-.327-3.825c.164-.333.327-.832.491-1.164a3.768,3.768,0,0,1,2.945-2.495l3.108-.5a.355.355,0,0,0,.327-.333V122.42a.355.355,0,0,0-.327-.333l-3.272-.5a3.768,3.768,0,0,1-2.945-2.495,8.177,8.177,0,0,0-.491-1.164,3.561,3.561,0,0,1,.327-3.825l1.963-2.661a.315.315,0,0,0,0-.5l-1.472-1.5a.3.3,0,0,0-.491,0l-2.618,2a3.442,3.442,0,0,1-3.763.333c-.327-.166-.818-.333-1.145-.5a4.124,4.124,0,0,1-2.454-2.993l-.491-3.326a.355.355,0,0,0-.327-.333H173.1a.355.355,0,0,0-.327.333l-.491,3.326a3.8,3.8,0,0,1-2.454,2.993c-.327.166-.818.333-1.145.5a3.8,3.8,0,0,1-3.763-.333l-2.618-2a.3.3,0,0,0-.491,0l-1.472,1.663a.315.315,0,0,0,0,.5l1.963,2.661a3.594,3.594,0,0,1,.327,3.825c-.164.333-.327.832-.491,1.164a3.768,3.768,0,0,1-2.945,2.495l-3.108.5a.355.355,0,0,0-.327.333v2.328a.355.355,0,0,0,.327.333l3.272.5a3.768,3.768,0,0,1,2.945,2.495,8.181,8.181,0,0,0,.491,1.164,3.561,3.561,0,0,1-.327,3.825l-1.963,2.661a.315.315,0,0,0,0,.5l1.472,1.5a.3.3,0,0,0,.491,0l2.618-2C165.252,135.392,166.07,135.225,166.888,135.225Z" transform="translate(-120.915 -79.744)" fill="#003391"/>
    <path id="Path_124649" data-name="Path 124649" d="M230.089,172a7.817,7.817,0,1,1-7.689,7.816A7.754,7.754,0,0,1,230.089,172" transform="translate(-176.918 -136.143)" fill="#fff"/>
    <path id="Path_124650" data-name="Path 124650" d="M223.725,182.959a9.4,9.4,0,0,1-9.325-9.479A9.507,9.507,0,0,1,223.725,164a9.4,9.4,0,0,1,9.325,9.479,9.507,9.507,0,0,1-9.325,9.479m0-15.633a6.154,6.154,0,1,0,6.053,6.153,6.2,6.2,0,0,0-6.053-6.153" transform="translate(-170.554 -129.806)" fill="#003391"/>
    <path id="Path_124651" data-name="Path 124651" d="M37.776,30.618a8.179,8.179,0,0,1-.491,1.164,1.809,1.809,0,0,0,.164,1.829l1.636,2.328a1.8,1.8,0,0,1-.164,2.328L37.612,39.6a1.731,1.731,0,0,1-2.29.166L33.031,38.1a1.767,1.767,0,0,0-1.8-.166c-.327.166-.818.333-1.145.5a1.836,1.836,0,0,0-1.145,1.5l-.491,2.994a1.788,1.788,0,0,1-1.8,1.5h-1.8a1.925,1.925,0,0,1-1.8-1.5L22.724,40.1a2.111,2.111,0,0,0-1.145-1.5c-.327-.166-.818-.333-1.145-.5a1.732,1.732,0,0,0-1.8.166l-2.29,1.663a1.939,1.939,0,0,1-2.454-.166l-1.309-1.33a1.8,1.8,0,0,1-.164-2.328l1.636-2.328a1.846,1.846,0,0,0,.164-1.829c-.164-.333-.327-.832-.491-1.164a1.749,1.749,0,0,0-1.472-1.33l-2.781-.5A1.631,1.631,0,0,1,8,27.291v-2a1.941,1.941,0,0,1,1.472-1.829l2.781-.5A1.576,1.576,0,0,0,13.726,21.8a8.179,8.179,0,0,1,.491-1.164,1.809,1.809,0,0,0-.164-1.829l-1.636-2.328a2.021,2.021,0,0,1,.164-2.495l1.309-1.33a1.731,1.731,0,0,1,2.29-.166l2.29,1.663a1.469,1.469,0,0,0,1.8.166,7.908,7.908,0,0,0,1.145-.5,1.836,1.836,0,0,0,1.145-1.5L23.051,9.5a1.788,1.788,0,0,1,1.8-1.5h1.8a1.925,1.925,0,0,1,1.8,1.5l.491,2.827a2.111,2.111,0,0,0,1.145,1.5c.327.166.818.333,1.145.5a1.469,1.469,0,0,0,1.8-.166l2.29-1.663a1.731,1.731,0,0,1,2.29.166l1.309,1.33a1.8,1.8,0,0,1,.164,2.328l-1.636,2.328a1.846,1.846,0,0,0-.164,1.829c.164.333.327.832.491,1.164A1.576,1.576,0,0,0,39.248,22.8l2.781.5A1.8,1.8,0,0,1,43.5,25.129v2a1.941,1.941,0,0,1-1.472,1.829l-2.781.5a1.576,1.576,0,0,0-1.472,1.164" transform="translate(-6.364 -6.235)" fill="#35ccde"/>
    <path id="Path_124652" data-name="Path 124652" d="M47.47,60.946a5.2,5.2,0,0,0-3.108-3.326c-.327-.166-.491-.166-.818-.333a6.333,6.333,0,0,0-2.29-.5,4.559,4.559,0,0,0-2.454.665,5.53,5.53,0,0,0,.164-4.823,2.838,2.838,0,0,1-.327-.832A4.974,4.974,0,0,0,35.2,48.473a4.974,4.974,0,0,0,3.436-3.326c.164-.333.164-.665.327-.832a5.55,5.55,0,0,0-.164-4.823,5.352,5.352,0,0,0,2.454.665,9.854,9.854,0,0,0,2.127-.5c.327-.166.491-.333.818-.333A4.835,4.835,0,0,0,47.307,36a5.907,5.907,0,0,0,3.108,3.492c.327.166.491.166.818.333a12.435,12.435,0,0,0,2.454.333,4.559,4.559,0,0,0,2.454-.665,5.53,5.53,0,0,0-.164,4.823c.164.333.164.665.327.832a5.3,5.3,0,0,0,3.436,3.326A4.974,4.974,0,0,0,56.3,51.8c-.164.333-.164.665-.327.832a5.55,5.55,0,0,0,.164,4.823,4.559,4.559,0,0,0-2.454-.665,5.694,5.694,0,0,0-2.29.5c-.327.166-.491.166-.818.333A4.835,4.835,0,0,0,47.47,60.946Z" transform="translate(-28.001 -28.415)" fill="#35ccde"/>
    <path id="Path_124653" data-name="Path 124653" d="M20.287,39.747h-1.8a3.67,3.67,0,0,1-3.436-2.993l-.491-2.827a5.764,5.764,0,0,0-1.472-.665L10.8,34.924a3.632,3.632,0,0,1-4.581-.333l-1.145-1.33a3.567,3.567,0,0,1-.327-4.49l1.636-2.328-.491-1.5-2.945-.5A3.7,3.7,0,0,1,0,20.955v-2a3.7,3.7,0,0,1,2.945-3.492l2.781-.5a5.957,5.957,0,0,0,.654-1.5L4.744,10.976a3.549,3.549,0,0,1,.327-4.49l1.309-1.33a3.632,3.632,0,0,1,4.581-.333l2.29,1.663,1.472-.5.491-2.994A3.67,3.67,0,0,1,18.651,0h1.8a3.67,3.67,0,0,1,3.436,2.994l.491,2.827.164.166c.491.166.818.333,1.309.5L28.3,4.823a3.65,3.65,0,0,1,4.581.333l1.309,1.33a3.567,3.567,0,0,1,.327,4.49L32.884,13.3l.491,1.5,2.945.5a3.7,3.7,0,0,1,2.945,3.492v2a3.555,3.555,0,0,1-2.945,3.492l-2.781.5a5.957,5.957,0,0,0-.654,1.5l1.636,2.495a3.567,3.567,0,0,1-.327,4.49l-1.309,1.33a3.65,3.65,0,0,1-4.581.333l-2.29-1.663-1.472.5-.491,2.994A3.851,3.851,0,0,1,20.287,39.747Zm-7.035-9.812a4.711,4.711,0,0,1,1.472.333l.982.5A4.022,4.022,0,0,1,18,33.594l.491,2.827,1.963.166a.161.161,0,0,0,.164-.166l.491-2.827a3.387,3.387,0,0,1,2.29-2.827,2.3,2.3,0,0,1,.982-.333,3.175,3.175,0,0,1,3.6.333l2.29,1.663h.164l1.309-1.33v-.166L30.1,28.6a3.618,3.618,0,0,1-.327-3.659l.491-1a3.641,3.641,0,0,1,2.781-2.328l2.618-.5.164-.166v-2l-.164-.166-3.108-.5a3.357,3.357,0,0,1-2.781-2.328,2.391,2.391,0,0,0-.327-1,3.658,3.658,0,0,1,.327-3.659l1.636-2.328V8.814L30.1,7.484h-.164l-2.29,1.663a3.5,3.5,0,0,1-3.6.333l-.982-.5a4.022,4.022,0,0,1-2.29-2.827l-.491-2.827h-1.8a.161.161,0,0,0-.164.166L17.833,6.32a3.387,3.387,0,0,1-2.29,2.827c-.164.166-.491.166-.818.333a3.175,3.175,0,0,1-3.6-.333L8.835,7.484H8.671L7.362,8.814v.166L9,11.309a3.34,3.34,0,0,1,.327,3.659,2.391,2.391,0,0,0-.327,1,3.641,3.641,0,0,1-2.781,2.328l-2.781.5-.164.166v2l.164.166,2.781.5A3.357,3.357,0,0,1,9,23.948l.491,1A3.658,3.658,0,0,1,9.162,28.6L7.526,30.933l2.29,2.661-.982-1.33,2.29-1.663a3.251,3.251,0,0,1,2.127-.665" transform="translate(0 0.102)" fill="#2a3c65"/>
    <path id="Path_124654" data-name="Path 124654" d="M69.108,63.2A6.819,6.819,0,1,1,62.4,70.019,6.764,6.764,0,0,1,69.108,63.2" transform="translate(-49.639 -49.96)" fill="#fff"/>
    <path id="Path_124655" data-name="Path 124655" d="M62.744,72A8.2,8.2,0,0,1,54.4,63.682,8.344,8.344,0,0,1,62.744,55.2a8.4,8.4,0,0,1,0,16.8m0-13.471a5.156,5.156,0,1,0,5.072,5.155,5.368,5.368,0,0,0-5.072-5.155" transform="translate(-43.275 -43.623)" fill="#003391"/>
  </g>
</svg>
