<?xml version="1.0" encoding="utf-8"?>
<!-- Generator: Adobe Illustrator 27.9.2, SVG Export Plug-In . SVG Version: 6.00 Build 0)  -->
<svg version="1.1" id="Layer_1" xmlns="http://www.w3.org/2000/svg" xmlns:xlink="http://www.w3.org/1999/xlink" x="0px" y="0px"
	 width="143.5px" height="143.5px" viewBox="0 0 143.5 143.5" style="enable-background:new 0 0 143.5 143.5;" xml:space="preserve"
	>
<style type="text/css">
	.st0{fill:#001F5E;}
	.st1{fill:#FFFFFF;}
	.st2{fill-rule:evenodd;clip-rule:evenodd;fill:#001F5E;}
	.st3{font-family:'SegoeUI-Bold';}
	.st4{font-size:12px;}
</style>
<g id="ulIcon6" transform="translate(-1448.257 -1421.788)">
	<path id="base-2" class="st0" d="M1520,1422.1L1520,1422.1c38.3,0,69.4,31.1,69.4,69.4l0,0c0,38.3-31.1,69.4-69.4,69.4l0,0
		c-38.3,0-69.4-31.1-69.4-69.4l0,0C1450.6,1453.2,1481.7,1422.1,1520,1422.1z"/>
	<g transform="matrix(1, 0, 0, 1, 1448.26, 1421.79)">
		<path id="base-3" class="st1" d="M71.7,10L71.7,10c33,0,59.7,26.7,59.7,59.7l0,0c0,33-26.7,59.7-59.7,59.7l0,0
			c-33,0-59.7-26.7-59.7-59.7l0,0C12,36.7,38.7,10,71.7,10z"/>
	</g>
	<g id="Group_56897" transform="translate(1053.223 0.239)">
		<g id="Page-1" transform="translate(438.647 1474.985)">
			<g id="Icon-Set">
				<path id="mail" class="st2" d="M49.4,32.7c0,0.3-0.1,0.7-0.2,1L33.9,17.3l15.4-12V32.7z M4,36.1l15.5-16.5l5.9,4.4l5.6-4.5
					l15.7,16.5C46.5,36.1,4.3,36.1,4,36.1L4,36.1z M1.3,32.7V5.3l15.4,12L1.5,33.7C1.4,33.4,1.3,33.1,1.3,32.7z M47.7,1.9L25.4,19
					L3.1,1.9H47.7z M45.9-1.6H4.8C1-1.6-2.1,1.5-2.1,5.3v27.4c0,3.8,3.1,6.9,6.9,6.9h41.2c3.8,0,6.9-3.1,6.9-6.9V5.3
					C52.8,1.5,49.7-1.6,45.9-1.6z"/>
			</g>
		</g>
		<circle id="Ellipse_11302" class="st0" cx="489.6" cy="1475.4" r="10.6"/>
		<text transform="matrix(1 0 0 1 486.2995 1478.7653)" class="st1 st3 st4">1</text>
	</g>
</g>
</svg>
