<?xml version="1.0" encoding="utf-8"?>
<!-- Generator: Adobe Illustrator 27.9.2, SVG Export Plug-In . SVG Version: 6.00 Build 0)  -->
<svg version="1.1" id="Layer_1" xmlns="http://www.w3.org/2000/svg" xmlns:xlink="http://www.w3.org/1999/xlink" x="0px" y="0px"
	 width="143.5px" height="143.5px" viewBox="0 0 143.5 143.5" style="enable-background:new 0 0 143.5 143.5;" xml:space="preserve"
	>
<style type="text/css">
	.st0{fill:#003391;}
	.st1{fill:#FFFFFF;}
</style>
<g id="ulIcon1" transform="translate(-1448.257 -1421.788)">
	<path id="base-2" class="st0" d="M1520,1424.1L1520,1424.1c38.3,0,69.4,31.1,69.4,69.4l0,0c0,38.3-31.1,69.4-69.4,69.4l0,0
		c-38.3,0-69.4-31.1-69.4-69.4l0,0C1450.6,1455.2,1481.7,1424.1,1520,1424.1z"/>
	<g transform="matrix(1, 0, 0, 1, 1448.26, 1421.79)">
		<path id="base-3" class="st1" d="M71.7,12L71.7,12c33,0,59.7,26.7,59.7,59.7l0,0c0,33-26.7,59.7-59.7,59.7l0,0
			c-33,0-59.7-26.7-59.7-59.7l0,0C12,38.7,38.7,12,71.7,12z"/>
	</g>
</g>
<g id="Layer_1_00000065789028727076930600000015137194435214976182_">
</g>
<g id="Layer_10">
	<path class="st0" d="M57.2,64c-1,0-1.7,0.8-1.7,1.7c0,1,0.8,1.7,1.7,1.7h18.7c1,0,1.7-0.8,1.7-1.7c0-1-0.8-1.7-1.7-1.7H57.2z"/>
	<path class="st0" d="M65.6,73.9h-8.4c-1,0-1.7,0.8-1.7,1.7c0,1,0.8,1.7,1.7,1.7h8.4c1,0,1.7-0.8,1.7-1.7
		C67.4,74.7,66.6,73.9,65.6,73.9z"/>
	<path class="st0" d="M65.3,96.1H52.1c-2.9,0-5.2-2.3-5.2-5.2V55.6c0-2.9,2.3-5.2,5.2-5.2h3.6v0.4c0,2.5,2.1,4.6,4.6,4.6H77
		c2.5,0,4.6-2.1,4.6-4.6v-0.4h3.6c2.9,0,5.2,2.3,5.2,5.2v10c0,1,0.8,1.7,1.7,1.7c1,0,1.7-0.8,1.7-1.7v-10c0-4.8-3.9-8.7-8.7-8.7
		h-3.6v-0.4c0-2.5-2.1-4.6-4.6-4.6H60.3c-2.5,0-4.6,2.1-4.6,4.6v0.4h-3.6c-4.8,0-8.7,3.9-8.7,8.7v35.4c0,4.8,3.9,8.7,8.7,8.7h13.3
		c1,0,1.7-0.8,1.7-1.7C67.1,96.9,66.3,96.1,65.3,96.1z M59.2,46.4c0-0.6,0.5-1.1,1.1-1.1H77c0.6,0,1.1,0.5,1.1,1.1v4.4
		c0,0.6-0.5,1.1-1.1,1.1H60.3c-0.6,0-1.1-0.5-1.1-1.1V46.4z"/>
	<path class="st0" d="M97.5,73.4c-2.4-2.4-6.6-2.4-9,0L73.1,88.8c-0.5,0.5-0.8,1.1-0.9,1.8l-0.8,5c-0.2,1.1,0.2,2.2,0.9,3
		c0.6,0.6,1.5,1,2.4,1c0.2,0,0.4,0,0.6,0l5-0.8c0.7-0.1,1.3-0.4,1.8-0.9l15.5-15.5C100,79.8,100,75.8,97.5,73.4L97.5,73.4z
		 M79.6,95.3l-4.9,1l0.8-5l11.1-11.1l4,4L79.6,95.3z M95,79.8l-1.9,1.9l-4-4l1.9-1.9c0.5-0.5,1.2-0.8,2-0.8c0.8,0,1.5,0.3,2,0.8
		C96.1,76.9,96.1,78.7,95,79.8L95,79.8z"/>
</g>
</svg>
