<?xml version="1.0" encoding="utf-8"?>
<!-- Generator: Adobe Illustrator 27.9.2, SVG Export Plug-In . SVG Version: 6.00 Build 0)  -->
<svg version="1.1" id="Layer_1" xmlns="http://www.w3.org/2000/svg" xmlns:xlink="http://www.w3.org/1999/xlink" x="0px" y="0px"
	 width="143.5px" height="143.5px" viewBox="0 0 143.5 143.5" style="enable-background:new 0 0 143.5 143.5;" xml:space="preserve"
	>
<style type="text/css">
	.st0{fill:#145FFF;}
	.st1{fill:#FFFFFF;}
</style>
<g id="ulIcon1" transform="translate(-1448.257 -1421.788)">
	<path id="base-2" class="st0" d="M1520,1424.1L1520,1424.1c38.3,0,69.4,31.1,69.4,69.4l0,0c0,38.3-31.1,69.4-69.4,69.4l0,0
		c-38.3,0-69.4-31.1-69.4-69.4l0,0C1450.6,1455.2,1481.7,1424.1,1520,1424.1z"/>
	<g transform="matrix(1, 0, 0, 1, 1448.26, 1421.79)">
		<path id="base-3" class="st1" d="M71.7,12L71.7,12c33,0,59.7,26.7,59.7,59.7l0,0c0,33-26.7,59.7-59.7,59.7l0,0
			c-33,0-59.7-26.7-59.7-59.7l0,0C12,38.7,38.7,12,71.7,12z"/>
	</g>
</g>
<g id="Layer_1_00000065789028727076930600000015137194435214976182_">
</g>
<path class="st0" d="M93.3,76c1.1,0,2.1-0.8,2.2-1.9c0.3-2.3,0.3-4.7,0-7c-0.1-1.1-1.1-1.9-2.2-1.9h-2.4c-0.5-1.7-1.1-3.4-2-4.9
	l1.7-1.7c0.8-0.8,0.9-2,0.2-2.9c-1.4-1.9-3.1-3.5-5-5c-0.9-0.7-2.1-0.6-2.9,0.2l-1.7,1.7c-1.5-0.9-3.2-1.6-4.9-2v-2.5
	c0-1.1-0.8-2.1-1.9-2.2c-2.3-0.3-4.7-0.3-7,0c-1.1,0.1-1.9,1.1-1.9,2.2v2.5c-1.7,0.5-3.4,1.1-4.9,2l-1.7-1.7c-0.8-0.8-2-0.9-2.9-0.2
	c-1.9,1.4-3.5,3.1-5,5c-0.7,0.9-0.6,2.1,0.2,2.9l1.7,1.7c-0.9,1.5-1.6,3.2-2,4.9h-2.4c-1.1,0-2.1,0.8-2.2,1.9c-0.3,2.3-0.3,4.7,0,7
	c0.1,1.1,1.1,1.9,2.2,1.9h2.4c0.5,1.7,1.1,3.4,2,4.9l-1.7,1.7c-0.8,0.8-0.9,2-0.2,2.9c1.4,1.9,3.1,3.5,5,5c0.9,0.7,2.1,0.6,2.9-0.2
	l1.7-1.7c1.5,0.9,3.2,1.6,4.9,2v2.5c0,1.1,0.8,2.1,1.9,2.2c2.3,0.3,4.7,0.3,7,0c1.1-0.1,1.9-1.1,1.9-2.2v-2.5c1.7-0.5,3.4-1.1,4.9-2
	l1.7,1.7c0.8,0.8,2,0.9,2.9,0.2c1.9-1.4,3.5-3.1,5-5c0.7-0.9,0.6-2.1-0.2-2.9l-1.7-1.7c0.9-1.5,1.6-3.2,2-4.9L93.3,76z M88.9,74.7
	c-0.5,2.1-1.3,4.1-2.4,5.9c-0.3,0.4-0.2,1,0.2,1.4l2.3,2.3c-1.3,1.7-2.8,3.2-4.5,4.5l-2.3-2.3c-0.4-0.4-1-0.4-1.4-0.2
	c-1.8,1.1-3.8,2-5.9,2.4c-0.5,0.1-0.9,0.6-0.9,1.1v3.3c-2.1,0.3-4.2,0.3-6.4,0v-3.3c0-0.5-0.4-1-0.9-1.1c-2.1-0.5-4.1-1.3-5.9-2.4
	c-0.4-0.3-1-0.2-1.4,0.2l-2.3,2.3c-1.7-1.3-3.2-2.8-4.5-4.5l2.3-2.3c0.4-0.4,0.4-1,0.2-1.4c-1.1-1.8-2-3.8-2.4-5.9
	c-0.1-0.5-0.6-0.9-1.1-0.9h-3.3c-0.3-2.1-0.3-4.2,0-6.4h3.3c0.5,0,1-0.4,1.1-0.9c0.5-2.1,1.3-4.1,2.4-5.9c0.3-0.4,0.2-1-0.2-1.4
	L52.7,57c1.3-1.7,2.8-3.2,4.5-4.5l2.3,2.3c0.4,0.4,1,0.4,1.4,0.2c1.8-1.1,3.8-2,5.9-2.4c0.5-0.1,0.9-0.6,0.9-1.1v-3.3
	c2.1-0.3,4.2-0.3,6.4,0v3.3c0,0.5,0.4,1,0.9,1.1c2.1,0.5,4.1,1.3,5.9,2.4c0.4,0.3,1,0.2,1.4-0.2l2.3-2.3c1.7,1.3,3.2,2.8,4.5,4.5
	l-2.3,2.3c-0.4,0.4-0.4,1-0.2,1.4c1.1,1.8,2,3.8,2.4,5.9c0.1,0.5,0.6,0.9,1.1,0.9h3.3c0.3,2.1,0.3,4.2,0,6.4H90
	C89.4,73.8,89,74.1,88.9,74.7L88.9,74.7z M70.8,57.3c-7.3,0-13.3,5.9-13.3,13.3c0,7.3,5.9,13.3,13.3,13.3c7.3,0,13.3-5.9,13.3-13.3
	l0,0C84,63.3,78.1,57.4,70.8,57.3z M70.8,81.6c-6.1,0-11-4.9-11-11c0-6.1,4.9-11,11-11c6.1,0,11,4.9,11,11c0,0,0,0,0,0
	C81.8,76.7,76.9,81.6,70.8,81.6L70.8,81.6z M46.8,48.6c-1.1,1.2-2.2,2.5-3.1,3.9c-0.3,0.5-1,0.7-1.6,0.3s-0.7-1-0.3-1.6l0,0
	c1-1.5,2.1-2.9,3.3-4.2c0.4-0.4,1.1-0.5,1.6,0C47.2,47.4,47.2,48.1,46.8,48.6z M50.7,43.6c-0.4-0.5-0.2-1.2,0.3-1.6
	c12.3-8.5,28.7-8.2,40.7,0.7l-0.4-1c-0.2-0.6,0.1-1.2,0.7-1.4c0.6-0.2,1.2,0.1,1.4,0.7l1.8,5c0.2,0.6-0.1,1.2-0.7,1.4
	c-0.1,0-0.3,0.1-0.4,0.1c-0.1,0-0.1,0-0.2,0l-5.3-0.9c-0.6-0.1-1-0.7-0.9-1.3c0.1-0.6,0.7-1,1.3-0.9l0,0l1.2,0.2
	c-11.2-8.4-26.5-8.6-38-0.7C51.7,44.2,51,44.1,50.7,43.6z M39.2,78.5c0.1,0.6-0.2,1.2-0.8,1.4c-0.1,0-0.2,0-0.3,0
	c-0.5,0-1-0.4-1.1-0.9c-0.4-1.4-0.6-2.9-0.8-4.4c-0.1-0.6,0.4-1.2,1-1.2c0.6-0.1,1.1,0.4,1.2,1C38.6,75.7,38.9,77.1,39.2,78.5z
	 M36,69.6c0-1.4,0.2-2.8,0.4-4.2c0.1-0.6,0.7-1,1.3-0.9c0.6,0.1,1,0.7,0.9,1.3c-0.2,1.3-0.3,2.6-0.4,3.9c0,0.6-0.5,1.1-1.1,1.1h0
	C36.5,70.7,36,70.2,36,69.6z M41.2,57.2c-0.6,1.3-1.1,2.6-1.5,3.9c-0.2,0.6-0.8,0.9-1.4,0.7c-0.6-0.2-0.9-0.8-0.7-1.4
	c0.4-1.4,1-2.8,1.6-4.2c0.3-0.6,0.9-0.8,1.5-0.6S41.4,56.6,41.2,57.2L41.2,57.2z M102.4,62.7c-0.1-0.6,0.2-1.2,0.8-1.4
	c0.6-0.1,1.2,0.2,1.4,0.8c0.4,1.4,0.6,2.9,0.8,4.4c0.1,0.6-0.4,1.2-1,1.2c0,0-0.1,0-0.1,0c-0.6,0-1-0.4-1.1-1
	C103,65.5,102.7,64.1,102.4,62.7z M105.6,71.6c0,1.4-0.2,2.8-0.4,4.2c-0.1,0.5-0.6,1-1.1,1c-0.1,0-0.1,0-0.2,0
	c-0.6-0.1-1-0.7-0.9-1.3c0,0,0,0,0,0c0.2-1.3,0.3-2.6,0.4-3.9c0-0.6,0.5-1.1,1.2-1.1C105.1,70.5,105.6,71,105.6,71.6L105.6,71.6
	L105.6,71.6z M99.7,90c-1,1.5-2.1,2.9-3.3,4.2c-0.4,0.5-1.1,0.5-1.6,0.1s-0.5-1.1-0.1-1.6c0,0,0,0,0,0c1.1-1.2,2.2-2.5,3.1-3.9
	c0.3-0.5,1-0.7,1.6-0.3S100,89.5,99.7,90z M104.1,80.8c-0.4,1.4-1,2.8-1.6,4.2c-0.3,0.6-0.9,0.8-1.5,0.6s-0.8-0.9-0.6-1.5
	c0.6-1.3,1.1-2.6,1.5-3.9c0.2-0.6,0.8-0.9,1.4-0.7C103.9,79.6,104.2,80.2,104.1,80.8L104.1,80.8z M90.9,97.6
	c0.4,0.5,0.2,1.2-0.3,1.6c-12.3,8.5-28.7,8.2-40.7-0.7l0.4,1c0.2,0.6-0.2,1.2-0.8,1.4c-0.5,0.1-1.1-0.1-1.3-0.6l-1.8-5
	c-0.2-0.6,0.1-1.2,0.7-1.4c0.2-0.1,0.4-0.1,0.6,0l5.3,0.9c0.6,0.1,1,0.7,0.9,1.3c-0.1,0.6-0.7,1-1.3,0.9l-1.2-0.2
	c11.2,8.4,26.5,8.6,38,0.7C89.9,97,90.6,97.1,90.9,97.6C90.9,97.6,90.9,97.6,90.9,97.6z"/>
</svg>
