<?xml version="1.0" encoding="utf-8"?>
<!-- Generator: Adobe Illustrator 27.9.2, SVG Export Plug-In . SVG Version: 6.00 Build 0)  -->
<svg version="1.1" id="Layer_1" xmlns="http://www.w3.org/2000/svg" xmlns:xlink="http://www.w3.org/1999/xlink" x="0px" y="0px"
	 width="143.5px" height="143.5px" viewBox="0 0 143.5 143.5" style="enable-background:new 0 0 143.5 143.5;" xml:space="preserve"
	>
<style type="text/css">
	.st0{fill:#35CCDE;}
	.st1{fill:#FFFFFF;}
</style>
<g id="ulIcon1" transform="translate(-1448.257 -1421.788)">
	<path id="base-2" class="st0" d="M1520,1424.1L1520,1424.1c38.3,0,69.4,31.1,69.4,69.4l0,0c0,38.3-31.1,69.4-69.4,69.4l0,0
		c-38.3,0-69.4-31.1-69.4-69.4l0,0C1450.6,1455.2,1481.7,1424.1,1520,1424.1z"/>
	<g transform="matrix(1, 0, 0, 1, 1448.26, 1421.79)">
		<path id="base-3" class="st1" d="M71.7,12L71.7,12c33,0,59.7,26.7,59.7,59.7l0,0c0,33-26.7,59.7-59.7,59.7l0,0
			c-33,0-59.7-26.7-59.7-59.7l0,0C12,38.7,38.7,12,71.7,12z"/>
	</g>
</g>
<g id="Layer_1_00000065789028727076930600000015137194435214976182_">
</g>
<g>
	<g>
		<path class="st0" d="M61.4,71.1H37.5c-1,0-1.9-0.8-1.9-1.9s0.8-1.9,1.9-1.9h23.9c1,0,1.9,0.8,1.9,1.9S62.5,71.1,61.4,71.1z"/>
		<path class="st0" d="M52,80.6c-0.5,0-1-0.2-1.3-0.6c-0.7-0.7-0.7-1.9,0-2.7l8.1-8.1l-8.1-8.1c-0.7-0.7-0.7-1.9,0-2.7
			s1.9-0.7,2.7,0l9.4,9.4c0.7,0.7,0.7,1.9,0,2.7L53.3,80C53,80.4,52.5,80.6,52,80.6z"/>
		<path class="st0" d="M75.9,103.3c-2.8,0-5-2.3-5-5V52.9c0-2.2,1.4-4.1,3.4-4.8l15.1-5c3.4-1,6.6,1.5,6.6,4.8v45.3
			c0,2.2-1.4,4.1-3.4,4.8l-15.1,5C77,103.2,76.5,103.3,75.9,103.3z M91,46.6c-0.2,0-0.3,0-0.5,0.1l-15.1,5c-0.5,0.2-0.9,0.7-0.9,1.2
			v45.3c0,0.9,0.9,1.4,1.7,1.2l15.1-5c0.5-0.2,0.9-0.7,0.9-1.2V47.9C92.3,47.2,91.7,46.6,91,46.6z"/>
		<path class="st0" d="M57.7,55.4c-1,0-1.9-0.8-1.9-1.9v-3.8c0-3.8,3.1-6.9,6.9-6.9H91c1,0,1.9,0.8,1.9,1.9c0,1-0.8,1.9-1.9,1.9
			H62.7c-1.7,0-3.1,1.4-3.1,3.1v3.8C59.5,54.6,58.7,55.4,57.7,55.4z"/>
	</g>
	<path class="st0" d="M72.8,95.7H62.7c-3.8,0-6.9-3.1-6.9-6.9V85c0-1,0.8-1.9,1.9-1.9s1.9,0.8,1.9,1.9v3.8c0,1.7,1.4,3.1,3.1,3.1
		h10.1c1,0,1.9,0.8,1.9,1.9C74.7,94.9,73.8,95.7,72.8,95.7z"/>
</g>
</svg>
