<?xml version="1.0" encoding="utf-8"?>
<!-- Generator: Adobe Illustrator 27.9.2, SVG Export Plug-In . SVG Version: 6.00 Build 0)  -->
<svg version="1.1" id="Layer_1" xmlns="http://www.w3.org/2000/svg" xmlns:xlink="http://www.w3.org/1999/xlink" x="0px" y="0px"
	 width="143.5px" height="143.5px" viewBox="0 0 143.5 143.5" style="enable-background:new 0 0 143.5 143.5;" xml:space="preserve"
	>
<style type="text/css">
	.st0{fill:#7A6AF7;}
	.st1{fill:#FFFFFF;}
</style>
<g id="ulIcon1" transform="translate(-1448.257 -1421.788)">
	<path id="base-2" class="st0" d="M1520,1424.1L1520,1424.1c38.3,0,69.4,31.1,69.4,69.4l0,0c0,38.3-31.1,69.4-69.4,69.4l0,0
		c-38.3,0-69.4-31.1-69.4-69.4l0,0C1450.6,1455.2,1481.7,1424.1,1520,1424.1z"/>
	<g transform="matrix(1, 0, 0, 1, 1448.26, 1421.79)">
		<path id="base-3" class="st1" d="M71.7,12L71.7,12c33,0,59.7,26.7,59.7,59.7l0,0c0,33-26.7,59.7-59.7,59.7l0,0
			c-33,0-59.7-26.7-59.7-59.7l0,0C12,38.7,38.7,12,71.7,12z"/>
	</g>
</g>
<g id="Layer_1_00000065789028727076930600000015137194435214976182_">
</g>
<g>
	<path class="st0" d="M87.5,95.4H74L72.5,94l3.5-3.5c0.4-0.4,0.6-0.9,0.4-1.5c-0.1-0.5-0.5-1-1-1.2L57,80.9
		c-0.6-0.2-1.4-0.1-1.8,0.4c-0.5,0.5-0.6,1.2-0.4,1.8l4.6,12.2H40.8c-1.8,0-3.3-1.5-3.3-3.3V69.5c0-0.6-0.5-1.1-1.1-1.1
		c-0.6,0-1.1,0.5-1.1,1.1v22.7c0,3,2.4,5.4,5.4,5.4h19.3l1.5,4.2c0.2,0.5,0.6,0.9,1.2,1c0.5,0.1,1.1,0,1.5-0.4l3.5-3.5l3.6,3.6
		c0.3,0.3,0.8,0.5,1.2,0.5c0.4,0,0.9-0.2,1.2-0.5l2.2-2.2c0.7-0.7,0.7-1.8,0-2.5c0,0,0,0,0,0l-0.1-0.1h11.4c0.6,0,1.1-0.5,1.1-1.1
		C88.5,95.9,88,95.4,87.5,95.4L87.5,95.4z M72.7,100.6l-4.1-4.1c-0.2-0.2-0.5-0.3-0.7-0.3c-0.3,0-0.5,0.1-0.7,0.3l-3.7,3.7L57,83.2
		l17.1,6.4l-3.7,3.7c-0.4,0.4-0.4,1.1,0,1.5l4.1,4.1L72.7,100.6z"/>
	<path class="st0" d="M101.7,42.8H98c-0.6,0-1.1,0.5-1.1,1.1c0,0.6,0.5,1.1,1.1,1.1h3.7c1.8,0,3.3,1.5,3.3,3.3v6.6H37.5v-6.6
		c0-1.8,1.5-3.3,3.3-3.3h52.4c0.6,0,1.1-0.5,1.1-1.1c0-0.6-0.5-1.1-1.1-1.1H40.8c-3,0-5.4,2.4-5.4,5.4v16.5c0,0.6,0.5,1.1,1.1,1.1
		c0.6,0,1.1-0.5,1.1-1.1v-7.9H105v35.2c0,1.8-1.5,3.3-3.3,3.3h-9.2c-0.6,0-1.1,0.5-1.1,1.1c0,0.6,0.5,1.1,1.1,1.1h9.2
		c3,0,5.4-2.4,5.4-5.4V48.2C107.1,45.2,104.6,42.8,101.7,42.8z"/>
	<path class="st0" d="M42.3,49.9c0,1.1,0.9,1.9,1.9,1.9s1.9-0.9,1.9-1.9c0-1.1-0.9-1.9-1.9-1.9C43.2,47.9,42.3,48.8,42.3,49.9z"/>
	<path class="st0" d="M48.3,49.9c0,1.1,0.9,1.9,1.9,1.9s1.9-0.9,1.9-1.9c0-1.1-0.9-1.9-1.9-1.9S48.3,48.8,48.3,49.9z"/>
	<path class="st0" d="M54.3,49.9c0,1.1,0.9,1.9,1.9,1.9s1.9-0.9,1.9-1.9c0-1.1-0.9-1.9-1.9-1.9S54.3,48.8,54.3,49.9z"/>
	<path class="st0" d="M48.2,80L48.2,80c0.4,0,0.8-0.3,1-0.7l2.6-7.3l2.5,7.3c0.1,0.4,0.5,0.7,1,0.7h0c0.4,0,0.8-0.3,1-0.7l3.5-10.1
		c0.2-0.5-0.1-1.1-0.6-1.3c-0.5-0.2-1.1,0.1-1.3,0.6l-2.5,7.2l-2.5-7.3c-0.3-0.9-1.7-0.9-2,0l-2.6,7.3l-2.5-7.2
		c-0.2-0.5-0.8-0.8-1.3-0.7c-0.5,0.2-0.8,0.8-0.7,1.3l3.5,10C47.4,79.7,47.8,80,48.2,80L48.2,80z"/>
	<path class="st0" d="M67.7,80L67.7,80c0.4,0,0.8-0.3,1-0.7l2.6-7.3l2.5,7.3c0.1,0.4,0.5,0.7,1,0.7h0c0.4,0,0.8-0.3,1-0.7l3.5-10.1
		c0.2-0.5-0.1-1.1-0.6-1.3c-0.5-0.2-1.1,0.1-1.3,0.6l-2.5,7.2l-2.5-7.3c-0.3-0.9-1.7-0.9-2,0l-2.6,7.3l-2.5-7.2
		c-0.2-0.5-0.8-0.8-1.3-0.7c-0.5,0.2-0.8,0.8-0.7,1.3l3.5,10C66.8,79.7,67.2,80,67.7,80L67.7,80z"/>
	<path class="st0" d="M86.8,80L86.8,80c0.4,0,0.8-0.3,1-0.7l2.6-7.3l2.5,7.3c0.1,0.4,0.5,0.7,1,0.7h0c0.4,0,0.8-0.3,1-0.7l3.5-10.1
		c0.2-0.5-0.1-1.1-0.6-1.3c-0.5-0.2-1.1,0.1-1.3,0.6l-2.5,7.2l-2.5-7.3c-0.3-0.9-1.7-0.9-2,0l-2.6,7.3l-2.5-7.2
		c-0.2-0.5-0.8-0.8-1.3-0.7c-0.5,0.2-0.8,0.8-0.7,1.3l3.5,10C85.9,79.7,86.3,80,86.8,80L86.8,80z"/>
</g>
</svg>
