<?xml version="1.0" encoding="utf-8"?>
<!-- Generator: Adobe Illustrator 28.2.0, SVG Export Plug-In . SVG Version: 6.00 Build 0)  -->
<svg version="1.1" id="Layer_1" xmlns="http://www.w3.org/2000/svg" xmlns:xlink="http://www.w3.org/1999/xlink" x="0px" y="0px"
	 viewBox="0 0 16.8 16.8" style="enable-background:new 0 0 16.8 16.8;" xml:space="preserve">
<style type="text/css">
	.st0{fill-rule:evenodd;clip-rule:evenodd;fill:#145FFF;}
</style>
<path id="calendar-dates" class="st0" d="M15.1,5V2.5h-1.7v0.8h-1.7V2.5H5v0.8H3.4V2.5H1.7V5H15.1z M15.1,6.7H1.7v8.4h13.5V6.7z
	 M13.5,0.8h1.7c0.9,0,1.7,0.8,1.7,1.7c0,0,0,0,0,0v12.6c0,0.9-0.8,1.7-1.7,1.7c0,0,0,0,0,0H1.7c-0.9,0-1.7-0.8-1.7-1.7l0,0V2.5
	c0-0.9,0.8-1.7,1.7-1.7c0,0,0,0,0,0h1.7V0H5v0.8h6.7V0h1.7V0.8z M5.9,10.1H4.2V8.4h1.7V10.1z M9.3,10.1H7.6V8.4h1.7V10.1z
	 M12.6,10.1h-1.7V8.4h1.7V10.1z M5.9,13.5H4.2v-1.7h1.7V13.5z M9.3,13.5H7.6v-1.7h1.7V13.5z"/>
</svg>
