<?xml version="1.0" encoding="utf-8"?>
<!-- Generator: Adobe Illustrator 27.9.4, SVG Export Plug-In . SVG Version: 9.03 Build 54784)  -->
<svg version="1.1" id="Layer_1" xmlns="http://www.w3.org/2000/svg" xmlns:xlink="http://www.w3.org/1999/xlink" x="0px" y="0px"
	 width="100px" height="100px" viewBox="0 0 100 100" style="enable-background:new 0 0 100 100;" xml:space="preserve">
<style type="text/css">
	.st0{fill:none;stroke:#145FFF;stroke-width:3;stroke-miterlimit:10;}
	.st1{enable-background:new    ;}
	.st2{fill:#145FFF;}
</style>
<g id="icon">
	<path class="st0" d="M77.5,98.6h-55C11,98.6,1.6,89.2,1.6,77.7V22.6C1.6,11.1,11,1.7,22.5,1.7h55.1c11.5,0,20.9,9.4,20.9,20.9v55.1
		C98.4,89.3,89.1,98.6,77.5,98.6z"/>
</g>
<g class="st1">
	<path class="st2" d="M26.7,64.2V36.3h20.7V41H32.3v6.2h14v4.7h-14v7.6h15.6v4.7H26.7z"/>
	<path class="st2" d="M52.8,64.2V36.3h5.5l11.4,18.6V36.3h5.2v27.9h-5.7L58,46v18.2H52.8z"/>
</g>
</svg>
