<svg xmlns="http://www.w3.org/2000/svg" width="59.993" height="60.035" viewBox="0 0 59.993 60.035">
  <path id="Icon1" d="M46.148,31.682A16.291,16.291,0,0,1,31.7,46.207a.56.56,0,0,0-.567.553V58.9a1.134,1.134,0,1,1-2.269,0V54.5a.613.613,0,0,0-.567-.567A23.89,23.89,0,0,1,6.966,35.579a1.133,1.133,0,0,1,2.174-.641c.007.024.014.05.019.075a21.544,21.544,0,0,0,19.064,16.58c.147.073.287,0,.427-.14a.427.427,0,0,0,.213-.427V46.773a.56.56,0,0,0-.553-.567H28.3a16.489,16.489,0,0,1-9.772-4.666,16.318,16.318,0,0,1-4.666-9.849.593.593,0,0,0-.567-.5H1.166a1.166,1.166,0,0,1,0-2.333H5.772a.6.6,0,0,0,.567-.5A24.15,24.15,0,0,1,24.046,6.525,1.173,1.173,0,0,1,24.612,8.8,21.624,21.624,0,0,0,8.666,28.209a.547.547,0,0,0,.567.664h4.033a.593.593,0,0,0,.567-.5A16.291,16.291,0,0,1,28.3,13.822a.56.56,0,0,0,.567-.553V1.132a1.134,1.134,0,0,1,2.269,0V14.884a1.153,1.153,0,0,1-1.1,1.206h-.111C17.6,16.09,11.44,31.181,20.152,39.9s23.584,2.48,23.8-9.885a1.12,1.12,0,0,1,1.107-1.133H58.827a1.166,1.166,0,1,1,0,2.333H54.293a.547.547,0,0,0-.567.5,24.091,24.091,0,0,1-18.2,21.633,1.161,1.161,0,0,1-.5-2.269A21.664,21.664,0,0,0,51.391,31.821a.547.547,0,0,0-.567-.664h-4.11a.593.593,0,0,0-.567.5Zm9.178-18.851-8.192,8.145a1.119,1.119,0,0,1-.775.36H40.9a.953.953,0,0,0-.42.14l-9.706,9.779a1.153,1.153,0,0,1-1.633-1.626l9.706-9.785a.387.387,0,0,0,.213-.353V14.018a1.167,1.167,0,0,1,.354-.847L47.56,5.034a1.153,1.153,0,0,1,2,.775v4.466a.609.609,0,0,0,.567.569H54.52a1.166,1.166,0,0,1,.847,2Zm-9.332,6,4.747-4.746a.573.573,0,0,0-.354-.993h-2a1.18,1.18,0,0,1-1.206-1.133V10.018a.587.587,0,0,0-.993-.42l-4.666,4.746a.626.626,0,0,0-.213.427v3.686a.56.56,0,0,0,.553.567h3.766c.147,0,.287,0,.354-.147Zm-6.375,11.2a9.632,9.632,0,1,1-9.643-9.619H30a1.14,1.14,0,0,1,0,2.273,7.332,7.332,0,1,0,0,14.664c4.253,0,7.086-3.187,7.292-7.333a1.173,1.173,0,0,1,2.344-.1,1.185,1.185,0,0,1,0,.166Z" transform="translate(0 0.002)" fill="#fff"/>
</svg>
