<svg xmlns="http://www.w3.org/2000/svg" width="60" height="60.001" viewBox="0 0 60 60.001">
  <g id="Icon3" transform="translate(-0.004)">
    <path id="Path_107496" data-name="Path 107496" d="M59.289,24.048,52,14.331a3.033,3.033,0,0,0-2.412-1.206H10.417A3.037,3.037,0,0,0,8,14.331L.717,24.048A3.575,3.575,0,0,0,.9,28.556L27.742,58.981a3.016,3.016,0,0,0,4.522,0L59.11,28.556a3.574,3.574,0,0,0,.179-4.508Zm-1.407,1.265H43.158l7.462-9.7C58.3,25.853,57.807,25.188,57.883,25.313ZM30.328,57.888a.34.34,0,0,1-.648,0l-9.649-30.7H39.976ZM33.23,15l6.346,10.313H20.431L26.777,15Zm2.2,0H48.726L41.34,24.6ZM18.667,24.6,11.281,15H24.576Zm-9.28-8.988,7.462,9.7H2.124c.076-.126-.414.536,7.263-9.7ZM2.2,27.188H18.065l8.783,27.945C1.178,26.041,2.279,27.295,2.2,27.188ZM33.159,55.133l8.783-27.945H57.805c-.077.106,1.5-1.69-24.646,27.945ZM30,8.438a.938.938,0,0,0,.938-.938V.938a.938.938,0,1,0-1.875,0V7.5A.938.938,0,0,0,30,8.438ZM21.771,9.961A.937.937,0,0,0,23.235,8.79L19.485,4.1a.938.938,0,1,0-1.464,1.171Zm15.147.146a.937.937,0,0,0,1.318-.146l3.75-4.688A.938.938,0,1,0,40.521,4.1L36.771,8.79A.938.938,0,0,0,36.918,10.107Z" transform="translate(0)" fill="#fff"/>
  </g>
</svg>
