<?xml version="1.0" encoding="utf-8"?>
<!-- Generator: Adobe Illustrator 28.2.0, SVG Export Plug-In . SVG Version: 6.00 Build 0)  -->
<svg version="1.1" id="Layer_1" xmlns="http://www.w3.org/2000/svg" xmlns:xlink="http://www.w3.org/1999/xlink" x="0px" y="0px"
	 viewBox="0 0 19.5 19.5" style="enable-background:new 0 0 19.5 19.5;" xml:space="preserve">
<style type="text/css">
	.st0{fill:none;stroke:#145FFF;stroke-miterlimit:10;}
</style>
<g id="Icon" transform="translate(0.225 0.225)">
	<path id="Path_75" class="st0" d="M18.5,9.5c0,5-4,9-9,9s-9-4-9-9s4-9,9-9S18.5,4.6,18.5,9.5z"/>
	<path id="Path_76" class="st0" d="M14.4,9.5c0,5-2.2,9-4.9,9s-4.9-4-4.9-9s2.2-9,4.9-9S14.4,4.6,14.4,9.5z"/>
	<path id="Path_77" class="st0" d="M9.5,0.5v18"/>
	<path id="Path_78" class="st0" d="M18.5,9.5h-18"/>
	<path id="Path_79" class="st0" d="M16.4,3.7c-2.1,1.2-4.5,1.8-6.9,1.7C7.1,5.5,4.8,4.9,2.7,3.7"/>
	<path id="Path_80" class="st0" d="M2.7,15.3c2.1-1.2,4.5-1.8,6.9-1.7c2.4-0.1,4.8,0.5,6.9,1.7"/>
</g>
</svg>
