<svg id="Pattern" xmlns="http://www.w3.org/2000/svg" xmlns:xlink="http://www.w3.org/1999/xlink" width="579.317" height="125.482" viewBox="0 0 579.317 125.482">
  <defs>
    <linearGradient id="linear-gradient" x1="0.009" y1="1" x2="0.991" y2="1" gradientUnits="objectBoundingBox">
      <stop offset="0" stop-color="#7a6af7"/>
      <stop offset="1" stop-color="#7a6af7" stop-opacity="0.251"/>
    </linearGradient>
    <linearGradient id="linear-gradient-2" x1="0.044" x2="0.956" y2="1" gradientUnits="objectBoundingBox">
      <stop offset="0" stop-color="#145fff"/>
      <stop offset="1" stop-color="#145fff" stop-opacity="0.251"/>
    </linearGradient>
    <linearGradient id="linear-gradient-3" y1="0.025" x2="0.945" y2="1" gradientUnits="objectBoundingBox">
      <stop offset="0" stop-color="#35ccde"/>
      <stop offset="1" stop-color="#35ccde" stop-opacity="0.251"/>
    </linearGradient>
  </defs>
  <path id="Purple" d="M1135.135,1016.172h361.417l1.8-13.936a13.673,13.673,0,0,0-12.538-15.391l-343.61-25.769Z" transform="translate(-919.155 -890.692)" fill="url(#linear-gradient)"/>
  <path id="Blue" d="M773.448,950.378l6.125,51.851H940.956l7.074-55.1-159.981-12c-.351-.026-.7-.039-1.047-.039a13.673,13.673,0,0,0-13.554,15.278" transform="translate(-724.976 -876.748)" fill="url(#linear-gradient-2)"/>
  <path id="Aqua" d="M668.929,809.143V934.625h54.6L717.4,882.774A13.673,13.673,0,0,1,732,867.535l159.981,12,3.549-27.687a13.674,13.674,0,0,0-11.832-15.3Z" transform="translate(-668.929 -809.143)" fill="url(#linear-gradient-3)"/>
</svg>
