<?xml version="1.0" encoding="utf-8"?>
<!-- Generator: Adobe Illustrator 27.9.4, SVG Export Plug-In . SVG Version: 9.03 Build 54784)  -->
<svg version="1.1" id="Layer_1" xmlns="http://www.w3.org/2000/svg" xmlns:xlink="http://www.w3.org/1999/xlink" x="0px" y="0px"
	 width="100px" height="100px" viewBox="0 0 100 100" style="enable-background:new 0 0 100 100;" xml:space="preserve">
<style type="text/css">
	.st0{fill:#145FFF;}
	.st1{fill:none;stroke:#145FFF;stroke-width:3;stroke-miterlimit:10;}
</style>
<g id="icon">
	<path class="st0" d="M67.4,65.5c8.7-10,8.3-25.1-1.2-34.6c-4.8-4.8-11.2-7.4-18-7.4S35,26.1,30.3,30.9c-9.9,9.9-9.9,26,0,35.9
		c4.9,4.9,11.4,7.4,18,7.4c6,0,11.9-2.1,16.7-6.3l13.5,13.5c0.3,0.3,0.8,0.5,1.2,0.5c0.4,0,0.9-0.2,1.2-0.5c0.7-0.7,0.7-1.8,0-2.4
		L67.4,65.5z M63.8,64.3c-8.6,8.6-22.5,8.6-31,0s-8.6-22.5,0-31c4.1-4.1,9.7-6.4,15.5-6.4s11.4,2.3,15.5,6.4
		C72.3,41.8,72.3,55.8,63.8,64.3z"/>
	<path class="st1" d="M77.5,98.6h-55C11,98.6,1.6,89.2,1.6,77.7V22.6C1.6,11.1,11,1.7,22.5,1.7h55.1c11.5,0,20.9,9.4,20.9,20.9v55.1
		C98.4,89.3,89.1,98.6,77.5,98.6z"/>
</g>
</svg>
