<?xml version="1.0" encoding="utf-8"?>
<!-- Generator: Adobe Illustrator 28.2.0, SVG Export Plug-In . SVG Version: 6.00 Build 0)  -->
<svg version="1.1" id="Layer_1" xmlns="http://www.w3.org/2000/svg" xmlns:xlink="http://www.w3.org/1999/xlink" x="0px" y="0px"
	 viewBox="0 0 18 18" style="enable-background:new 0 0 18 18;" xml:space="preserve">
<style type="text/css">
	.st0{fill:#145FFF;}
</style>
<g>
	<g id="_x34__4_">
		<g>
			<path class="st0" d="M17.6,16.8l-4.5-4.5c1.2-1.3,1.9-3,1.9-4.9c0-4-3.3-7.3-7.4-7.3S0.2,3.5,0.2,7.5s3.3,7.3,7.4,7.3
				c1.8,0,3.4-0.6,4.6-1.6l4.5,4.5c0.2,0.2,0.6,0.2,0.8,0C17.8,17.4,17.8,17,17.6,16.8z M7.6,13.6c-3.5,0-6.2-2.8-6.2-6.1
				s2.8-6.1,6.2-6.1c3.5,0,6.2,2.8,6.2,6.1S11.1,13.6,7.6,13.6z"/>
		</g>
	</g>
</g>
</svg>
