<svg xmlns="http://www.w3.org/2000/svg" width="36" height="36" viewBox="0 0 36 36">
  <g id="_3" data-name="3" transform="translate(-373 -133)">
    <rect id="Circle" width="36" height="36" rx="18" transform="translate(373 133)" fill="#fff"/>
    <path id="Icon" d="M391,145a3.009,3.009,0,0,1,3,3c0,1.575-1.575,4.125-3,5.925-1.425-1.875-3-4.35-3-5.925A3.009,3.009,0,0,1,391,145Zm0-1.5a4.513,4.513,0,0,0-4.5,4.5c0,3.375,4.5,8.25,4.5,8.25s4.5-4.95,4.5-8.25A4.513,4.513,0,0,0,391,143.5Zm0,3a1.5,1.5,0,1,0,1.5,1.5A1.5,1.5,0,0,0,391,146.5Zm6,9.75c0,1.65-2.7,3-6,3s-6-1.35-6-3c0-.975.9-1.8,2.325-2.4l.45.675c-.75.375-1.275.825-1.275,1.35,0,1.05,2.025,1.875,4.5,1.875s4.5-.825,4.5-1.875c0-.525-.525-.975-1.35-1.35l.45-.675C396.1,154.45,397,155.275,397,156.25Z" fill="#145fff"/>
  </g>
</svg>
