<svg xmlns="http://www.w3.org/2000/svg" xmlns:xlink="http://www.w3.org/1999/xlink" width="1920" height="250" viewBox="0 0 1920 250">
  <defs>
    <clipPath id="clip-path">
      <rect id="BG" width="1920" height="250" transform="translate(-50 225.273)" fill="#7a6af7"/>
    </clipPath>
  </defs>
  <g id="Pattern" transform="translate(50 -225.273)" opacity="0.25" clip-path="url(#clip-path)">
    <path id="_3" data-name="3" d="M.484,600.864V354.135a18.276,18.276,0,0,1,23.059-17.683L482.825,459.817a18.309,18.309,0,0,1,0,35.366L23.543,618.547A18.274,18.274,0,0,1,.484,600.864M0,354.135V600.864a18.759,18.759,0,0,0,23.669,18.151L482.951,495.65a18.794,18.794,0,0,0,0-36.3L23.669,335.984A18.761,18.761,0,0,0,0,354.135" transform="translate(0 -127.226)" fill="none" stroke="#fff" stroke-width="1"/>
    <path id="_2" data-name="2" d="M220.832,681.969V141.927c.018-12.6,8.726-21.728,18.321-21.729a15.971,15.971,0,0,1,8.422,2.469L686.593,392.689c6.587,4.052,9.874,11.65,9.876,19.259s-3.289,15.208-9.876,19.26L247.575,701.228a15.959,15.959,0,0,1-8.422,2.469c-9.6,0-18.3-9.128-18.321-21.728m-.485-540.042V681.969c0,12.932,8.956,22.28,18.806,22.3a16.392,16.392,0,0,0,8.645-2.532L686.815,431.717c6.755-4.153,10.139-11.967,10.137-19.769s-3.382-15.616-10.137-19.769L247.8,122.158a16.4,16.4,0,0,0-8.646-2.534c-9.851.022-18.8,9.37-18.806,22.3" transform="translate(-113.603 -61.674)" fill="none" stroke="#fff" stroke-width="1"/>
    <path id="_1" data-name="1" d="M441.173,675.114V25.433C441.2,10.823,451.6.559,462.833.557a19.434,19.434,0,0,1,11.921,4.216L898.3,329.614c6.411,4.917,9.612,12.785,9.613,20.66s-3.2,15.743-9.613,20.66L474.754,695.773a19.434,19.434,0,0,1-11.921,4.216c-11.23,0-21.638-10.266-21.659-24.876M462.833,0c-11.481.026-22.142,10.5-22.143,25.433V675.114c0,14.936,10.663,25.407,22.144,25.433a19.877,19.877,0,0,0,12.19-4.309L898.567,371.4c6.551-5.023,9.83-13.077,9.829-21.123s-3.278-16.1-9.829-21.123L475.023,4.31A19.875,19.875,0,0,0,462.833,0Z" transform="translate(-227.205)" fill="none" stroke="#fff" stroke-width="1"/>
  </g>
</svg>
