<svg id="Logo" xmlns="http://www.w3.org/2000/svg" xmlns:xlink="http://www.w3.org/1999/xlink" width="304" height="66.024" viewBox="0 0 304 66.024">
  <defs>
    <clipPath id="clip-path">
      <rect id="Rectangle_13828" data-name="Rectangle 13828" width="304" height="66.024" fill="none"/>
    </clipPath>
    <clipPath id="clip-path-3">
      <rect id="Rectangle_13816" data-name="Rectangle 13816" width="102.765" height="30.598" fill="none"/>
    </clipPath>
    <clipPath id="clip-path-4">
      <path id="Path_107397" data-name="Path 107397" d="M326.633,50.317,278.5,37.583a2.149,2.149,0,0,0-1.1,0L229.261,50.317a2.147,2.147,0,0,1-2.7-2.076v-26.3a2.146,2.146,0,0,1,2.693-2.076L277.4,32.524a2.145,2.145,0,0,0,1.092,0l48.144-12.661a2.147,2.147,0,0,1,2.693,2.076v26.3a2.147,2.147,0,0,1-2.7,2.076" transform="translate(-226.565 -19.791)" fill="none"/>
    </clipPath>
    <linearGradient id="linear-gradient" x1="-1.958" y1="1.563" x2="-1.95" y2="1.563" gradientUnits="objectBoundingBox">
      <stop offset="0" stop-color="#82a9d9"/>
      <stop offset="0.184" stop-color="#6988c3"/>
      <stop offset="0.379" stop-color="#556eb1"/>
      <stop offset="0.578" stop-color="#475ba5"/>
      <stop offset="0.782" stop-color="#3e4f9d"/>
      <stop offset="1" stop-color="#3c4c9b"/>
    </linearGradient>
    <clipPath id="clip-path-5">
      <rect id="Rectangle_13818" data-name="Rectangle 13818" width="79.638" height="53.326" fill="none"/>
    </clipPath>
    <clipPath id="clip-path-6">
      <path id="Path_107398" data-name="Path 107398" d="M316.144,60.179,280.432,41.857a2.144,2.144,0,0,0-1.96,0L242.759,60.179a2.147,2.147,0,0,1-3.126-1.911V9.242a2.146,2.146,0,0,1,3.126-1.91l35.712,18.322a2.144,2.144,0,0,0,1.96,0L316.144,7.333a2.147,2.147,0,0,1,3.127,1.91V58.268a2.147,2.147,0,0,1-3.127,1.911" transform="translate(-239.633 -7.093)" fill="none"/>
    </clipPath>
    <linearGradient id="linear-gradient-2" x1="-2.673" y1="1.109" x2="-2.661" y2="1.109" gradientUnits="objectBoundingBox">
      <stop offset="0" stop-color="#00b0de"/>
      <stop offset="0.034" stop-color="#07b1dd"/>
      <stop offset="0.218" stop-color="#29b9dc"/>
      <stop offset="0.405" stop-color="#43bfdc"/>
      <stop offset="0.596" stop-color="#56c3db"/>
      <stop offset="0.792" stop-color="#62c6db"/>
      <stop offset="1" stop-color="#66c7db"/>
    </linearGradient>
    <clipPath id="clip-path-7">
      <rect id="Rectangle_13820" data-name="Rectangle 13820" width="56.569" height="66.024" fill="none"/>
    </clipPath>
    <clipPath id="clip-path-8">
      <path id="Path_107399" data-name="Path 107399" d="M305.97,65.662l-24.976-16.7-24.922,16.7a2.147,2.147,0,0,1-3.336-1.788V2.151A2.147,2.147,0,0,1,256.079.368l24.942,16.721L305.963.368a2.147,2.147,0,0,1,3.342,1.784V63.874a2.147,2.147,0,0,1-3.335,1.788" transform="translate(-252.736 0)" fill="none"/>
    </clipPath>
    <linearGradient id="linear-gradient-3" x1="-3.968" y1="0.991" x2="-3.953" y2="0.991" gradientUnits="objectBoundingBox">
      <stop offset="0" stop-color="#4896d3"/>
      <stop offset="0.067" stop-color="#408ccb"/>
      <stop offset="0.289" stop-color="#2a72b7"/>
      <stop offset="0.517" stop-color="#1b5fa8"/>
      <stop offset="0.751" stop-color="#12539f"/>
      <stop offset="1" stop-color="#0f509d"/>
    </linearGradient>
  </defs>
  <g id="Group_48855" data-name="Group 48855" clip-path="url(#clip-path)">
    <g id="Group_48854" data-name="Group 48854" transform="translate(0 0)">
      <g id="Group_48853" data-name="Group 48853" clip-path="url(#clip-path)">
        <g id="Group_48842" data-name="Group 48842" transform="translate(201.235 17.578)" style="mix-blend-mode: multiply;isolation: isolate">
          <g id="Group_48841" data-name="Group 48841">
            <g id="Group_48840" data-name="Group 48840" clip-path="url(#clip-path-3)">
              <g id="Group_48839" data-name="Group 48839" transform="translate(0 0)">
                <g id="Group_48838" data-name="Group 48838" clip-path="url(#clip-path-4)">
                  <rect id="Rectangle_13815" data-name="Rectangle 13815" width="102.765" height="31.173" transform="translate(0 -0.287)" fill="url(#linear-gradient)"/>
                </g>
              </g>
            </g>
          </g>
        </g>
        <g id="Group_48847" data-name="Group 48847" transform="translate(212.842 6.3)" style="mix-blend-mode: multiply;isolation: isolate">
          <g id="Group_48846" data-name="Group 48846">
            <g id="Group_48845" data-name="Group 48845" clip-path="url(#clip-path-5)">
              <g id="Group_48844" data-name="Group 48844" transform="translate(0 0)">
                <g id="Group_48843" data-name="Group 48843" clip-path="url(#clip-path-6)">
                  <rect id="Rectangle_13817" data-name="Rectangle 13817" width="79.638" height="54.313" transform="translate(0 -0.494)" fill="url(#linear-gradient-2)"/>
                </g>
              </g>
            </g>
          </g>
        </g>
        <g id="Group_48852" data-name="Group 48852" transform="translate(224.48 0)" style="mix-blend-mode: multiply;isolation: isolate">
          <g id="Group_48851" data-name="Group 48851">
            <g id="Group_48850" data-name="Group 48850" clip-path="url(#clip-path-7)">
              <g id="Group_48849" data-name="Group 48849" transform="translate(0 0)">
                <g id="Group_48848" data-name="Group 48848" clip-path="url(#clip-path-8)">
                  <rect id="Rectangle_13819" data-name="Rectangle 13819" width="56.569" height="67.199" transform="translate(0 -0.589)" fill="url(#linear-gradient-3)"/>
                </g>
              </g>
            </g>
          </g>
        </g>
        <path id="Path_107400" data-name="Path 107400" d="M277.833,26.716c-1.973-1.611-2.91-2.462-5.678-4.659,2.876-.52,5.867,1.712,9.348,3.834a52.9,52.9,0,0,1,1.387-6.652,52.638,52.638,0,0,1,1.346,6.416c3.445-2.054,7.515-4.757,10.481-4.154-3.023,2.329-3.576,2.634-7.057,5.161,4.326.88,8.927,3.657,8.374,7.973-2.61-2.609-5.659-3.054-8.439-3.121,3.261,3.444,5.207,6.652,4.588,10.162-1.682-3.523-4.524-5.919-7.359-8.382a52.372,52.372,0,0,1-1.935,14.3,52.39,52.39,0,0,1-1.926-14.566c-2.847,2.55-5.692,5.036-7.368,8.648-.609-3.5,1.531-6.774,4.579-10.168-3.043-.8-7.958,1.815-8.428,3.127-.551-4.223,3.844-7.006,8.086-7.921" transform="translate(-30.152 -2.151)" fill="#fff"/>
        <path id="Path_107401" data-name="Path 107401" d="M312.828,47.9h-.007a56.834,56.834,0,0,0-24.569,8.783l-3.7-2.474,2.385-1.792a31.34,31.34,0,0,1,25.84-4.532Z" transform="translate(-31.813 -5.237)" fill="#fff"/>
        <path id="Path_107402" data-name="Path 107402" d="M281,54.206l-3.732,2.5a56.933,56.933,0,0,0-24.549-8.821,31.339,31.339,0,0,1,25.842,4.532Z" transform="translate(-28.253 -5.237)" fill="#fff"/>
        <path id="Path_107403" data-name="Path 107403" d="M4.841,23.437a.934.934,0,0,0,0,1.869.935.935,0,1,0,0-1.869" transform="translate(-0.438 -2.62)" fill="#0d1d44"/>
        <path id="Path_107404" data-name="Path 107404" d="M8.676,24.363a.944.944,0,0,0-.941-.926.934.934,0,1,0,0,1.869.948.948,0,0,0,.941-.942" transform="translate(-0.759 -2.62)" fill="#0d1d44"/>
        <path id="Path_107405" data-name="Path 107405" d="M48.156,13.069a.934.934,0,1,0-.942-.941.948.948,0,0,0,.942.941" transform="translate(-5.278 -1.252)" fill="#0d1d44"/>
        <path id="Path_107406" data-name="Path 107406" d="M53.089,20.223H65.363v-3.5A3.73,3.73,0,0,0,60.4,13.167l-3.873,1.256V9.8H55v8.88H44.849a1.228,1.228,0,0,1-1.2-1.107v-3.02H42.1v3.006a1.117,1.117,0,0,1-1.107,1.121H13.775l.015-5.547H9.858A2.329,2.329,0,0,0,7.5,15.454v3.289H4A2.335,2.335,0,0,1,1.68,16.4V13.824H.11V16.4A3.9,3.9,0,0,0,4,20.283H9.066V15.454a.8.8,0,0,1,.792-.777H12.25l-.03,5.532h.853v.015h28.1a2.289,2.289,0,0,0,1.794-.868,2.473,2.473,0,0,0,1.884.868h8.241Zm3.438-4.2,4.321-1.406a2.3,2.3,0,0,1,2.661.927,2.193,2.193,0,0,1,.314,1.181v1.958h-7.3Z" transform="translate(-0.012 -1.096)" fill="#0d1d44"/>
        <path id="Path_107407" data-name="Path 107407" d="M92.922,20.223h3.154V9.8h-1.54v8.881H82.054V13.136h-3.26a3.458,3.458,0,0,0-3.484,3.484,3.505,3.505,0,0,0,3.484,3.6h1.66l-.015.224a1.761,1.761,0,0,1-.479,1.061c-.9.822-2.287.822-3.767.807l-.016,1.54c2.483,0,3.708-.21,4.8-1.226a3.384,3.384,0,0,0,1.076-2.407H92.922ZM80.5,18.683h-1.7a1.981,1.981,0,0,1-1.958-2.063,1.921,1.921,0,0,1,1.958-1.928h1.7Z" transform="translate(-8.42 -1.096)" fill="#0d1d44"/>
        <rect id="Rectangle_13821" data-name="Rectangle 13821" width="1.539" height="10.465" transform="translate(90.288 8.663)" fill="#0d1d44"/>
        <path id="Path_107408" data-name="Path 107408" d="M111.5,11.655a.934.934,0,1,0-.942-.942.948.948,0,0,0,.942.942" transform="translate(-12.361 -1.094)" fill="#0d1d44"/>
        <path id="Path_107409" data-name="Path 107409" d="M112.027,20.178l.015-.657a1.853,1.853,0,0,0,1.39.568h40.256v-3.3a3.8,3.8,0,0,0-3.813-3.812h-2.99L149.4,9.5l-1.271-.9-3.02,4.216,1.122,1.7h3.557a2.357,2.357,0,0,1,2.363,2.362v1.66H113.432a1.4,1.4,0,0,1-1.39-1.391V13H110.5v6.832c0,1.569-.838,2.033-2.347,2.332l.552,1.465a3.637,3.637,0,0,0,3.319-3.453" transform="translate(-12.092 -0.962)" fill="#0d1d44"/>
        <path id="Path_107410" data-name="Path 107410" d="M164.134,20.313l.015-.658a1.915,1.915,0,0,0,1.391.568h10.091a2.375,2.375,0,0,0,2.048-1.181,3.111,3.111,0,0,0,2.527,1.181,3.035,3.035,0,0,0,2.392-1.151,2.075,2.075,0,0,0,1.884,1.151h8.482V9.8h-1.54v8.88h-6.942a.871.871,0,0,1-.867-.882V16.441a3.377,3.377,0,0,0-3.409-3.3h-3.528v4.5a1,1,0,0,1-1.047,1.046H165.54a1.4,1.4,0,0,1-1.391-1.39V13.136h-1.54v6.833c0,1.569-1.046,2.078-2.347,2.332l.553,1.466a3.649,3.649,0,0,0,3.318-3.453m14.1-5.637h1.854a1.837,1.837,0,0,1,1.974,1.794v.344a1.877,1.877,0,0,1-1.974,1.869,1.844,1.844,0,0,1-1.854-1.808Z" transform="translate(-17.917 -1.096)" fill="#0d1d44"/>
        <rect id="Rectangle_13822" data-name="Rectangle 13822" width="1.54" height="10.465" transform="translate(177.678 8.663)" fill="#0d1d44"/>
        <path id="Path_107411" data-name="Path 107411" d="M2.138,35.608a.947.947,0,0,0,.942.941.934.934,0,1,0-.942-.941" transform="translate(-0.239 -3.877)" fill="#0d1d44"/>
        <path id="Path_107412" data-name="Path 107412" d="M5.909,34.682a.934.934,0,0,0,0,1.869.935.935,0,1,0,0-1.869" transform="translate(-0.557 -3.877)" fill="#0d1d44"/>
        <path id="Path_107413" data-name="Path 107413" d="M22.014,47.777a.934.934,0,1,0,.942.927.944.944,0,0,0-.942-.927" transform="translate(-2.356 -5.341)" fill="#0d1d44"/>
        <path id="Path_107414" data-name="Path 107414" d="M24.894,47.777a.934.934,0,0,0,0,1.869.935.935,0,1,0,0-1.869" transform="translate(-2.68 -5.341)" fill="#0d1d44"/>
        <path id="Path_107415" data-name="Path 107415" d="M32.941,47.693a.935.935,0,1,0,.957.927.958.958,0,0,0-.957-.927" transform="translate(-3.579 -5.332)" fill="#0d1d44"/>
        <path id="Path_107416" data-name="Path 107416" d="M40.026,47.777a.934.934,0,1,0,.942.927.944.944,0,0,0-.942-.927" transform="translate(-4.37 -5.341)" fill="#0d1d44"/>
        <path id="Path_107417" data-name="Path 107417" d="M42.906,47.777a.934.934,0,0,0,0,1.869.935.935,0,1,0,0-1.869" transform="translate(-4.693 -5.341)" fill="#0d1d44"/>
        <path id="Path_107418" data-name="Path 107418" d="M47.82,35.558a.955.955,0,0,0-.941-.927.935.935,0,1,0,.941.927" transform="translate(-5.136 -3.872)" fill="#0d1d44"/>
        <path id="Path_107419" data-name="Path 107419" d="M49.707,34.631a.935.935,0,1,0,.957.927.958.958,0,0,0-.957-.927" transform="translate(-5.454 -3.872)" fill="#0d1d44"/>
        <path id="Path_107420" data-name="Path 107420" d="M42.595,43.813H39.005a1.226,1.226,0,0,1-1.2-1.106v-3.2H36.255v3.184a1.114,1.114,0,0,1-1.092,1.121H32.852V42.065a3.765,3.765,0,0,0-3.778-3.778H26.112l-.652,1.541h3.525a2.336,2.336,0,0,1,2.34,2.34v1.644H23.005a1.226,1.226,0,0,1-1.194-1.106v-3.2H20.256v3.184a1.113,1.113,0,0,1-1.092,1.121H7.939a.973.973,0,0,1-1.047-1.046l-.014-4.5H3.424A3.272,3.272,0,0,0,0,41.615v.4a3.4,3.4,0,0,0,3.424,3.334,3.106,3.106,0,0,0,2.451-1.2,2.4,2.4,0,0,0,2.063,1.2h11.39a2.29,2.29,0,0,0,1.794-.867,2.477,2.477,0,0,0,1.884.867H35.328a2.292,2.292,0,0,0,1.794-.867,2.475,2.475,0,0,0,1.883.867h5.128V38.266H42.595ZM5.337,41.885a1.92,1.92,0,0,1-1.913,1.928A1.9,1.9,0,0,1,1.51,41.959v-.344a1.829,1.829,0,0,1,1.914-1.809l1.913.03Z" transform="translate(0 -4.278)" fill="#0d1d44"/>
        <rect id="Rectangle_13823" data-name="Rectangle 13823" width="1.54" height="10.465" transform="translate(47.244 30.611)" fill="#0d1d44"/>
        <path id="Path_107421" data-name="Path 107421" d="M69.1,36.905a.957.957,0,0,0,.942.941.948.948,0,0,0,.941-.941.936.936,0,0,0-.941-.927.945.945,0,0,0-.942.927" transform="translate(-7.726 -4.022)" fill="#0d1d44"/>
        <path id="Path_107422" data-name="Path 107422" d="M71.947,36.905a.947.947,0,0,0,.941.941.957.957,0,0,0,.941-.941.945.945,0,0,0-.941-.927.934.934,0,0,0-.941.927" transform="translate(-8.044 -4.022)" fill="#0d1d44"/>
        <path id="Path_107423" data-name="Path 107423" d="M83.358,42.394a1.4,1.4,0,0,1-1.51,1.42,1.368,1.368,0,0,1-1.466-1.375V39.687H78.858v2.706a1.412,1.412,0,0,1-1.525,1.42,1.385,1.385,0,0,1-1.466-1.375V39.687H74.343v3.379a.753.753,0,0,1-.762.748h-1.69a1.226,1.226,0,0,1-1.2-1.106v-3.05H69.14v3.035a1.113,1.113,0,0,1-1.092,1.121H61.482a1.4,1.4,0,0,1-1.391-1.39V38.267H58.552V45.1c0,1.569-1.047,2.078-2.348,2.332l.553,1.466a3.65,3.65,0,0,0,3.319-3.453l.014-.658a1.915,1.915,0,0,0,1.391.568h6.731a2.289,2.289,0,0,0,1.794-.868,2.474,2.474,0,0,0,1.884.868h1.69a2.027,2.027,0,0,0,1.689-.912,2.552,2.552,0,0,0,1.973.912,2.864,2.864,0,0,0,2.378-1.107,2.56,2.56,0,0,0,2.228,1.107,2.974,2.974,0,0,0,3.035-2.96V38.267H83.358Z" transform="translate(-6.284 -4.278)" fill="#0d1d44"/>
        <path id="Path_107424" data-name="Path 107424" d="M96.352,43.394H94.139V36.667H92.584l.015,6.727H90.312v1.54h7.58l.014-10.42H96.352Z" transform="translate(-10.097 -3.858)" fill="#0d1d44"/>
        <rect id="Rectangle_13824" data-name="Rectangle 13824" width="1.54" height="10.465" transform="translate(90.143 30.611)" fill="#0d1d44"/>
        <path id="Path_107425" data-name="Path 107425" d="M116.168,37.039a.934.934,0,0,0,.927.941.935.935,0,1,0,0-1.869.932.932,0,0,0-.927.927" transform="translate(-12.988 -4.037)" fill="#0d1d44"/>
        <path id="Path_107426" data-name="Path 107426" d="M113.324,37.039a.934.934,0,0,0,.926.941.935.935,0,1,0,0-1.869.931.931,0,0,0-.926.927" transform="translate(-12.67 -4.037)" fill="#0d1d44"/>
        <path id="Path_107427" data-name="Path 107427" d="M119.121,43.814h-6.638a1.481,1.481,0,0,1-1.495-1.495v-2.5h-1.569v2.5a3.053,3.053,0,0,0,3.064,3.035h8.193V38.267h-1.554Z" transform="translate(-12.233 -4.278)" fill="#0d1d44"/>
        <path id="Path_107428" data-name="Path 107428" d="M152.723,37.685h-2.99l2.511-3.468-1.27-.9-3.021,4.216,1.122,1.7h3.558A2.359,2.359,0,0,1,155,41.6v1.659H126.142V34.35H124.6V44.8h31.933V41.5a3.8,3.8,0,0,0-3.812-3.812" transform="translate(-13.93 -3.725)" fill="#0d1d44"/>
        <rect id="Rectangle_13825" data-name="Rectangle 13825" width="1.54" height="10.465" transform="translate(144.834 30.611)" fill="#0d1d44"/>
        <path id="Path_107429" data-name="Path 107429" d="M186.229,37.981a.935.935,0,1,0,0-1.869.934.934,0,0,0,0,1.869" transform="translate(-20.717 -4.037)" fill="#0d1d44"/>
        <path id="Path_107430" data-name="Path 107430" d="M182.306,37.039a.938.938,0,0,0,.942.941.934.934,0,1,0,0-1.869.935.935,0,0,0-.942.927" transform="translate(-20.382 -4.037)" fill="#0d1d44"/>
        <path id="Path_107431" data-name="Path 107431" d="M185.655,34.346a.935.935,0,0,0-.941-.927.934.934,0,1,0,.941.927" transform="translate(-20.545 -3.736)" fill="#0d1d44"/>
        <path id="Path_107432" data-name="Path 107432" d="M196.146,43.394h-1.974a1.227,1.227,0,0,1-1.2-1.107V34.514h-1.555v7.759a1.113,1.113,0,0,1-1.091,1.121h-1.182a.775.775,0,0,1-.777-.792l-.015-4.755h-1.525V41.93a1.454,1.454,0,0,1-1.555,1.465,1.4,1.4,0,0,1-1.495-1.42V39.268h-1.539V41.93a1.454,1.454,0,0,1-1.555,1.465,1.424,1.424,0,0,1-1.51-1.42V39.268h-1.525V42.6a.8.8,0,0,1-.792.792h-5.5A1.4,1.4,0,0,1,169.964,42V37.847h-1.539V44.68c0,1.569-1.047,2.077-2.348,2.332l.553,1.466a3.648,3.648,0,0,0,3.318-3.453l.015-.658a1.915,1.915,0,0,0,1.391.568h5.5a2.038,2.038,0,0,0,1.72-.927,2.584,2.584,0,0,0,2.033.927A2.837,2.837,0,0,0,183,43.8a2.663,2.663,0,0,0,2.272,1.137,2.8,2.8,0,0,0,2.139-.957,2.034,2.034,0,0,0,1.734.957h1.346a2.291,2.291,0,0,0,1.794-.868,2.476,2.476,0,0,0,1.884.868h3.514V34.514h-1.54Z" transform="translate(-18.567 -3.858)" fill="#0d1d44"/>
        <path id="Path_107433" data-name="Path 107433" d="M5.588,64.079H4.624L1.248,59.516v4.564H.23V57.828h.965L4.57,62.4V57.828H5.588Z" transform="translate(-0.026 -6.465)" fill="#0d1d44"/>
        <path id="Path_107434" data-name="Path 107434" d="M10.778,64.291v-.8a1.567,1.567,0,0,1-1.571.893c-1.054,0-1.617-.58-1.617-1.419,0-1.2,1.295-1.581,3.063-1.313l-.009-.286c0-.6-.456-.857-1-.857a1.6,1.6,0,0,0-1.25.589l-.536-.562a2.432,2.432,0,0,1,1.867-.813,1.767,1.767,0,0,1,1.9,1.786v2.786Zm-1.331-.634a1.094,1.094,0,0,0,1.205-1.17V62.21c-1.259-.205-2.089.018-2.089.687,0,.465.267.759.884.759" transform="translate(-0.849 -6.676)" fill="#0d1d44"/>
        <path id="Path_107435" data-name="Path 107435" d="M13.572,63.189l.009-2.652H12.7v-.875h.884V58.251h.991v1.411h1.313v.875H14.572v2.572a.122.122,0,0,0,.125.124H15.9v.894H14.51a.938.938,0,0,1-.938-.938" transform="translate(-1.42 -6.512)" fill="#0d1d44"/>
        <path id="Path_107436" data-name="Path 107436" d="M17.281,58.062a.616.616,0,1,1,.624.616.619.619,0,0,1-.624-.616m.124,1.509H18.4v4.465h-.991Z" transform="translate(-1.932 -6.422)" fill="#0d1d44"/>
        <path id="Path_107437" data-name="Path 107437" d="M19.723,62.023a2.264,2.264,0,0,1,2.42-2.3,2.234,2.234,0,0,1,2.366,2.3A2.283,2.283,0,0,1,22.117,64.4a2.269,2.269,0,0,1-2.394-2.375m2.394,1.518a1.5,1.5,0,1,0-1.384-1.491,1.383,1.383,0,0,0,1.384,1.491" transform="translate(-2.205 -6.676)" fill="#0d1d44"/>
        <path id="Path_107438" data-name="Path 107438" d="M30.4,61.343V64.29h-1V61.674a1.058,1.058,0,1,0-2.117,0l.009,2.617h-1V59.825h.973v.75a1.659,1.659,0,0,1,1.491-.857A1.63,1.63,0,0,1,30.4,61.343" transform="translate(-2.939 -6.676)" fill="#0d1d44"/>
        <path id="Path_107439" data-name="Path 107439" d="M35.227,64.291v-.8a1.567,1.567,0,0,1-1.571.893c-1.054,0-1.617-.58-1.617-1.419,0-1.2,1.295-1.581,3.063-1.313l-.009-.286c0-.6-.456-.857-1-.857a1.6,1.6,0,0,0-1.25.589l-.536-.562a2.432,2.432,0,0,1,1.867-.813,1.767,1.767,0,0,1,1.9,1.786v2.786ZM33.9,63.657a1.094,1.094,0,0,0,1.205-1.17V62.21c-1.259-.205-2.089.018-2.089.687,0,.465.267.759.884.759" transform="translate(-3.582 -6.676)" fill="#0d1d44"/>
        <rect id="Rectangle_13826" data-name="Rectangle 13826" width="0.991" height="6.251" transform="translate(33.564 51.363)" fill="#0d1d44"/>
        <path id="Path_107440" data-name="Path 107440" d="M42.253,60.948A3.091,3.091,0,0,1,45.477,57.7a2.921,2.921,0,0,1,2.688,1.6l-.848.491a2.025,2.025,0,0,0-1.839-1.116,2.281,2.281,0,0,0,0,4.555,1.978,1.978,0,0,0,1.848-1.134l.839.518a2.813,2.813,0,0,1-2.688,1.572,3.062,3.062,0,0,1-3.224-3.233" transform="translate(-4.724 -6.45)" fill="#0d1d44"/>
        <path id="Path_107441" data-name="Path 107441" d="M52.031,63.577a1.825,1.825,0,0,0,1.465-.634l.553.58A2.533,2.533,0,0,1,52,64.39a2.332,2.332,0,1,1-.045-4.662,2.115,2.115,0,0,1,2.233,2.563H50.611a1.326,1.326,0,0,0,1.42,1.286m1.179-1.911a1.166,1.166,0,0,0-1.259-1.2,1.306,1.306,0,0,0-1.348,1.2Z" transform="translate(-5.545 -6.677)" fill="#0d1d44"/>
        <path id="Path_107442" data-name="Path 107442" d="M60.054,61.343V64.29h-1V61.674a1.058,1.058,0,1,0-2.117,0l.009,2.617h-1V59.825h.973v.75a1.659,1.659,0,0,1,1.491-.857,1.63,1.63,0,0,1,1.643,1.625" transform="translate(-6.255 -6.676)" fill="#0d1d44"/>
        <path id="Path_107443" data-name="Path 107443" d="M62.29,63.189l.009-2.652h-.884v-.875H62.3V58.251h.991v1.411H64.6v.875H63.29v2.572a.122.122,0,0,0,.125.124h1.205v.894H63.228a.938.938,0,0,1-.938-.938" transform="translate(-6.866 -6.512)" fill="#0d1d44"/>
        <path id="Path_107444" data-name="Path 107444" d="M68.127,63.577a1.825,1.825,0,0,0,1.465-.634l.553.58a2.533,2.533,0,0,1-2.054.867,2.332,2.332,0,1,1-.045-4.662,2.115,2.115,0,0,1,2.233,2.563H66.707a1.326,1.326,0,0,0,1.42,1.286m1.179-1.911a1.166,1.166,0,0,0-1.259-1.2,1.306,1.306,0,0,0-1.348,1.2Z" transform="translate(-7.345 -6.677)" fill="#0d1d44"/>
        <path id="Path_107445" data-name="Path 107445" d="M74.846,59.782l-.019.947c-.187-.018-.384-.027-.571-.027a1.142,1.142,0,0,0-1.223,1.276v2.313h-.992V59.827h.965v.8a1.58,1.58,0,0,1,1.429-.9,1.639,1.639,0,0,1,.411.053" transform="translate(-8.054 -6.677)" fill="#0d1d44"/>
        <path id="Path_107446" data-name="Path 107446" d="M77.551,60.49v-.875h.956v-.634a1.132,1.132,0,0,1,1.241-1.152h1.037V58.7h-.965a.322.322,0,0,0-.322.348v.563h1.268v.875H79.5v3.59h-.991V60.49Z" transform="translate(-8.67 -6.465)" fill="#0d1d44"/>
        <path id="Path_107447" data-name="Path 107447" d="M81.642,62.023a2.264,2.264,0,0,1,2.42-2.3,2.234,2.234,0,0,1,2.366,2.3,2.393,2.393,0,0,1-4.787,0m2.394,1.518a1.5,1.5,0,1,0-1.384-1.491,1.383,1.383,0,0,0,1.384,1.491" transform="translate(-9.128 -6.676)" fill="#0d1d44"/>
        <path id="Path_107448" data-name="Path 107448" d="M91.011,59.782l-.018.947c-.187-.018-.384-.027-.572-.027A1.142,1.142,0,0,0,89.2,61.979v2.313h-.991V59.827h.965v.8a1.579,1.579,0,0,1,1.429-.9,1.632,1.632,0,0,1,.41.053" transform="translate(-9.861 -6.677)" fill="#0d1d44"/>
        <path id="Path_107449" data-name="Path 107449" d="M94.018,62.779l.705-.553a2,2,0,0,0,1.867,1.027c.839,0,1.357-.348,1.357-.92,0-.428-.277-.687-1.072-.875l-.937-.223c-1.2-.295-1.751-.858-1.751-1.742,0-1.072.848-1.8,2.3-1.8A2.565,2.565,0,0,1,98.849,58.9l-.705.563a1.9,1.9,0,0,0-1.67-.848c-.813,0-1.251.322-1.251.857,0,.393.259.652,1.108.848l.973.232c1.179.286,1.679.867,1.679,1.724,0,1.143-.947,1.9-2.429,1.9a2.608,2.608,0,0,1-2.536-1.4" transform="translate(-10.511 -6.45)" fill="#0d1d44"/>
        <path id="Path_107450" data-name="Path 107450" d="M101.036,63.189l.009-2.652h-.884v-.875h.884V58.251h.991v1.411h1.313v.875h-1.313v2.572a.122.122,0,0,0,.125.124h1.205v.894h-1.393a.938.938,0,0,1-.938-.938" transform="translate(-11.198 -6.512)" fill="#0d1d44"/>
        <path id="Path_107451" data-name="Path 107451" d="M107.68,59.782l-.018.947c-.187-.018-.384-.027-.572-.027a1.142,1.142,0,0,0-1.223,1.276v2.313h-.991V59.827h.965v.8a1.579,1.579,0,0,1,1.429-.9,1.632,1.632,0,0,1,.41.053" transform="translate(-11.725 -6.677)" fill="#0d1d44"/>
        <path id="Path_107452" data-name="Path 107452" d="M111.673,64.291v-.8a1.567,1.567,0,0,1-1.571.893c-1.054,0-1.617-.58-1.617-1.419,0-1.2,1.295-1.581,3.063-1.313l-.009-.286c0-.6-.456-.857-1-.857a1.6,1.6,0,0,0-1.25.589l-.536-.562a2.432,2.432,0,0,1,1.867-.813,1.767,1.767,0,0,1,1.9,1.786v2.786Zm-1.331-.634a1.094,1.094,0,0,0,1.205-1.17V62.21c-1.259-.205-2.089.018-2.089.687,0,.465.267.759.884.759" transform="translate(-12.129 -6.676)" fill="#0d1d44"/>
        <path id="Path_107453" data-name="Path 107453" d="M114.468,63.189l.009-2.652h-.884v-.875h.884V58.251h.991v1.411h1.313v.875h-1.313v2.572a.122.122,0,0,0,.125.124H116.8v.894h-1.393a.938.938,0,0,1-.938-.938" transform="translate(-12.7 -6.512)" fill="#0d1d44"/>
        <path id="Path_107454" data-name="Path 107454" d="M120.3,63.577a1.825,1.825,0,0,0,1.465-.634l.553.58a2.533,2.533,0,0,1-2.054.867,2.332,2.332,0,1,1-.045-4.662,2.115,2.115,0,0,1,2.233,2.563h-3.572a1.326,1.326,0,0,0,1.42,1.286m1.179-1.911a1.166,1.166,0,0,0-1.259-1.2,1.306,1.306,0,0,0-1.348,1.2Z" transform="translate(-13.178 -6.677)" fill="#0d1d44"/>
        <path id="Path_107455" data-name="Path 107455" d="M126.249,66.211a2.764,2.764,0,0,1-2.161-.92l.456-.7a2.167,2.167,0,0,0,1.642.751,1.429,1.429,0,0,0,1.5-1.554v-.536a1.646,1.646,0,0,1-1.572.991,2.111,2.111,0,0,1-2.2-2.3,2.031,2.031,0,0,1,2.1-2.224,1.722,1.722,0,0,1,1.706.991v-.893h.91V63.88a2.26,2.26,0,0,1-2.384,2.331m.018-2.777a1.346,1.346,0,0,0,1.384-1.42,1.364,1.364,0,1,0-2.723,0,1.311,1.311,0,0,0,1.339,1.42" transform="translate(-13.854 -6.676)" fill="#0d1d44"/>
        <path id="Path_107456" data-name="Path 107456" d="M130.573,58.062a.616.616,0,1,1,.624.616.619.619,0,0,1-.624-.616m.124,1.509h.991v4.465H130.7Z" transform="translate(-14.598 -6.422)" fill="#0d1d44"/>
        <path id="Path_107457" data-name="Path 107457" d="M133.025,62.022a2.263,2.263,0,0,1,2.331-2.394,2.192,2.192,0,0,1,1.991,1.09l-.732.509a1.39,1.39,0,0,0-1.223-.687,1.483,1.483,0,0,0,0,2.956,1.388,1.388,0,0,0,1.223-.705l.741.509a2.2,2.2,0,0,1-2,1.1,2.238,2.238,0,0,1-2.331-2.375" transform="translate(-14.872 -6.666)" fill="#0d1d44"/>
        <path id="Path_107458" data-name="Path 107458" d="M145.833,59.918a1.982,1.982,0,0,1-2.027,2.108h-1.652v2.054h-1.037V57.828h2.689a1.982,1.982,0,0,1,2.027,2.09m-2.161,1.17a1.071,1.071,0,0,0,1.1-1.17,1.107,1.107,0,0,0-1.1-1.161h-1.518v2.331Z" transform="translate(-15.777 -6.465)" fill="#0d1d44"/>
        <path id="Path_107459" data-name="Path 107459" d="M150.278,64.291v-.8a1.567,1.567,0,0,1-1.571.893c-1.054,0-1.617-.58-1.617-1.419,0-1.2,1.295-1.581,3.063-1.313l-.009-.286c0-.6-.455-.857-1-.857a1.6,1.6,0,0,0-1.25.589l-.536-.562a2.432,2.432,0,0,1,1.867-.813,1.767,1.767,0,0,1,1.9,1.786v2.786Zm-1.33-.634a1.094,1.094,0,0,0,1.2-1.17V62.21c-1.259-.205-2.089.018-2.089.687,0,.465.268.759.885.759" transform="translate(-16.445 -6.676)" fill="#0d1d44"/>
        <path id="Path_107460" data-name="Path 107460" d="M155.685,59.782l-.018.947c-.187-.018-.384-.027-.572-.027a1.142,1.142,0,0,0-1.223,1.276v2.313h-.991V59.827h.965v.8a1.579,1.579,0,0,1,1.429-.9,1.632,1.632,0,0,1,.41.053" transform="translate(-17.092 -6.677)" fill="#0d1d44"/>
        <path id="Path_107461" data-name="Path 107461" d="M157.516,63.189l.009-2.652h-.884v-.875h.884V58.251h.991v1.411h1.313v.875h-1.313v2.572a.122.122,0,0,0,.125.124h1.205v.894h-1.393a.938.938,0,0,1-.938-.938" transform="translate(-17.512 -6.512)" fill="#0d1d44"/>
        <path id="Path_107462" data-name="Path 107462" d="M165.464,61.343V64.29h-1V61.674a1.058,1.058,0,1,0-2.117,0l.009,2.617h-1V59.825h.973v.75a1.659,1.659,0,0,1,1.491-.857,1.63,1.63,0,0,1,1.643,1.625" transform="translate(-18.04 -6.676)" fill="#0d1d44"/>
        <path id="Path_107463" data-name="Path 107463" d="M169.515,63.577a1.825,1.825,0,0,0,1.465-.634l.553.58a2.533,2.533,0,0,1-2.054.867,2.332,2.332,0,1,1-.045-4.662,2.116,2.116,0,0,1,2.233,2.563H168.1a1.326,1.326,0,0,0,1.42,1.286m1.179-1.911a1.166,1.166,0,0,0-1.259-1.2,1.306,1.306,0,0,0-1.348,1.2Z" transform="translate(-18.68 -6.677)" fill="#0d1d44"/>
        <path id="Path_107464" data-name="Path 107464" d="M176.234,59.782l-.018.947c-.187-.018-.384-.027-.572-.027a1.142,1.142,0,0,0-1.223,1.276v2.313h-.991V59.827h.965v.8a1.579,1.579,0,0,1,1.429-.9,1.632,1.632,0,0,1,.41.053" transform="translate(-19.389 -6.677)" fill="#0d1d44"/>
        <path id="Path_107465" data-name="Path 107465" d="M177.09,63.593l.447-.67a2.191,2.191,0,0,0,1.589.661c.581,0,.867-.232.867-.572,0-.267-.187-.428-.661-.544l-.849-.205c-.866-.205-1.223-.616-1.223-1.224,0-.866.7-1.41,1.839-1.41a2.412,2.412,0,0,1,1.831.7l-.455.67a1.987,1.987,0,0,0-1.376-.544c-.562,0-.848.205-.848.553,0,.25.17.4.652.518l.848.206c.894.223,1.251.624,1.251,1.241,0,.876-.7,1.429-1.885,1.429a2.581,2.581,0,0,1-2.027-.8" transform="translate(-19.799 -6.666)" fill="#0d1d44"/>
        <path id="Path_107466" data-name="Path 107466" d="M186.745,61.16v2.92h-1V61.409a1.029,1.029,0,0,0-1.036-1.071,1.1,1.1,0,0,0-1.1,1.134V64.08h-.991V57.829h.991v2.438a1.658,1.658,0,0,1,1.482-.742,1.59,1.59,0,0,1,1.652,1.634" transform="translate(-20.417 -6.465)" fill="#0d1d44"/>
        <path id="Path_107467" data-name="Path 107467" d="M188.571,58.062a.616.616,0,1,1,.624.616.619.619,0,0,1-.624-.616m.124,1.509h.991v4.465H188.7Z" transform="translate(-21.082 -6.422)" fill="#0d1d44"/>
        <path id="Path_107468" data-name="Path 107468" d="M196.023,62.086a2.077,2.077,0,0,1-2.108,2.3A1.664,1.664,0,0,1,192.3,63.4v2.509h-.973V59.827h.9v.911a1.821,1.821,0,0,1,1.705-1.009c1.349,0,2.09.928,2.09,2.357m-2.34,1.465a1.345,1.345,0,0,0,1.339-1.465,1.365,1.365,0,1,0-1.339,1.465" transform="translate(-21.39 -6.677)" fill="#0d1d44"/>
        <path id="Path_107469" data-name="Path 107469" d="M197.4,63.593l.446-.67a2.194,2.194,0,0,0,1.589.661c.582,0,.867-.232.867-.572,0-.267-.187-.428-.661-.544l-.849-.205c-.866-.205-1.222-.616-1.222-1.224,0-.866.7-1.41,1.839-1.41a2.413,2.413,0,0,1,1.831.7l-.456.67a1.983,1.983,0,0,0-1.375-.544c-.562,0-.849.205-.849.553,0,.25.17.4.652.518l.848.206c.894.223,1.251.624,1.251,1.241,0,.876-.7,1.429-1.884,1.429a2.581,2.581,0,0,1-2.027-.8" transform="translate(-22.069 -6.666)" fill="#0d1d44"/>
      </g>
    </g>
  </g>
</svg>
