<svg xmlns="http://www.w3.org/2000/svg" width="24.895" height="24.828" viewBox="0 0 24.895 24.828">
  <g id="LinkedIn" transform="translate(0 0)">
    <path id="Path_23" data-name="Path 23" d="M3677.994,3390a2.978,2.978,0,1,1-2.994,2.96A3,3,0,0,1,3677.994,3390Z" transform="translate(-3675 -3390)" fill="#fefefe" fill-rule="evenodd"/>
    <path id="Path_24" data-name="Path 24" d="M3691.34,3651.585h-3.5a.826.826,0,0,1-.841-.808v-14.937a.833.833,0,0,1,.841-.841h3.5a.826.826,0,0,1,.807.841v14.937A.818.818,0,0,1,3691.34,3651.585Z" transform="translate(-3686.596 -3626.758)" fill="#fefefe" fill-rule="evenodd"/>
    <path id="Path_25" data-name="Path 25" d="M3953.081,3628.652A5.65,5.65,0,0,0,3947.4,3623h-.875a5.005,5.005,0,0,0-4.138,2.154,1.885,1.885,0,0,0-.269.437h-.067v-1.85a.337.337,0,0,0-.336-.336h-4.374a.361.361,0,0,0-.336.336v15.912a.361.361,0,0,0,.336.336h4.475a.337.337,0,0,0,.336-.336v-9.184a2.9,2.9,0,0,1,4.945-2.086,2.988,2.988,0,0,1,.841,2.052v9.218a.337.337,0,0,0,.336.336h4.475a.337.337,0,0,0,.336-.336v-11Z" transform="translate(-3928.187 -3615.161)" fill="#fefefe" fill-rule="evenodd"/>
  </g>
</svg>
