<?xml version="1.0" encoding="utf-8"?>
<!-- Generator: Adobe Illustrator 28.2.0, SVG Export Plug-In . SVG Version: 6.00 Build 0)  -->
<svg version="1.1" id="Layer_1" xmlns="http://www.w3.org/2000/svg" xmlns:xlink="http://www.w3.org/1999/xlink" x="0px" y="0px"
	 viewBox="0 0 944.2 971" style="enable-background:new 0 0 944.2 971;" xml:space="preserve">
<style type="text/css">
	.st0{opacity:0.1;}
	.st1{fill:none;stroke:#7A6AF7;}
	.st2{fill:none;stroke:#001F5E;}
	.st3{fill:none;stroke:#35CCDE;}
</style>
<g id="Pattern" transform="translate(0.5 0.5)" class="st0">
	<path id="_3" class="st1" d="M0.7,655.8V314.2c0-14,11.3-25.3,25.2-25.4c2.3,0,4.5,0.3,6.7,0.9l635.9,170.8
		c12.5,3.4,18.8,13.9,18.8,24.5s-6.2,21.1-18.8,24.5L32.6,680.3c-13.5,3.7-27.4-4.3-31-17.8C1,660.3,0.7,658.1,0.7,655.8 M0,314.2
		v341.6c0,14.3,11.6,26,25.9,26c2.3,0,4.6-0.3,6.9-0.9l635.9-170.8c13.9-3.7,22.1-18,18.4-31.9c-2.4-9-9.4-16-18.4-18.4L32.8,289.1
		c-13.8-3.8-28.1,4.4-31.9,18.3C0.3,309.6,0,311.9,0,314.2"/>
	<path id="_2" class="st2" d="M148.5,858.9V111.1c0-17.4,12.1-30.1,25.4-30.1c4.1,0,8.2,1.2,11.7,3.4l607.9,373.9
		c9.1,5.6,13.7,16.1,13.7,26.7s-4.6,21.1-13.7,26.7L185.5,885.5c-3.5,2.2-7.5,3.4-11.7,3.4C160.6,889,148.5,876.3,148.5,858.9
		 M147.8,111.1v747.8c0,17.9,12.4,30.8,26,30.9c4.2,0,8.4-1.2,12-3.5l607.9-373.9c9.4-5.8,14-16.6,14-27.4s-4.7-21.6-14-27.4
		L185.8,83.7c-3.6-2.3-7.7-3.5-12-3.5C160.2,80.3,147.8,93.2,147.8,111.1"/>
	<path id="_1" class="st3" d="M296.3,934.8V35.2c0-20.2,14.4-34.4,30-34.4c6,0.1,11.8,2.1,16.5,5.8l586.5,449.8
		c8.9,6.8,13.3,17.7,13.3,28.6s-4.4,21.8-13.3,28.6L342.8,963.4c-4.7,3.7-10.5,5.8-16.5,5.8C310.7,969.2,296.3,955,296.3,934.8
		 M326.3,0c-15.9,0-30.7,14.5-30.7,35.2v899.6c0,20.7,14.8,35.2,30.7,35.2c6.1-0.1,12.1-2.2,16.9-6l586.5-449.8
		c9.1-7,13.6-18.1,13.6-29.2s-4.5-22.3-13.6-29.2L343.1,6C338.3,2.2,332.4,0.1,326.3,0z"/>
</g>
</svg>
