<svg xmlns="http://www.w3.org/2000/svg" width="944" height="971" viewBox="0 0 944 971">
  <g id="pattern-color-en" transform="translate(0.5 0.5)" opacity="0.1">
    <path id="_3" d="M687.288,655.8V314.2a25.223,25.223,0,0,0-31.9-24.5L19.488,460.5A24.875,24.875,0,0,0,.688,485c0,10.6,6.2,21.1,18.8,24.5l635.9,170.8a25.355,25.355,0,0,0,31.9-24.5m.7-341.6V655.8a25.991,25.991,0,0,1-25.9,26,27.236,27.236,0,0,1-6.9-.9L19.288,510.1a26.04,26.04,0,0,1,0-50.3l635.9-170.7a25.989,25.989,0,0,1,32.8,25.1" transform="translate(255.012)" fill="none" stroke="#7a6af7" stroke-width="1"/>
    <path id="_2" d="M814.992,858.9V111.1c0-17.4-12.247-30.1-25.708-30.1a22.6,22.6,0,0,0-11.842,3.4L162.172,458.3c-9.21,5.6-13.866,16.1-13.866,26.7s4.656,21.1,13.866,26.7L777.543,885.5a22.335,22.335,0,0,0,11.842,3.4c13.36.1,25.607-12.6,25.607-30m.708-747.8V858.9c0,17.9-12.55,30.8-26.315,30.9a22.839,22.839,0,0,1-12.146-3.5L161.97,512.4c-9.514-5.8-14.17-16.6-14.17-27.4s4.757-21.6,14.17-27.4L777.239,83.7a22.583,22.583,0,0,1,12.146-3.5c13.765.1,26.315,13,26.315,30.9" transform="translate(-12.2)" fill="none" stroke="#001f5e" stroke-width="1"/>
    <path id="_1" d="M942.3,934.8V35.2C942.3,15,927.907.8,912.314.8a27.337,27.337,0,0,0-16.492,5.8L309.593,456.4c-8.9,6.8-13.294,17.7-13.294,28.6s4.4,21.8,13.294,28.6L895.822,963.4a26.714,26.714,0,0,0,16.492,5.8c15.593,0,29.986-14.2,29.986-34.4M912.314,0C928.207,0,943,14.5,943,35.2V934.8c0,20.7-14.793,35.2-30.686,35.2a28.05,28.05,0,0,1-16.892-6L309.194,514.2c-9.1-7-13.594-18.1-13.594-29.2s4.5-22.3,13.594-29.2L895.522,6A27.764,27.764,0,0,1,912.314,0Z" transform="translate(-295.6)" fill="none" stroke="#35ccde" stroke-width="1"/>
  </g>
</svg>
