<?xml version="1.0" encoding="utf-8"?>
<!-- Generator: Adobe Illustrator 28.2.0, SVG Export Plug-In . SVG Version: 6.00 Build 0)  -->
<svg version="1.1" id="Layer_1" xmlns="http://www.w3.org/2000/svg" xmlns:xlink="http://www.w3.org/1999/xlink" x="0px" y="0px"
	 viewBox="0 0 1920 600" style="enable-background:new 0 0 1920 600;" xml:space="preserve">
<style type="text/css">
	.st0{opacity:7.000000e-02;}
	.st1{clip-path:url(#SVGID_00000169516807761285095090000008646252158755860643_);}
	.st2{fill:none;stroke:#FFFFFF;}
</style>
<g id="Pattern" transform="translate(0 -151.963)" class="st0">
	<g>
		<g>
			<g>
				<defs>
					<rect id="SVGID_1_" y="-26.8" width="2933.8" height="916.8"/>
				</defs>
				<clipPath id="SVGID_00000096765200532630301150000018340340807182866095_">
					<use xlink:href="#SVGID_1_"  style="overflow:visible;"/>
				</clipPath>
				<g id="Mask" style="clip-path:url(#SVGID_00000096765200532630301150000018340340807182866095_);">
					<path id="_3" class="st2" d="M-69.3,760.9V229.6c0-21.7,17.6-39.4,39.2-39.4c3.5,0,7,0.4,10.4,1.4l989,265.7
						c19.5,5.2,29.2,21.7,29.2,38c0,16.4-9.8,32.8-29.2,38L-19.5,798.9c-20.9,5.6-42.6-6.7-48.3-27.6
						C-68.7,767.9-69.3,764.4-69.3,760.9 M-70.3,229.6v531.2c0,22.3,18,40.5,40.3,40.5c3.7,0,7.2-0.4,10.7-1.4l989-265.7
						c20-5.3,29.9-22.3,29.9-39.1c0.3-18.3-12-34.6-29.9-39.1l-989-265.5c-21.6-5.9-43.7,6.8-49.5,28.4
						C-69.8,222.5-70.3,225.9-70.3,229.6"/>
					<path id="_2" class="st2" d="M160.6,1076.7v-1163c0-27.2,18.7-46.7,39.4-46.7c6.4,0,12.7,1.8,18.2,5.3l945.3,581.4
						c14.2,8.7,21.2,25,21.2,41.4c0,16.4-7,32.7-21.2,41.4l-945.3,581.5c-5.5,3.4-11.8,5.3-18.2,5.3
						C179.4,1123.5,160.6,1103.8,160.6,1076.7 M159.5-86.3v1163c0,27.9,19.3,48,40.5,48c6.6,0,13-2,18.6-5.5L1164,537.7
						c14.5-9,21.9-25.8,21.9-42.6s-7.4-33.6-21.9-42.6L218.7-128.9c-5.5-3.5-12-5.3-18.6-5.5C178.9-134.2,159.5-114,159.5-86.3"/>
					<path id="_1" class="st2" d="M390.4,1194.7v-1399c0-31.4,22.4-53.6,46.6-53.6c9.3,0.1,18.3,3.3,25.7,9l912.1,699.6
						c13.8,10.5,20.6,27.5,20.6,44.4c0,17-6.8,33.9-20.6,44.4l-911.9,699.7c-7.4,5.9-16.4,9-25.7,9
						C412.9,1248.3,390.6,1226.1,390.4,1194.7 M437.2-259c-24.7,0-47.7,22.7-47.7,54.7v1399c0,32.1,22.9,54.7,47.7,54.7
						c9.4-0.1,18.7-3.4,26.3-9.3l912.1-699.6c14.1-10.8,21.2-28.1,21.2-45.5c0-17.4-7-34.7-21.2-45.5L463.4-249.7
						C455.9-255.7,446.6-258.9,437.2-259z"/>
				</g>
			</g>
		</g>
	</g>
</g>
</svg>
