<?xml version="1.0" encoding="utf-8"?>
<!-- Generator: Adobe Illustrator 28.2.0, SVG Export Plug-In . SVG Version: 6.00 Build 0)  -->
<svg version="1.1" id="Layer_1" xmlns="http://www.w3.org/2000/svg" xmlns:xlink="http://www.w3.org/1999/xlink" x="0px" y="0px"
	 viewBox="0 0 961 1009.5" style="enable-background:new 0 0 961 1009.5;" xml:space="preserve">
<style type="text/css">
	.st0{opacity:6.000000e-02;}
	.st1{fill:none;stroke:#FFFFFF;}
</style>
<g id="Pattern" transform="translate(46.5 -6.228)" class="st0">
	<path id="_3" class="st1" d="M-45.3,688.6V333.4c0-14.9,12-26.4,25.8-26.4c2.3,0,4.5,0.3,6.7,0.9l647.3,177.6
		c12.8,3.5,19.1,14.5,19.1,25.5c0,11-6.4,22-19.1,25.5L-12.8,714.1c-2.2,0.6-4.5,0.9-6.7,0.9C-33.4,715-45.3,703.5-45.3,688.6
		 M-46,333.4v355.2c-0.1,14.8,11.7,26.9,26.4,27.1c2.3,0,4.7-0.3,6.9-0.9l647.3-177.6c13.1-3.6,19.6-14.9,19.6-26.1
		c0-11.3-6.5-22.5-19.6-26.1L-12.6,307.3c-2.3-0.6-4.6-0.9-6.9-0.9C-34.3,306.5-46.1,318.6-46,333.4"/>
	<path id="_2" class="st1" d="M105.1,899.7V122.3c0-18.1,12.3-31.3,25.8-31.3c4.2,0,8.3,1.3,11.9,3.6l618.7,388.7
		c9.3,5.8,13.9,16.8,13.9,27.7s-4.6,21.9-13.9,27.7L142.8,927.5c-3.5,2.3-7.7,3.5-11.9,3.6C117.4,931,105.1,917.9,105.1,899.7
		 M104.4,122.3v777.5c0,18.6,12.6,32.1,26.5,32.1c4.3,0,8.6-1.3,12.2-3.6l618.7-388.7c9.5-6,14.3-17.2,14.3-28.5
		s-4.8-22.5-14.3-28.5L143.1,93.8c-3.6-2.3-7.9-3.6-12.2-3.6C117.1,90.2,104.4,103.6,104.4,122.3"/>
	<path id="_1" class="st1" d="M255.5,978.7V43.3c0-21,14.7-35.8,30.5-35.8c6.1,0.1,12,2.2,16.8,6.1l596.9,467.7
		c9,7.1,13.5,18.4,13.5,29.7c0,11.3-4.5,22.7-13.5,29.7l-596.9,467.7c-4.8,3.9-10.7,6-16.8,6.1
		C270.2,1014.5,255.6,999.7,255.5,978.7 M286.1,6.7c-16.2,0-31.2,15.1-31.2,36.6v935.3c0,21.5,15,36.6,31.2,36.6
		c6.3-0.1,12.3-2.2,17.2-6.2l596.9-467.7c9.2-7.2,13.9-18.8,13.9-30.4c0-11.6-4.6-23.2-13.9-30.4L303.2,12.9
		C298.4,9,292.3,6.8,286.1,6.7z"/>
</g>
</svg>
