<svg xmlns="http://www.w3.org/2000/svg" width="36" height="36" viewBox="0 0 36 36">
  <g id="_2" data-name="2" transform="translate(-373 -89)">
    <rect id="Circle" width="36" height="36" rx="18" transform="translate(373 89)" fill="#fff"/>
    <path id="Icon" d="M386.95,106.1a11.676,11.676,0,0,0,4.95,4.95l1.65-1.65a.6.6,0,0,1,.75-.15,7.845,7.845,0,0,0,2.7.45.709.709,0,0,1,.75.75V113a.709.709,0,0,1-.75.75A12.739,12.739,0,0,1,384.25,101a.752.752,0,0,1,.75-.75h2.625a.709.709,0,0,1,.75.75,8.493,8.493,0,0,0,.45,2.7.924.924,0,0,1-.15.75Zm5.55-5.85a.75.75,0,1,0,.75.75A.709.709,0,0,0,392.5,100.25Zm2.25,0a.75.75,0,1,0,.75.75A.709.709,0,0,0,394.75,100.25Zm2.25,0a.75.75,0,1,0,.75.75A.709.709,0,0,0,397,100.25Zm-4.5,2.25a.75.75,0,1,0,.75.75A.709.709,0,0,0,392.5,102.5Zm2.25,0a.75.75,0,1,0,.75.75A.709.709,0,0,0,394.75,102.5Zm2.25,0a.75.75,0,1,0,.75.75A.709.709,0,0,0,397,102.5Zm-4.5,2.25a.75.75,0,1,0,.75.75A.709.709,0,0,0,392.5,104.75Zm2.25,0a.75.75,0,1,0,.75.75A.709.709,0,0,0,394.75,104.75Zm2.25,0a.75.75,0,1,0,.75.75A.709.709,0,0,0,397,104.75Z" fill="#145fff"/>
  </g>
</svg>
