<svg xmlns="http://www.w3.org/2000/svg" width="164" height="167" viewBox="0 0 164 167">
  <g id="Shape" transform="translate(-1186.674 233.646)">
    <path id="Shape-2" data-name="Shape" d="M72.956,14.048a10,10,0,0,1,17.088,0L153.757,118.8a10,10,0,0,1-8.544,15.2H17.786a10,10,0,0,1-8.544-15.2Z" transform="translate(1350.674 -231.646) rotate(90)" fill="#35ccde"/>
    <path id="Shape-3" data-name="Shape" d="M74.589,17.5a10,10,0,0,1,17.823,0L159.6,149.463A10,10,0,0,1,150.687,164H16.313A10,10,0,0,1,7.4,149.463Z" transform="translate(1350.674 -233.646) rotate(90)" fill="#fcfcfc"/>
  </g>
</svg>
