<?xml version="1.0" encoding="utf-8"?>
<!-- Generator: Adobe Illustrator 27.9.2, SVG Export Plug-In . SVG Version: 6.00 Build 0)  -->
<svg version="1.1" id="Layer_1" xmlns="http://www.w3.org/2000/svg" xmlns:xlink="http://www.w3.org/1999/xlink" x="0px" y="0px"
	 width="22.2px" height="22.2px" viewBox="0 0 22.2 22.2" style="enable-background:new 0 0 22.2 22.2;" xml:space="preserve">
<style type="text/css">
	.st0{fill:#145FFF;}
	.st1{fill:#FFFFFF;}
</style>
<g id="imgIcon" transform="translate(-260 -443.652)">
	<g id="Photo" transform="translate(260 443.652)">
		<path id="base" class="st0" d="M6,0h10.2c3.3,0,6,2.7,6,6v10.2c0,3.3-2.7,6-6,6H6c-3.3,0-6-2.7-6-6V6C0,2.7,2.7,0,6,0z"/>
		<g id="Group_23134" transform="translate(5.878 6.737)">
			<path id="Path_600" class="st1" d="M10.6,8.5c0,0-2.4-5.3-3-5.7S4.9,6.2,4,6.7s-1.2-1.3-2-1S0,8.5,0,8.5L10.6,8.5z"/>
			<circle id="Ellipse_167" class="st1" cx="3.2" cy="1.5" r="1.5"/>
		</g>
	</g>
</g>
</svg>
