<?xml version="1.0" encoding="utf-8"?>
<!-- Generator: Adobe Illustrator 27.9.2, SVG Export Plug-In . SVG Version: 6.00 Build 0)  -->
<svg version="1.1" id="Capa_1" xmlns="http://www.w3.org/2000/svg" xmlns:xlink="http://www.w3.org/1999/xlink" x="0px" y="0px"
	 width="512px" height="512px" viewBox="0 0 512 512" style="enable-background:new 0 0 512 512;" xml:space="preserve">
<style type="text/css">
	.st0{fill:#35CCDE;}
</style>
<g>
	<path class="st0" d="M419.1,357.7c-4.1,0-7.5,3.4-7.5,7.5V497H53.8V77.1h54.6c4.1,0,7.5-3.4,7.5-7.5V15h166c4.1,0,7.5-3.4,7.5-7.5
		S286.1,0,282,0H108.4c-2,0-3.9,0.8-5.3,2.2l-62,62c-1.4,1.4-2.3,3.3-2.3,5.4v0v434.8c0,4.1,3.4,7.5,7.5,7.5h372.8
		c4.1,0,7.5-3.4,7.5-7.5V365.2C426.6,361,423.2,357.7,419.1,357.7z M64.4,62.1L101,25.6v36.5H64.4z"/>
	<path class="st0" d="M434.7,62.1h-8.1V7.5c0-4.1-3.4-7.5-7.5-7.5H314.7c-4.1,0-7.5,3.4-7.5,7.5s3.4,7.5,7.5,7.5h96.9v47.1H139.5
		c-4.1,0-7.5,3.4-7.5,7.5v155.3c0,4.1,3.4,7.5,7.5,7.5h43.8c4.1,0,7.5-3.4,7.5-7.5s-3.4-7.5-7.5-7.5H147V77.1h287.6
		c13,0,23.5,10.5,23.5,23.5v124.9c-6.5-5-14.7-8.1-23.6-8.1H216c-4.1,0-7.5,3.4-7.5,7.5s3.4,7.5,7.5,7.5h195.6v100
		c0,4.1,3.4,7.5,7.5,7.5s7.5-3.4,7.5-7.5v-37.9h8.1c21.2,0,38.5-17.3,38.5-38.6V100.6C473.2,79.4,455.9,62.1,434.7,62.1z
		 M434.7,279.6h-8.1v-47.1h8c13,0,23.6,10.6,23.6,23.6v0v0C458.2,269,447.6,279.6,434.7,279.6z"/>
	<path class="st0" d="M386,123.7c4.7,0,9.3,1.4,13.2,4c3.4,2.3,8.1,1.4,10.4-2c2.3-3.4,1.4-8.1-2-10.4c-6.4-4.3-13.8-6.6-21.6-6.6
		c-21.3,0-38.6,17.3-38.6,38.6s17.3,38.6,38.6,38.6c10.1,0,19.1-4,25.3-11.4c2.7-3.2,2.2-7.9-0.9-10.6c-3.2-2.7-7.9-2.2-10.6,0.9
		c-3.4,4.1-8.1,6.1-13.8,6.1c-13,0-23.6-10.6-23.6-23.6S373,123.7,386,123.7L386,123.7z"/>
	<path class="st0" d="M336.9,147.3c0-21.3-17.3-38.6-38.6-38.6c-21.3,0-38.6,17.3-38.6,38.6s17.3,38.6,38.6,38.6
		S336.9,168.5,336.9,147.3z M274.8,147.3c0-13,10.6-23.6,23.6-23.6s23.6,10.6,23.6,23.6s-10.6,23.6-23.6,23.6
		S274.8,160.3,274.8,147.3z"/>
	<path class="st0" d="M210.7,185.8c21.3,0,38.6-17.3,38.6-38.6c0-21.3-17.3-38.6-38.6-38.6h-11.1c-4.1,0-7.5,3.4-7.5,7.5v62.1
		c0,4.1,3.4,7.5,7.5,7.5L210.7,185.8L210.7,185.8z M207.1,123.7c14.2-1.5,27.3,9,27.2,23.6c0.1,14.6-13,25.1-27.2,23.6V123.7z"/>
	<path class="st0" d="M101,379.9c0,4.1,3.4,7.5,7.5,7.5H357c4.1,0,7.5-3.4,7.5-7.5s-3.4-7.5-7.5-7.5H108.5
		C104.3,372.4,101,375.7,101,379.9z"/>
	<path class="st0" d="M364.5,410.9c0-4.1-3.4-7.5-7.5-7.5H108.5c-4.1,0-7.5,3.4-7.5,7.5s3.4,7.5,7.5,7.5H357
		C361.1,418.4,364.5,415.1,364.5,410.9z"/>
	<path class="st0" d="M108.5,434.5c-4.1,0-7.5,3.4-7.5,7.5s3.4,7.5,7.5,7.5h139.8c4.1,0,7.5-3.4,7.5-7.5s-3.4-7.5-7.5-7.5H108.5z"/>
	<path class="st0" d="M248.2,294.2H357c4.1,0,7.5-3.4,7.5-7.5s-3.4-7.5-7.5-7.5H248.2c-4.1,0-7.5,3.4-7.5,7.5
		S244.1,294.2,248.2,294.2z"/>
	<path class="st0" d="M248.2,325.3H357c4.1,0,7.5-3.4,7.5-7.5s-3.4-7.5-7.5-7.5H248.2c-4.1,0-7.5,3.4-7.5,7.5
		S244.1,325.3,248.2,325.3z"/>
	<path class="st0" d="M248.2,356.3H357c4.1,0,7.5-3.4,7.5-7.5s-3.4-7.5-7.5-7.5H248.2c-4.1,0-7.5,3.4-7.5,7.5
		S244.1,356.3,248.2,356.3z"/>
	<path class="st0" d="M180.3,284.5c-2.9-9.1-12.5-7.6-14.5,0.7l-11.6,37.4l-7.4-37.3c-0.8-4.1-4.7-6.7-8.8-5.9
		c-4.1,0.8-6.7,4.8-5.9,8.8l12.1,61.2c1.6,8.7,14.8,9.3,17.2,0.7l11.7-37.9l11.7,37.9c2.4,8.5,15.6,7.9,17.2-0.8l12.2-61.1
		c0.8-4.1-1.8-8-5.9-8.8c-4.1-0.8-8,1.8-8.8,5.9l-7.4,37.2L180.3,284.5z"/>
</g>
</svg>
