<?xml version="1.0" encoding="utf-8"?>
<!-- Generator: Adobe Illustrator 27.9.2, SVG Export Plug-In . SVG Version: 6.00 Build 0)  -->
<svg version="1.1" id="Layer_3" xmlns="http://www.w3.org/2000/svg" xmlns:xlink="http://www.w3.org/1999/xlink" x="0px" y="0px"
	 width="512px" height="512px" viewBox="0 0 512 512" style="enable-background:new 0 0 512 512;" xml:space="preserve">
<style type="text/css">
	.st0{fill:#145FFF;}
</style>
<path class="st0" d="M306.7,295.4c40.3-70,21.9-159-42.8-207.4c-0.2-27.8-15.2-53.3-39.3-67.2C209.9,12.4,193.2,8,176.2,8h-16.3
	c-17,0-33.7,4.4-48.5,12.9C87.2,34.7,72.3,60.3,72,88.1C1.4,141-13,241.2,40,311.9c18.8,25.1,44.5,44,74,54.6L99.4,392H32
	c-13.3,0-24,10.7-24,24v64c0,13.3,10.7,24,24,24h208c13.3,0,24-10.7,24-24v-64c0-13.3-10.7-24-24-24h-67.4l-9.2-16.1
	c1.5,0,3.1,0.1,4.6,0.1c27.9,0,55.3-7.3,79.4-21.3l137,137c16.5,16.3,43.1,16.1,59.3-0.5c16.1-16.3,16.1-42.5,0-58.9L306.7,295.4z
	 M119.3,34.8c12.4-7.1,26.3-10.8,40.6-10.8h16.3c14.2,0,28.2,3.7,40.6,10.8c29.6,16.8,40,54.5,23.3,84.1v-8.3
	c0-11.1-3.3-21.9-9.4-31.1l-7.9-11.9c-2.5-3.7-7.4-4.7-11.1-2.2c-0.1,0.1-0.2,0.2-0.4,0.3l-10.7,8C188.1,82.9,172.9,88,157.3,88H136
	c-19,0-35.4,13.5-39.2,32.1C79.3,91,88.7,53.1,117.9,35.6C118.4,35.3,118.8,35,119.3,34.8z M136,208.4v24.8l-12.9,2.1
	c-15.9,2.7-30.5,10.4-41.6,22.1c-16.9-34.9-11-76.6,14.9-105.4C99.3,176.3,114.1,197.5,136,208.4z M152,214.1
	c10.5,2.5,21.5,2.5,32,0v21.3c-10,5.1-22,5.1-32,0V214.1z M168,200c-30.9,0-56-25.1-56-56v-16c0-13.3,10.7-24,24-24h21.3
	c19,0,37.5-6.2,52.8-17.6l3.9-2.9l3.2,4.9c4.4,6.6,6.7,14.3,6.7,22.2V144C224,174.9,198.9,200,168,200z M125.8,251.2l16.8-2.8
	c15.7,9.3,35.2,9.3,50.9,0l16.8,2.8c14,2.4,26.7,9.7,35.7,20.7c-30.7,43-90.4,53.1-133.5,22.4c-8.7-6.2-16.2-13.7-22.4-22.4
	C99.1,260.9,111.8,253.5,125.8,251.2L125.8,251.2z M254.4,257.5c-11.1-11.7-25.7-19.4-41.6-22.1l-12.8-2.1v-24.8
	c21.9-10.9,36.7-32.1,39.5-56.3C265.5,180.9,271.4,222.6,254.4,257.5L254.4,257.5z M240,408c4.4,0,8,3.6,8,8v64c0,4.4-3.6,8-8,8H32
	c-4.4,0-8-3.6-8-8v-64c0-4.4,3.6-8,8-8h72c2.9,0,5.5-1.5,6.9-4l25.1-43.9l25.1,43.8c1.4,2.5,4.1,4,6.9,4H240z M153.9,359.2l-11-19.2
	c-2.5-3.8-7.7-4.9-11.5-2.4c-0.9,0.6-1.7,1.4-2.4,2.4l-7.1,12.3C46.7,327.1,6.2,245.5,31.5,170.2c8.3-24.6,23-46.5,42.7-63.3
	c2.5,10.4,7.1,20.1,13.4,28.6l1.2,1.6c-43.7,43.7-43.7,114.7,0,158.4s114.7,43.7,158.4,0c43.7-43.7,43.7-114.6,0-158.4l1.2-1.6
	c6.4-8.5,10.9-18.3,13.4-28.6c60.3,51.8,67.2,142.7,15.5,203C249.9,341.7,210,360,168,360C163.3,360,158.6,359.7,153.9,359.2z
	 M414.1,488c-6.9,0-13.5-2.7-18.3-7.6L261.1,345.8c14.1-10.2,26.5-22.6,36.7-36.7l134.6,134.6c10.1,10.1,10.1,26.6,0,36.7
	C427.5,485.3,420.9,488,414.1,488z"/>
<path class="st0" d="M359,106.3l-14.7,51.5c-1.2,4.3,1.3,8.7,5.5,9.9c2.5,0.7,5.3,0.1,7.3-1.5l42.9-35.7l42.9,35.7
	c3.4,2.8,8.4,2.3,11.3-1.1c1.7-2,2.3-4.7,1.5-7.3L441,106.3l36.7-36.7c3.1-3.1,3.1-8.2,0-11.3c-1.5-1.5-3.5-2.3-5.6-2.3h-43
	l-21.8-43.6c-2.4-4-7.5-5.2-11.4-2.9c-1.2,0.7-2.2,1.7-2.9,2.9L371.1,56H328c-4.4,0-8,3.6-8,8c0,2.1,0.8,4.2,2.3,5.7L359,106.3z
	 M376,72c3,0,5.8-1.7,7.2-4.4L400,33.9l16.8,33.7c1.4,2.7,4.1,4.4,7.2,4.4h28.7l-26.3,26.3c-2.1,2.1-2.8,5.1-2,7.8l8.9,31l-28-23.4
	c-3-2.5-7.3-2.5-10.2,0l-28.1,23.4l8.9-31c0.8-2.8,0-5.8-2-7.9L347.3,72H376z"/>
<path class="st0" d="M503.4,220.9c-1.2-3-4.2-4.9-7.4-4.9h-43l-21.8-43.6c-2.4-4-7.5-5.2-11.4-2.9c-1.2,0.7-2.2,1.7-2.9,2.9
	L395.1,216H352c-4.4,0-8,3.6-8,8c0,2.1,0.8,4.2,2.3,5.7l36.7,36.7l-14.7,51.5c-1.2,4.3,1.3,8.7,5.5,9.9c2.5,0.7,5.3,0.1,7.3-1.5
	l42.9-35.7l42.9,35.7c3.4,2.8,8.4,2.3,11.3-1.1c1.7-2,2.3-4.7,1.5-7.3L465,266.3l36.7-36.7C503.9,227.4,504.6,223.9,503.4,220.9z
	 M450.4,258.3c-2.1,2.1-2.8,5.1-2,7.8l8.9,31l-28-23.4c-3-2.5-7.3-2.5-10.2,0l-28.1,23.4l8.9-31c0.8-2.8,0-5.8-2-7.9L371.3,232H400
	c3,0,5.8-1.7,7.2-4.4l16.8-33.7l16.8,33.7c1.4,2.7,4.1,4.4,7.2,4.4h28.7L450.4,258.3z"/>
<rect x="40" y="456" class="st0" width="192" height="16"/>
<rect x="56" y="424" class="st0" width="160" height="16"/>
</svg>
