<?xml version="1.0" encoding="utf-8"?>
<!-- Generator: Adobe Illustrator 27.9.2, SVG Export Plug-In . SVG Version: 6.00 Build 0)  -->
<svg version="1.1" id="Layer_1" xmlns="http://www.w3.org/2000/svg" xmlns:xlink="http://www.w3.org/1999/xlink" x="0px" y="0px"
	 width="512px" height="512px" viewBox="0 0 512 512" style="enable-background:new 0 0 512 512;" xml:space="preserve">
<style type="text/css">
	.st0{fill:#145FFF;}
</style>
<path class="st0" d="M434.6,276.8c6.3-20.6,4.2-42.3-5.9-61.3c-20.9-39.2-69.7-54.1-108.9-33.2s-54.1,69.7-33.2,108.9
	c10.1,19,27,32.9,47.6,39.2c7.8,2.4,15.7,3.5,23.6,3.5c13,0,25.9-3.2,37.7-9.5C414.4,314.2,428.3,297.4,434.6,276.8L434.6,276.8z
	 M338.8,314.9c-16.5-5-30-16.2-38.1-31.4c-16.7-31.4-4.8-70.5,26.6-87.2c9.6-5.1,20-7.6,30.2-7.6c23.1,0,45.4,12.4,57,34.1
	c8.1,15.2,9.8,32.6,4.8,49.1s-16.2,30-31.4,38.1C372.7,318.3,355.2,320,338.8,314.9z M502.5,436.2L486,414.1l-40.6-54.5l2.9-1.5
	c10.2-5.5,14.1-18.2,8.6-28.5l-8.5-16c1.4-2.2,2.9-4.4,4.2-6.8c18.2-32.6,18.6-71.7,1.1-104.6c-13.3-24.9-35.1-43.1-61.6-51.9V79.9
	c0-12.8-10.4-23.2-23.2-23.2h-97.8V28.9c0-11.6-9.4-21-21-21H142.9c-11.6,0-21,9.4-21,21v27.8H24.2C11.4,56.7,1,67.1,1,79.9v211
	c0,12.8,10.4,23.2,23.2,23.2h36.3c-0.7,2.9-0.5,5.9,0.6,8.7c1.4,3.6,4.2,6.3,7.7,7.8l31.4,13.2c-0.8,7.3-0.9,14.7-0.1,22l-31.5,12.9
	c-7.3,3-10.8,11.4-7.9,18.6l12.5,30.8c3.1,7.3,11.5,10.7,18.6,7.7l31.6-12.9c4.6,5.8,9.8,11,15.5,15.7L125.6,470
	c-3,7.3,0.5,15.7,7.7,18.7l30.5,12.9c7.3,3,15.7-0.5,18.7-7.7l13.2-31.4c7.2,0.8,14.5,0.9,22,0.1l13,31.7c2.4,5.4,7.7,8.7,13.2,8.7
	c1.8,0,3.6-0.3,5.4-1l30.6-12.5c3.5-1.4,6.3-4.2,7.8-7.8c1.5-3.5,1.5-7.4,0-10.9l-12.9-31.5c5.7-4.6,10.9-9.7,15.6-15.5l31.3,13.2
	c3.5,1.5,7.4,1.6,10.9,0.2c3.6-1.4,6.4-4.2,7.9-7.7c0,0,12.8-30.4,12.9-30.5c1.5-3.6,1.5-7.6-0.1-11.1c-1.5-3.5-4.2-6.2-7.6-7.6
	L314.3,367c0.5-4.5,0.7-9,0.6-13.5c13.2,5.6,27.4,8.6,41.9,8.7l8.6,16.1c3.8,7.1,11.1,11.1,18.6,11.1c3.3,0,6.7-0.8,9.8-2.5l2.9-1.6
	l14,39.8c0,0,8.6,24.4,8.6,24.5l9.1,25.8c0.7,2.1,1.6,4.1,2.6,6c5.3,9.9,14.1,17.2,24.9,20.6s22.6,2.2,32.6-3.1
	c11-5.8,18.8-16.1,21.5-28.3C512.7,458.7,510,446.1,502.5,436.2L502.5,436.2z M138,28.9c0-2.7,2.2-5,5-5h107.2c2.7,0,5,2.2,5,5v27.8
	H138V28.9z M17,79.9c0-4,3.2-7.2,7.2-7.2H369c3.9,0,7.1,3.2,7.1,7.2v8.5c0,30.8-25.1,55.9-55.9,55.9h-2.6v-8.5
	c0-6.3-2.4-12.2-6.8-16.6s-10.4-6.9-16.6-6.9c-12.9,0-23.4,10.5-23.4,23.5v8.5H122.5v-8.5c0-6.3-2.5-12.2-6.8-16.5
	c-4.4-4.5-10.3-6.9-16.6-6.9c-12.9,0-23.4,10.5-23.4,23.5v8.5H73c-30.8,0-55.9-25.1-55.9-55.9v-8.6H17z M376.1,133.7V146
	c-3.5-0.6-7.1-1-10.6-1.3c-0.1,0-0.3,0-0.4,0c0.1-0.1,0.2-0.2,0.4-0.3c1.5-1.2,3-2.6,4.4-3.9c0.4-0.3,0.7-0.6,1.1-1
	c1.7-1.7,3.4-3.6,4.9-5.4C376,133.8,376,133.7,376.1,133.7L376.1,133.7z M301.6,135.9v24c0,0.3-1.4,0.9-1.6,1.1
	c-4.5,2.8-8.8,5.9-12.9,9.3l-0.2-0.8c-0.3-1,0-2.2,0-3.2c0-10.1,0-20.3,0-30.4c0-4.1,3.3-7.4,7.4-7.4c2.6,0,4.3,1.2,5.3,2.2
	C300.8,132,301.6,133.9,301.6,135.9L301.6,135.9z M106.4,135.9v32.9c0,4.1-3.3,7.4-7.4,7.4s-7.4-3.3-7.4-7.4v-32.9
	c0-4.1,3.3-7.4,7.4-7.4c2,0,3.8,0.8,5.3,2.2C105.6,132,106.4,133.9,106.4,135.9z M17,133.6l0.2,0.2c14.2,17.5,35.9,26.5,58.3,26.5
	v8.5c0,12.9,10.5,23.5,23.4,23.5s23.5-10.5,23.5-23.5v-8.5h148.2c-0.3,0,0.2,10.4,0.4,11.4c0.5,3.8,1.7,7.4,3.9,10.6
	c-10.8,12.6-18.4,27.8-22.4,43.9c-2.6,10.6-3.8,21.7-3.7,32.6c-67-2.4-134.2,0-201.3,0c-9,0-29.2,0-30.4,0L17,133.6L17,133.6z
	 M24.2,298.1c-4,0-7.2-3.2-7.2-7.2v-16.1h233.7c1.6,8,4.1,15.9,7.5,23.3L24.2,298.1z M250.3,350.3c1.3,11.9-2.7,24.2-10.8,33.7
	c-7.8,9.1-18.3,14.4-29.6,14.9c-13.7,0.7-26.9-4.9-35.6-15c-7.4-8.6-11.1-19.8-10.2-31.5c0.8-11.8,6.1-22.4,14.7-29.9
	c4.4-3.8,9.5-6.6,15-8.4H221c1.1,0.3,2.1,0.7,3.1,1.1C238.6,321.6,248.7,335,250.3,350.3L250.3,350.3z M337.9,394.4l-11.5,27.2
	l-35.5-14.9c-3.4-1.5-7.4-0.3-9.6,2.7c-5.9,8.1-13,15.1-21,20.7c-3.1,2.1-4.2,6.1-2.8,9.6l14.5,35.7l-27.4,11.2L230,451
	c-1.2-3.1-4.2-5-7.4-5c-0.4,0-0.8,0-1.2,0.1c-10,1.6-20,1.5-29.3-0.2c-3.7-0.7-7.4,1.3-8.9,4.8l-15,35.5L141,474.7l14.9-35.5
	c1.5-3.4,0.3-7.4-2.7-9.6c-7.9-5.7-14.9-12.8-20.7-21c-2.2-3-6.1-4.2-9.6-2.8l-35.7,14.5l-11.1-27.4l35.6-14.5
	c3.4-1.4,5.5-5,4.9-8.7c-1.6-9.8-1.5-19.7,0.2-29.5c0.6-3.7-1.4-7.3-4.8-8.8l-35.5-14.9l1-2.3h86.7c-9.5,9.9-15.2,22.9-16.2,37.1
	c-1.2,16.1,3.9,31.4,14.1,43.2c11.9,13.7,30,21.4,48.5,20.5c15.7-0.8,30.3-8.1,41-20.5c11-12.8,16.3-29.5,14.6-45.8
	c-1.4-13.1-7.2-25.1-16.1-34.4h17.1c0.5,0.8,1.1,1.6,1.6,2.3c5.7,8,12.4,15.3,20.1,21.4c2.6,2.1,5.4,4.1,8.2,6
	c0.4,0.2,0.7,0.5,1,0.7c1.1,8.7,0.9,17.5-0.6,26.1c-0.6,3.7,1.3,7.3,4.8,8.8L337.9,394.4z M361.3,346.2
	c-59,2.2-105.7-52.6-94.9-110.5c0.8-4.5,2-8.9,3.5-13.1c4.6-13.1,12.1-25.1,21.9-34.9c43.2-43.6,119.1-31.8,147.8,22
	c14.9,28.1,14.5,61.4-1,89.3C423.3,326.4,392.9,345,361.3,346.2L361.3,346.2z M386.2,372.9c-2.4,1.3-5.4,0.4-6.7-2l-5.2-9.8
	c0.2,0,0.3-0.1,0.5-0.1c22.7-3.6,43.7-14.7,60-30.8c0.9-0.9,1.9-1.9,2.8-2.9l5.2,9.8c1.3,2.4,0.4,5.4-2,6.7L386.2,372.9z M411,377.9
	l20.1-10.7l21.1,28.3l-29.5,15.7L411,377.9z M428.1,426.5l33.8-18l5.8,7.7l-36.4,19.4L428.1,426.5z M494.3,467.3
	c-1.7,7.6-6.6,14-13.4,17.6c-6.3,3.4-13.5,4-20.3,1.9c-6.7-2.1-12.2-6.6-15.5-12.8c-0.6-1.2-1.2-2.4-1.6-3.7l-6.8-19.5l40.7-21.7
	l12.4,16.6C494.3,452,496,459.8,494.3,467.3L494.3,467.3z"/>
</svg>
