<svg xmlns="http://www.w3.org/2000/svg" width="10" height="50" viewBox="0 0 10 50">
  <g id="dot" transform="translate(-935 -1932.035)">
    <rect id="Rectangle_13840" data-name="Rectangle 13840" width="10" height="50" transform="translate(935 1932.035)" fill="#fff"/>
    <path id="dot-2" data-name="dot" d="M234.6,178.481a3.625,3.625,0,0,1-2.617-1.083,3.716,3.716,0,0,1-1.121-2.617,3.672,3.672,0,0,1,1.121-2.654,3.871,3.871,0,0,1,5.271,0,3.68,3.68,0,0,1,1.118,2.654,3.724,3.724,0,0,1-1.118,2.617,3.653,3.653,0,0,1-2.654,1.083" transform="translate(705.38 1782.249)" fill="#cecece"/>
  </g>
</svg>
