<?xml version="1.0" encoding="utf-8"?>
<!-- Generator: Adobe Illustrator 27.9.2, SVG Export Plug-In . SVG Version: 6.00 Build 0)  -->
<svg version="1.1" id="Layer_1" xmlns="http://www.w3.org/2000/svg" xmlns:xlink="http://www.w3.org/1999/xlink" x="0px" y="0px"
	 width="512px" height="512px" viewBox="0 0 512 512" style="enable-background:new 0 0 512 512;" xml:space="preserve">
<style type="text/css">
	.st0{fill-rule:evenodd;clip-rule:evenodd;fill:#145FFF;}
</style>
<path class="st0" d="M462.9,337.8c0,43.2-35.2,78.4-78.4,78.4H127.5c-43.2,0-78.4-35.1-78.4-78.4V174.2c0-14.4,4-28,10.8-39.6
	L185.4,260c18.8,18.8,43.9,29.2,70.7,29.2c26.7,0,51.9-10.4,70.6-29.2l125.4-125.4c6.9,11.6,10.8,25.2,10.8,39.6L462.9,337.8
	L462.9,337.8z M384.5,95.9H127.5c-17.8,0-34.3,6-47.5,16.1l126.7,126.7c13.1,13.1,30.6,20.3,49.3,20.3c18.7,0,36.2-7.2,49.3-20.3
	L432,111.9C418.8,101.9,402.4,95.9,384.5,95.9L384.5,95.9z M384.5,65.6H127.5c-59.9,0-108.6,48.7-108.6,108.6v163.6
	c0,59.9,48.7,108.6,108.6,108.6h257.1c59.9,0,108.6-48.7,108.6-108.6V174.2C493.1,114.4,444.4,65.6,384.5,65.6L384.5,65.6z"/>
</svg>
