<svg xmlns="http://www.w3.org/2000/svg" width="529.999" height="659.004" viewBox="0 0 529.999 659.004">
  <g id="Image" transform="translate(-191.501 -984.455)">
    <path id="Subtraction_2" data-name="Subtraction 2" d="M-5697.5-19250.543h-530v-659l530,0v659Zm-495.433-598.91a24.728,24.728,0,0,0-11.9,3.084,24.652,24.652,0,0,0-9.094,8.635,24.106,24.106,0,0,0-2.633,5.971,25.031,25.031,0,0,0-.944,6.852v490.193a25.031,25.031,0,0,0,.944,6.852,24.106,24.106,0,0,0,2.633,5.971,24.634,24.634,0,0,0,9.094,8.629,24.65,24.65,0,0,0,11.9,3.09h.255a24.2,24.2,0,0,0,6.45-.961,24.831,24.831,0,0,0,6.3-2.863l388.434-245.1a24.827,24.827,0,0,0,5-4.146,23.8,23.8,0,0,0,3.568-5.031,24.682,24.682,0,0,0,2.858-11.543,24.647,24.647,0,0,0-2.858-11.537,23.787,23.787,0,0,0-3.568-5.031,24.746,24.746,0,0,0-5-4.146l-388.434-245.1a25.067,25.067,0,0,0-6.3-2.857,23.987,23.987,0,0,0-6.45-.957C-6192.763-19849.453-6192.85-19849.453-6192.934-19849.453Z" transform="translate(6419 20894)" fill="#fff"/>
    <g id="Shape" transform="translate(727.408 968) rotate(90)">
      <path id="Subtraction_1" data-name="Subtraction 1" d="M-6332.25-20441.418h0l-47.251,0a25.5,25.5,0,0,1-7.281-1.043,24.221,24.221,0,0,1-6.272-2.891,25.143,25.143,0,0,1-8.806-9.887,25.151,25.151,0,0,1-2.625-12.977,24.307,24.307,0,0,1,1.452-6.752,25.5,25.5,0,0,1,3.535-6.451l296.182-394.912a25.118,25.118,0,0,1,8.822-7.359,25.129,25.129,0,0,1,11.181-2.641,25.126,25.126,0,0,1,11.18,2.641,25.107,25.107,0,0,1,8.817,7.359l296.187,394.912a25.55,25.55,0,0,1,3.534,6.449,24.306,24.306,0,0,1,1.452,6.752,25.173,25.173,0,0,1-2.626,12.977,25.169,25.169,0,0,1-8.808,9.889,24.318,24.318,0,0,1-6.273,2.891,25.49,25.49,0,0,1-7.282,1.043h-47.247l-228.214-361.678a24.84,24.84,0,0,0-4.151-5,23.713,23.713,0,0,0-5.027-3.568,24.652,24.652,0,0,0-11.542-2.857,24.652,24.652,0,0,0-11.542,2.857,23.652,23.652,0,0,0-5.032,3.568,24.843,24.843,0,0,0-4.146,5l-228.214,361.678Z" transform="translate(6429.5 20903)" fill="#fff"/>
      <path id="Subtraction_3" data-name="Subtraction 3" d="M-6389.812-20441.416h0l-47.3,0a25.565,25.565,0,0,1-7.28-1.041,24.291,24.291,0,0,1-6.272-2.893,25.143,25.143,0,0,1-8.806-9.887,25.151,25.151,0,0,1-2.625-12.977,24.306,24.306,0,0,1,1.452-6.752,25.53,25.53,0,0,1,3.535-6.451l296.187-394.916a24.694,24.694,0,0,1,9.059-7.5,25.182,25.182,0,0,1,10.938-2.5,25.186,25.186,0,0,1,10.939,2.5,24.735,24.735,0,0,1,9.063,7.5l296.182,394.916a25.53,25.53,0,0,1,3.535,6.451,24.312,24.312,0,0,1,1.452,6.752,25.161,25.161,0,0,1-2.626,12.977,25.143,25.143,0,0,1-8.806,9.887,24.225,24.225,0,0,1-6.272,2.891,25.5,25.5,0,0,1-7.281,1.043H-5891.7l-.66-1,47.623,0a24.406,24.406,0,0,0,6.992-1,23.232,23.232,0,0,0,6.018-2.771,24.129,24.129,0,0,0,8.455-9.494,24.144,24.144,0,0,0,2.521-12.459,23.278,23.278,0,0,0-1.389-6.479,24.882,24.882,0,0,0-3.4-6.2l-296.187-394.91a23.664,23.664,0,0,0-8.7-7.2,24.144,24.144,0,0,0-10.5-2.4,24.144,24.144,0,0,0-10.5,2.4,23.664,23.664,0,0,0-8.7,7.2l-296.182,394.91a24.542,24.542,0,0,0-3.4,6.2,23.279,23.279,0,0,0-1.395,6.479,24.193,24.193,0,0,0,2.521,12.459,24.218,24.218,0,0,0,8.455,9.5,23.536,23.536,0,0,0,6.018,2.768,24.435,24.435,0,0,0,6.992,1h47.923l-.625,1Z" transform="translate(6487.107 20903)" fill="#35ccde"/>
    </g>
    <g id="Shape-2" data-name="Shape" transform="translate(661.283 1023.752) rotate(90)">
      <path id="Path_130100" data-name="Path 130100" d="M290.432,22.849a24.181,24.181,0,0,0-11.308,2.8,23.539,23.539,0,0,0-4.926,3.5,24.363,24.363,0,0,0-4.064,4.9L25.038,422.476a24.444,24.444,0,0,0-2.8,6.174,23.408,23.408,0,0,0-.941,6.317,24.317,24.317,0,0,0,11.478,20.815,23.411,23.411,0,0,0,5.845,2.575,24.445,24.445,0,0,0,6.716.926H535.529a24.445,24.445,0,0,0,6.716-.926,23.409,23.409,0,0,0,5.844-2.575,24.317,24.317,0,0,0,11.478-20.815,23.41,23.41,0,0,0-.941-6.317,24.443,24.443,0,0,0-2.8-6.174L310.729,34.041a24.363,24.363,0,0,0-4.064-4.9,23.539,23.539,0,0,0-4.926-3.5,24.181,24.181,0,0,0-11.308-2.8m0-1a24.8,24.8,0,0,1,21.143,11.659l245.1,388.435a25,25,0,0,1-21.143,38.341H45.335a25,25,0,0,1-21.143-38.341l245.1-388.435A24.8,24.8,0,0,1,290.432,21.849Z" fill="#145fff"/>
    </g>
  </g>
</svg>
