<svg xmlns="http://www.w3.org/2000/svg" width="18.387" height="20.302" viewBox="0 0 18.387 20.302">
  <path id="Icon" d="M19.814,17.479a2.791,2.791,0,0,0-2,.765L10.492,14.01a3.43,3.43,0,0,0,.1-.714,3.429,3.429,0,0,0-.1-.714L17.714,8.4a3.065,3.065,0,1,0-.973-2.245,3.41,3.41,0,0,0,.1.714L9.622,11.051a3.083,3.083,0,0,0-2.1-.816A3.032,3.032,0,0,0,4.5,13.3a3.083,3.083,0,0,0,5.173,2.245l7.273,4.234a2.559,2.559,0,0,0-.1.663,2.971,2.971,0,1,0,2.971-2.959Z" transform="translate(-4.5 -3.094)" fill="#145fff"/>
</svg>
