<?xml version="1.0" encoding="utf-8"?>
<!-- Generator: Adobe Illustrator 27.9.2, SVG Export Plug-In . SVG Version: 6.00 Build 0)  -->
<svg version="1.1" id="Capa_1" xmlns="http://www.w3.org/2000/svg" xmlns:xlink="http://www.w3.org/1999/xlink" x="0px" y="0px"
	 width="512px" height="512px" viewBox="0 0 512 512" style="enable-background:new 0 0 512 512;" xml:space="preserve">
<style type="text/css">
	.st0{fill:#145FFF;}
</style>
<g>
	<g>
		<path class="st0" d="M256,512c141.1,0,256-114.9,256-256S397.1,0,256,0S0,114.9,0,256S114.9,512,256,512z M256,34.1
			c122.4,0,221.9,99.5,221.9,221.9S378.4,477.9,256,477.9S34.1,378.4,34.1,256S133.6,34.1,256,34.1L256,34.1z"/>
		<path class="st0" d="M330.7,337.6c3.2,2.6,6.9,3.8,10.7,3.8c5,0,10-2.2,13.3-6.4c5.9-7.3,4.7-18.1-2.6-24l-78.9-63.1V119.5
			c0-9.4-7.7-17.1-17.1-17.1c-9.4,0-17.1,7.7-17.1,17.1V256c0,5.2,2.4,10.1,6.4,13.3L330.7,337.6z"/>
	</g>
</g>
</svg>
