<svg id="Shape" xmlns="http://www.w3.org/2000/svg" width="153" height="146" viewBox="0 0 153 146">
  <g id="Shape-2" data-name="Shape" transform="translate(153 2) rotate(90)" fill="#fff">
    <path d="M 124.2344131469727 116.4999847412109 L 123.7344131469727 116.4999847412109 L 17.76560020446777 116.4999847412109 C 14.28775024414062 116.4999847412109 11.19296646118164 114.6906204223633 9.487016677856445 111.6599197387695 C 7.78106689453125 108.6292037963867 7.839766502380371 105.0447540283203 9.644033432006836 102.0715179443359 L 62.87841796875 14.34725475311279 C 64.61551666259766 11.48470497131348 67.65161895751953 9.775721549987793 71 9.775721549987793 C 74.34836578369141 9.775721549987793 77.38448333740234 11.48470497131348 79.12158203125 14.34725475311279 L 132.3559722900391 102.0715179443359 C 134.1600799560547 105.0444869995117 134.2186431884766 108.6288375854492 132.5126647949219 111.6596527099609 C 130.806640625 114.6905212402344 127.7119674682617 116.4999847412109 124.2344131469727 116.4999847412109 Z" stroke="none"/>
    <path d="M 71 10.27571105957031 C 67.82783508300781 10.27571105957031 64.95153045654297 11.89474487304688 63.30589294433594 14.60662078857422 L 10.07147216796875 102.3308944702148 C 8.362167358398438 105.1476593017578 8.306549072265625 108.5434417724609 9.922714233398438 111.4146575927734 C 11.53887939453125 114.2858581542969 14.47080230712891 115.9999847412109 17.76560211181641 115.9999847412109 L 124.2343978881836 115.9999847412109 C 127.5289077758789 115.9999847412109 130.460693359375 114.2857513427734 132.0769500732422 111.4143829345703 C 133.6931457519531 108.5430755615234 133.6376647949219 105.1473846435547 131.9285125732422 102.3308944702148 L 78.69412231445312 14.60662078857422 C 77.04845428466797 11.89474487304688 74.17214202880859 10.27571105957031 71 10.27571105957031 M 70.99999237060547 9.275718688964844 C 74.30111694335938 9.275718688964844 77.60224914550781 10.87975311279297 79.54904174804688 14.08783721923828 L 132.7834167480469 101.8121109008789 C 136.8273162841797 108.4759750366211 132.0289306640625 116.9999847412109 124.2344055175781 116.9999847412109 C 124.2339324951172 116.9999847412109 124.2348556518555 116.9999847412109 124.2343826293945 116.9999847412109 L 17.76560211181641 116.9999847412109 C 9.970260620117188 117 5.172439575195312 108.4763793945312 9.216567993164062 101.8121109008789 L 62.45098114013672 14.08783721923828 C 64.39775085449219 10.87975311279297 67.69887542724609 9.275718688964844 70.99999237060547 9.275718688964844 Z" stroke="none" fill="#35ccde"/>
  </g>
  <g id="Shape-3" data-name="Shape" transform="translate(143) rotate(90)" fill="#fff">
    <path d="M 129.6674652099609 142.5 L 16.33254623413086 142.5 C 12.99967288970947 142.5 9.970890998840332 140.8030395507812 8.230563163757324 137.9606475830078 C 6.490236282348633 135.1182403564453 6.355908870697021 131.6490783691406 7.871272563934326 128.6806030273438 L 64.53872680664062 17.67447662353516 C 65.37674713134766 16.03291320800781 66.63347625732422 14.68925857543945 68.17308807373047 13.78878593444824 C 69.62152862548828 12.94163990020752 71.29063415527344 12.49387645721436 73 12.49387645721436 C 74.70934295654297 12.49387645721436 76.37847137451172 12.94163990020752 77.82691192626953 13.78878593444824 C 79.36650848388672 14.68925857543945 80.62323760986328 16.03291320800781 81.46125793457031 17.67447662353516 L 138.1287231445312 128.6806030273438 C 139.6440887451172 131.6490631103516 139.5097808837891 135.1182250976562 137.7694549560547 137.9606475830078 C 136.0291137695312 140.8030395507812 133.0003509521484 142.5 129.6674652099609 142.5 Z" stroke="none"/>
    <path d="M 73 12.99388122558594 C 71.3792724609375 12.99388122558594 69.79743957519531 13.41799926757812 68.42550659179688 14.22038269042969 C 66.96856689453125 15.072509765625 65.77852630615234 16.34553527832031 64.98405456542969 17.90182495117188 L 8.316604614257812 128.9079437255859 C 6.880996704101562 131.7201690673828 7.00823974609375 135.0067443847656 8.656967163085938 137.6995544433594 C 10.30570983886719 140.3923492431641 13.17507934570312 142 16.33253479003906 142 L 129.6674499511719 142 C 132.8249053955078 142 135.6942749023438 140.3923645019531 137.343017578125 137.6995544433594 C 138.9917602539062 135.0067443847656 139.1190032958984 131.7201690673828 137.6833953857422 128.9079437255859 L 81.01593017578125 17.90182495117188 C 80.22145080566406 16.34553527832031 79.03141784667969 15.072509765625 77.57447052001953 14.22038269042969 C 76.20254516601562 13.41799926757812 74.6207275390625 12.99388122558594 73 12.99388122558594 M 73 11.99386596679688 C 76.52534484863281 11.99386596679688 80.05068969726562 13.81163024902344 81.90657806396484 17.4471435546875 L 138.5740509033203 128.4532775878906 C 141.9706115722656 135.1068420410156 137.1378326416016 143 129.6674499511719 143 L 16.33253479003906 143 C 8.862167358398438 143 4.02935791015625 135.1068420410156 7.425949096679688 128.4532775878906 L 64.09339904785156 17.4471435546875 C 65.94930267333984 13.81163024902344 69.47464752197266 11.99386596679688 73 11.99386596679688 Z" stroke="none" fill="#7a6af7"/>
  </g>
</svg>
