<svg xmlns="http://www.w3.org/2000/svg" width="16.825" height="20.468" viewBox="0 0 16.825 20.468">
  <g id="Icon" transform="translate(0)">
    <path id="Shape_45_copy" data-name="Shape 45 copy" d="M1232.882,604.415a.633.633,0,0,1-.39-.134c-4.359-3.418-6.35-6.61-7.253-8.688a8.036,8.036,0,0,1-.563-1.617c-.036-.149-.053-.242-.058-.273a8.081,8.081,0,0,1-.15-1.544,8.415,8.415,0,0,1,16.825,0,8.079,8.079,0,0,1-.149,1.542c0,.029-.021.122-.058.275a8.058,8.058,0,0,1-.563,1.617c-.9,2.079-2.893,5.271-7.253,8.688A.632.632,0,0,1,1232.882,604.415Z" transform="translate(-1224.469 -583.947)" fill="#35ccde"/>
    <path id="Shape_45_copy-2" data-name="Shape 45 copy" d="M1233.012,596.785a4.741,4.741,0,1,1,0-9.478,4.915,4.915,0,0,1,2.715.81.567.567,0,0,1,.158.8.6.6,0,0,1-.819.155,3.721,3.721,0,0,0-2.054-.612,3.589,3.589,0,1,0,3.676,3.588,3.486,3.486,0,0,0-.293-1.406.57.57,0,0,1,.311-.755.6.6,0,0,1,.774.3,4.615,4.615,0,0,1,.387,1.858A4.8,4.8,0,0,1,1233.012,596.785Z" transform="translate(-1224.482 -583.302)" fill="#fff"/>
  </g>
</svg>
