<svg xmlns="http://www.w3.org/2000/svg" width="60.005" height="60.06" viewBox="0 0 60.005 60.06">
  <g id="الأغذية" transform="translate(-1.995 -1.94)">
    <path id="Path_124722" data-name="Path 124722" d="M61,32H45a1,1,0,0,0-1,.92,11.82,11.82,0,0,1-3.33,7.37L33,35.21V28.75l2.45,1.44a6.15,6.15,0,0,0,6.1,0l4-2.33a1,1,0,0,0,0-1.72l-4-2.33a6.2,6.2,0,0,0-6.1,0L33,25.25v-4.5l2.45,1.44a6.15,6.15,0,0,0,6.1,0l4-2.33a1,1,0,0,0,0-1.72l-4-2.33a6.2,6.2,0,0,0-6.1,0L33,17.25v-1l2.19-3.72a6.2,6.2,0,0,0,0-6.1l-2.33-4a1,1,0,0,0-1.72,0l-2.33,4a6.2,6.2,0,0,0,0,6.1L31,16.27v1l-2.45-1.44a6.2,6.2,0,0,0-6.1,0l-4,2.33a1,1,0,0,0,0,1.72l4,2.33a6.15,6.15,0,0,0,6.1,0L31,20.75v4.5l-2.45-1.44a6.2,6.2,0,0,0-6.1,0l-4,2.33a1,1,0,0,0,0,1.72l4,2.33a6.15,6.15,0,0,0,6.1,0L31,28.75v6.46l-7.63,5.08a11.87,11.87,0,0,1-3.32-7.36,1,1,0,0,0-1-.93H3a1,1,0,0,0-1,1v5a1,1,0,0,0,1,1H7a25.72,25.72,0,0,0,2.38,5.76l-2.8,2.79a1,1,0,0,0,0,1.42L15,57.46a1,1,0,0,0,1.42,0l2.79-2.8A25.72,25.72,0,0,0,25,57v4a1,1,0,0,0,1,1H38a1,1,0,0,0,1-1V57a25.72,25.72,0,0,0,5.76-2.38l2.79,2.8a1,1,0,0,0,1.42,0L57.46,49a1,1,0,0,0,0-1.42l-2.8-2.79A25.72,25.72,0,0,0,57,39h4a1,1,0,0,0,1-1V33A1,1,0,0,0,61,32ZM39.08,41.66a11.88,11.88,0,0,1-14.16,0L32,36.94ZM36.47,25.53a4.14,4.14,0,0,1,4.06,0L43,27l-2.5,1.47a4.14,4.14,0,0,1-4.06,0L34,27Zm0-8a4.14,4.14,0,0,1,4.06,0L43,19l-2.5,1.47a4.14,4.14,0,0,1-4.06,0L34,19ZM30.53,7.47,32,5l1.47,2.5a4.19,4.19,0,0,1,0,4.06L32,14l-1.47-2.5a4.19,4.19,0,0,1,0-4.03Zm-3,13a4.14,4.14,0,0,1-4.06,0L21,19l2.5-1.47a4.14,4.14,0,0,1,4.06,0L30,19Zm0,8a4.14,4.14,0,0,1-4.06,0L21,27l2.5-1.47a4.14,4.14,0,0,1,4.06,0L30,27ZM60,37H56.27a1,1,0,0,0-1,.76,23.9,23.9,0,0,1-2.75,6.64,1,1,0,0,0,.15,1.23l2.64,2.63-7.08,7.08-2.6-2.64a1,1,0,0,0-1.23-.15,23.9,23.9,0,0,1-6.64,2.75,1,1,0,0,0-.76,1V60H27V56.27a1,1,0,0,0-.76-1,23.9,23.9,0,0,1-6.64-2.75,1,1,0,0,0-1.23.15l-2.63,2.64L8.66,48.26l2.64-2.63a1,1,0,0,0,.15-1.23A23.9,23.9,0,0,1,8.7,37.76a1,1,0,0,0-1-.76H4V34H18.15a14,14,0,0,0,27.71,0H60Z" fill="#003391"/>
    <path id="Path_124723" data-name="Path 124723" d="M53,10.32l.81-2.43a3,3,0,1,0-2-.19L51.28,9H44v2h8A1,1,0,0,0,53,10.32ZM53,4a1,1,0,1,1-1,1A1,1,0,0,1,53,4Z" fill="#35ccde"/>
    <path id="Path_124724" data-name="Path 124724" d="M59.76,16.11,59,13.68A1,1,0,0,0,58,13H49v2h8.28l.43,1.3a3,3,0,1,0,2-.19ZM59,20a1,1,0,1,1,1-1A1,1,0,0,1,59,20Z" fill="#35ccde"/>
    <rect id="Rectangle_13842" data-name="Rectangle 13842" width="4" height="2" transform="translate(38 9)" fill="#003391"/>
    <rect id="Rectangle_13843" data-name="Rectangle 13843" width="3" height="2" transform="translate(44 13)" fill="#003391"/>
    <path id="Path_124725" data-name="Path 124725" d="M20,9H12.72l-.43-1.3a3,3,0,1,0-2,.19l.81,2.43A1,1,0,0,0,12,11h8ZM11,4a1,1,0,1,1-1,1A1,1,0,0,1,11,4Z" fill="#35ccde"/>
    <path id="Path_124726" data-name="Path 124726" d="M5,22a3,3,0,0,0,1.29-5.7L6.72,15H15V13H6a1,1,0,0,0-1,.68l-.81,2.43A3,3,0,0,0,5,22Zm0-4a1,1,0,1,1-1,1A1,1,0,0,1,5,18Z" fill="#35ccde"/>
    <rect id="Rectangle_13844" data-name="Rectangle 13844" width="4" height="2" transform="translate(22 9)" fill="#003391"/>
    <rect id="Rectangle_13845" data-name="Rectangle 13845" width="3" height="2" transform="translate(17 13)" fill="#003391"/>
  </g>
</svg>
