<svg xmlns="http://www.w3.org/2000/svg" width="56.59" height="65.199" viewBox="0 0 56.59 65.199">
  <g id="العقار" transform="translate(-33.805 0)">
    <path id="Path_124722" data-name="Path 124722" d="M302.511,366.972a1.211,1.211,0,0,0,1.21-1.21v-4.121a1.211,1.211,0,0,0-1.21-1.21H298.39a1.211,1.211,0,0,0-1.21,1.21v4.121a1.211,1.211,0,0,0,1.21,1.21Zm-3.421-4.63h2.721v2.721H299.09Z" transform="translate(-229.836 -314.533)" fill="#003391"/>
    <path id="Path_124723" data-name="Path 124723" d="M380.883,366.972a1.211,1.211,0,0,0,1.21-1.21v-4.121a1.211,1.211,0,0,0-1.21-1.21h-4.121a1.211,1.211,0,0,0-1.21,1.21v4.121a1.211,1.211,0,0,0,1.21,1.21Zm-3.421-4.63h2.721v2.721h-2.721Z" transform="translate(-298.228 -314.533)" fill="#003391"/>
    <path id="Path_124724" data-name="Path 124724" d="M274.692,231.661h-1.268V211.5a1.513,1.513,0,0,0-1.042-1.435V200.52a.955.955,0,0,0-1.91,0v1.869h-8.661V193.9a.955.955,0,1,0-1.91,0v.9h-8.66v-.9a.955.955,0,1,0-1.91,0V207.13a1.512,1.512,0,0,0-1.018,1.427v8.012a.955.955,0,1,0,1.91,0v-7.613h12.353v1.568a1.374,1.374,0,0,0,1.372,1.372h7.566v19.765h-6.582v-6.782a1.211,1.211,0,0,0-1.21-1.21h-5.731a1.211,1.211,0,0,0-1.21,1.21v6.782h-6.558V221.026a.955.955,0,0,0-1.91,0v10.636h-1.268a.955.955,0,0,0,0,1.91h27.647a.955.955,0,1,0,0-1.91ZM259.9,196.7v5.687h-8.66V196.7Zm-8.66,7.6h8.66v2.747h-8.66Zm11.734,2.747h-1.164V204.3h8.661v5.687h-5.986v-1.429A1.513,1.513,0,0,0,262.976,207.046Zm-4.284,18.534h4.33v6.082h-4.33Z" transform="translate(-185.253 -168.372)" fill="#35ccde"/>
    <path id="Path_124725" data-name="Path 124725" d="M56.463,59.58a1.226,1.226,0,0,0-1.18-.876H53.794V17.318h.876a1.511,1.511,0,0,0,1.489-1.768l-.117-.677h9.087a.955.955,0,0,0,0-1.91H55.711l-.419-2.425H84.979a1.212,1.212,0,1,1,0,2.425H69.586a.955.955,0,1,0,0,1.91H81.549V21.4a3.18,3.18,0,1,0,4.134,3.033.955.955,0,0,0-1.91,0A1.269,1.269,0,1,1,82.5,23.16a.955.955,0,0,0,.955-.955V14.873H84.98a3.122,3.122,0,1,0,0-6.245H78.016L49.862.041h0A.916.916,0,0,0,49.542,0a.932.932,0,0,0-.475.151c-.073.047,1.048-.71-12.523,8.477H35.177A1.373,1.373,0,0,0,33.805,10v3.5a1.373,1.373,0,0,0,1.372,1.371h1.867v3.4H35.316A1.512,1.512,0,0,0,33.8,19.785v3.337a1.512,1.512,0,0,0,1.511,1.511h5.365a1.512,1.512,0,0,0,1.511-1.511V19.785a1.512,1.512,0,0,0-1.511-1.511H38.953v-3.4h4.229l-.117.677a1.511,1.511,0,0,0,1.489,1.768h.818V58.7H43.883a1.226,1.226,0,0,0-1.18.875l-1.221,4.029a1.233,1.233,0,0,0,1.18,1.59H56.5a1.233,1.233,0,0,0,1.18-1.59ZM40.282,22.722H35.715V20.184h4.567Zm11.6,27.261-3.4-3.762h3.4Zm0-7.2-3.4-3.762h3.4Zm0-7.2-3.4-3.762h3.4Zm0-7.2-3.4-3.762h3.4Zm-1.2,1.524h-3.4V26.156Zm0,7.2h-3.4V33.352Zm0,7.2h-3.4V40.549Zm-3.4,3.434,3.4,3.762h-3.4Zm0-25.023V18.959l3.4,3.763Zm4.6,30.7V57.18l-3.4-3.762Zm0-32.219-3.51-3.88h3.51Zm3.079-12.57-.206-1.192a1.508,1.508,0,0,0-1.489-1.253H50.538V2.244l20.93,6.384H54.962ZM48.628,2.754V6.182H45.957a1.508,1.508,0,0,0-1.489,1.253l-.206,1.192H39.951ZM38,12.963H35.715V10.538h8.217l-.419,2.425Zm7.25,1.15s0-.01,0-.014l1.038-6.006h6.638L54.2,15.408H45.029Zm2.03,40.828,3.4,3.762h-3.4Zm-3.707,8.348.81-2.675h10.4l.811,2.675Z" transform="translate(0 0)" fill="#003391"/>
  </g>
</svg>
