<svg id="التراث" xmlns="http://www.w3.org/2000/svg" width="66.753" height="66.753" viewBox="0 0 66.753 66.753">
  <path id="Path_124722" data-name="Path 124722" d="M63.415,53.124h-.973V31.569A3.342,3.342,0,0,0,59.1,28.231H56.721L52.54,20.172a3.324,3.324,0,0,0-2.97-1.815H47.143L46.632,6.249A3.332,3.332,0,0,0,43.3,3.06h-7.14V1.113a1.113,1.113,0,0,0-2.225,0V3.06h-4.45V2.086a1.113,1.113,0,1,0-2.225,0V3.06h-4.45A3.342,3.342,0,0,0,19.47,6.4v.834H12.385a3.348,3.348,0,0,0-3.33,3.11L7.583,31.987a3.341,3.341,0,0,0-3.272,3.336v17.8H3.338A3.342,3.342,0,0,0,0,56.462V65.64a1.113,1.113,0,1,0,2.225,0V56.462a1.114,1.114,0,0,1,1.113-1.113H26.423a1.11,1.11,0,0,0,1.109-1.182c.005-.083,0,.486,0-6.884A3.342,3.342,0,0,0,24.2,43.946H14.6a3.342,3.342,0,0,0-3.338,3.338v2.295a1.113,1.113,0,1,0,2.225,0V47.283A1.114,1.114,0,0,1,14.6,46.171h9.6a1.114,1.114,0,0,1,1.113,1.113v5.841H6.536v-17.8a1.114,1.114,0,0,1,1.113-1.113H20.461a1.109,1.109,0,0,1,.62.189l24.554,16.47a1.113,1.113,0,0,0,1.239-1.848L22.32,32.552a3.326,3.326,0,0,0-1.859-.566H9.813l1.462-21.492a1.116,1.116,0,0,1,1.11-1.036H19.47V19.47a1.113,1.113,0,0,0,2.225,0V6.4a1.114,1.114,0,0,1,1.113-1.113H43.3a1.11,1.11,0,0,1,1.111,1.06l.507,12.012H35.891a3.34,3.34,0,0,0-3.28,2.722l-.154.821a1.113,1.113,0,0,1-1.093.907H18.132a3.338,3.338,0,0,0-3.313,2.934L14.524,28.1a1.113,1.113,0,0,0,2.208.276l.3-2.362a1.113,1.113,0,0,1,1.1-.98H31.363a3.339,3.339,0,0,0,3.28-2.722l.154-.821a1.113,1.113,0,0,1,1.093-.907H49.569a1.11,1.11,0,0,1,.993.61l3.652,7.039H51.492a3.333,3.333,0,0,0-2.251.873l-9.584,8.774a1.113,1.113,0,0,0,1.5,1.641l9.582-8.772a1.111,1.111,0,0,1,.75-.291H59.1a1.114,1.114,0,0,1,1.113,1.113V53.124H31.793a1.113,1.113,0,1,0,0,2.225H63.415a1.114,1.114,0,0,1,1.113,1.113V65.64a1.113,1.113,0,0,0,2.225,0V56.462A3.341,3.341,0,0,0,63.415,53.124Z" fill="#003391"/>
  <path id="Path_124723" data-name="Path 124723" d="M268.113,180A1.113,1.113,0,0,0,267,181.113v.973a1.113,1.113,0,0,0,2.225,0v-.973A1.113,1.113,0,0,0,268.113,180Z" transform="translate(-229.869 -154.968)" fill="#35ccde"/>
  <path id="Path_124724" data-name="Path 124724" d="M187,206.113v.973a1.113,1.113,0,0,0,2.225,0v-.973a1.113,1.113,0,0,0-2.225,0Z" transform="translate(-160.994 -176.491)" fill="#35ccde"/>
  <path id="Path_124725" data-name="Path 124725" d="M228.113,205A1.113,1.113,0,0,0,227,206.113v.973a1.113,1.113,0,0,0,2.225,0v-.973A1.113,1.113,0,0,0,228.113,205Z" transform="translate(-195.431 -176.491)" fill="#35ccde"/>
  <path id="Path_124726" data-name="Path 124726" d="M309.225,182.086v-.973a1.113,1.113,0,0,0-2.225,0v.973a1.113,1.113,0,0,0,2.225,0Z" transform="translate(-264.306 -154.968)" fill="#35ccde"/>
  <path id="Path_124727" data-name="Path 124727" d="M191.113,71.225h1.252a1.113,1.113,0,1,0,0-2.225h-1.252a1.113,1.113,0,0,0,0,2.225Z" transform="translate(-163.577 -59.404)" fill="#35ccde"/>
  <path id="Path_124728" data-name="Path 124728" d="M191.113,111.225h1.252a1.113,1.113,0,1,0,0-2.225h-1.252a1.113,1.113,0,1,0,0,2.225Z" transform="translate(-163.577 -93.842)" fill="#35ccde"/>
  <path id="Path_124729" data-name="Path 124729" d="M284.335,85.225a1.113,1.113,0,0,0,0-2.225h-.126a1.113,1.113,0,0,0,0,2.225Z" transform="translate(-243.727 -71.457)" fill="#35ccde"/>
  <path id="Path_124730" data-name="Path 124730" d="M238.712,85.225a1.113,1.113,0,1,0,0-2.225h-1.6a1.113,1.113,0,0,0,0,2.225Z" transform="translate(-203.18 -71.457)" fill="#35ccde"/>
</svg>
