<svg xmlns="http://www.w3.org/2000/svg" width="56.793" height="56.704" viewBox="0 0 56.793 56.704">
  <g id="energy_efficiency_x2C__intelligent_energy_control_1_" transform="translate(-1 -1.047)">
    <g id="XMLID_548_" transform="translate(10.466 1.047)">
      <path id="Path_124722" data-name="Path 124722" d="M6.416,23.865a.968.968,0,0,1,.719-1.136.98.98,0,0,1,1.136.738.946.946,0,0,1-.738,1.117.584.584,0,0,1-.189.019.951.951,0,0,1-.928-.738Zm35.912.682a.924.924,0,0,1-.719-1.117.94.94,0,1,1,1.836.4.936.936,0,0,1-.928.738A.71.71,0,0,1,42.329,24.546ZM6,19.927a.947.947,0,0,1,1.893,0,.947.947,0,0,1-1.893,0Zm35.969-.038v-.076a.947.947,0,0,1,1.893,0v.076a.947.947,0,0,1-1.893,0ZM7.136,17.106A.951.951,0,0,1,6.4,15.989a.949.949,0,0,1,1.855.4.951.951,0,0,1-.928.738.644.644,0,0,1-.189-.019Zm34.454-.833a.933.933,0,0,1,.719-1.117.953.953,0,0,1,1.136.719.98.98,0,0,1-.738,1.136c-.057,0-.133.019-.189.019a.934.934,0,0,1-.928-.757ZM8.1,13.471A.941.941,0,1,1,9.351,13a1,1,0,0,1-.871.568A.862.862,0,0,1,8.1,13.471ZM40.473,12.9a.951.951,0,0,1,.473-1.249.92.92,0,0,1,1.249.473.941.941,0,0,1-.473,1.249.97.97,0,0,1-1.249-.473ZM9.805,10.121A.927.927,0,0,1,9.6,8.8.937.937,0,0,1,10.9,8.587a.939.939,0,0,1-.549,1.7.986.986,0,0,1-.549-.17Zm28.87-.3A.949.949,0,1,1,40,10.026a.879.879,0,0,1-.549.189A.935.935,0,0,1,38.675,9.818ZM12.153,7.186a.933.933,0,0,1,.076-1.325.945.945,0,1,1,1.268,1.4,1.05,1.05,0,0,1-.644.246A.969.969,0,0,1,12.153,7.186Zm24.137,0a.938.938,0,0,1-.076-1.344.954.954,0,0,1,1.344-.057.931.931,0,0,1,.057,1.325.909.909,0,0,1-.7.322.872.872,0,0,1-.625-.246ZM15.068,4.82a.979.979,0,0,1,.36-1.306.938.938,0,0,1,1.287.341.956.956,0,0,1-.341,1.306,1.085,1.085,0,0,1-.473.114A.95.95,0,0,1,15.068,4.82ZM33.393,5.1a.95.95,0,0,1,.947-1.647.939.939,0,0,1-.473,1.761A1.085,1.085,0,0,1,33.393,5.1ZM18.419,3.1A.948.948,0,0,1,19.025,1.9a.93.93,0,0,1,1.193.587A.946.946,0,0,1,19.611,3.7a1.461,1.461,0,0,1-.284.038.955.955,0,0,1-.909-.644Zm11.718.568a.964.964,0,0,1-.606-1.193A.946.946,0,1,1,30.44,3.7,1.657,1.657,0,0,1,30.137,3.665ZM22.054,2.113a.94.94,0,0,1,.833-1.041.93.93,0,0,1,1.041.833.915.915,0,0,1-.833,1.041H23A.945.945,0,0,1,22.054,2.113Zm4.6.814A.923.923,0,0,1,25.821,1.9a.924.924,0,0,1,1.022-.852.942.942,0,0,1,.852,1.041.933.933,0,0,1-.947.852.206.206,0,0,1-.095-.019Z" transform="translate(-6 -1.047)" fill="#7a6af7"/>
    </g>
    <g id="XMLID_551_" transform="translate(1 15.753)">
      <g id="XMLID_552_" transform="translate(5.443 10.248)">
        <path id="Path_124723" data-name="Path 124723" d="M18.445,29.731a.947.947,0,0,1-.947-.947v-.877a8.764,8.764,0,0,0-6.7-8.458.947.947,0,0,1,.462-1.836,10.655,10.655,0,0,1,8.131,10.295v.877a.947.947,0,0,1-.947.947Z" transform="translate(1.669 -11.233)" fill="#003391"/>
        <path id="Path_124724" data-name="Path 124724" d="M13.127,25.944a.951.951,0,0,1-.67-.276L4.151,17.376a.945.945,0,0,1-.276-.67.957.957,0,0,1,.276-.67c2.6-2.6,5.814-2.383,8.8.606L17.219,20.9a.946.946,0,1,1-1.337,1.34l-4.269-4.259c-1.942-1.944-3.756-2.353-5.4-1.219l7.576,7.565a.95.95,0,0,1,0,1.34.928.928,0,0,1-.664.276Z" transform="translate(-3.875 -14.229)" fill="#003391"/>
        <g id="XMLID_553_" transform="translate(2.13 20.391)">
          <g id="XMLID_566_" transform="translate(1.893)">
            <g id="XMLID_283_">
              <path id="XMLID_2179_" d="M6,26.1v4.576H7.893V26.893H21.145v3.786h1.893V26.1a1.128,1.128,0,0,0-.986-1.1H6.907A1.06,1.06,0,0,0,6,26.1Z" transform="translate(-6 -25)" fill="#003391"/>
            </g>
          </g>
          <g id="XMLID_281_" transform="translate(0 3.786)">
            <g id="XMLID_282_">
              <path id="XMLID_2176_" d="M5,33.626a.947.947,0,1,0,1.893,0V28.893H22.038v4.731a.947.947,0,1,0,1.893,0V28.1a1.128,1.128,0,0,0-.986-1.1H5.907A1.06,1.06,0,0,0,5,28.1Z" transform="translate(-5 -27)" fill="#003391"/>
            </g>
          </g>
        </g>
      </g>
      <g id="XMLID_266_">
        <path id="Path_124725" data-name="Path 124725" d="M17.947,29.73A.947.947,0,0,1,17,28.784v-.877a10.655,10.655,0,0,1,8.131-10.295.947.947,0,1,1,.462,1.836,8.764,8.764,0,0,0-6.7,8.458v.877a.947.947,0,0,1-.947.947Z" transform="translate(13.29 -0.984)" fill="#003391"/>
        <path id="Path_124726" data-name="Path 124726" d="M25.3,25.943a.947.947,0,0,1-.67-1.617l7.576-7.565c-1.645-1.134-3.455-.725-5.4,1.219L22.542,22.24a.946.946,0,0,1-1.337-1.34l4.269-4.259c2.991-2.989,6.2-3.209,8.8-.606a.951.951,0,0,1,0,1.34L25.97,25.667a.943.943,0,0,1-.668.276Z" transform="translate(16.797 -3.98)" fill="#003391"/>
        <g id="XMLID_267_">
          <g id="Group_48872" data-name="Group 48872">
            <path id="Path_124727" data-name="Path 124727" d="M16.145,38.436a.952.952,0,0,0-.362-.746L9.044,32.409a6.96,6.96,0,0,1-1.719-2.132l-4.432-10.3-.027-8.786a1.667,1.667,0,0,1,1.441-.466c1.09.146,1.6,1.314,1.842,2.264A20.613,20.613,0,0,1,6.658,16.8a.908.908,0,0,0,1,.842.981.981,0,0,0,.88-1.045,21.86,21.86,0,0,0-.555-4.066C7.23,9.51,5.244,8.641,3.624,8.843,2.335,9,1,9.869,1,11.047V20.17a.95.95,0,0,0,.078.375L5.583,31.019A8.737,8.737,0,0,0,7.87,33.895l6.382,5v2.452h1.893Z" transform="translate(-1 -8.815)" fill="#003391"/>
            <path id="Path_124728" data-name="Path 124728" d="M23,38.435a.952.952,0,0,1,.362-.746L30.1,32.408a6.96,6.96,0,0,0,1.719-2.132l4.432-10.3.027-8.786a1.671,1.671,0,0,0-1.443-.466c-1.09.146-1.6,1.312-1.842,2.264a20.613,20.613,0,0,0-.509,3.813.908.908,0,0,1-1,.842A.981.981,0,0,1,30.6,16.6a21.86,21.86,0,0,1,.555-4.066c.755-3.021,2.741-3.89,4.362-3.686,1.293.157,2.628,1.024,2.628,2.2v9.123a.949.949,0,0,1-.078.375L33.562,31.018a8.737,8.737,0,0,1-2.287,2.876l-6.382,5v2.452H23Z" transform="translate(18.648 -8.815)" fill="#003391"/>
          </g>
          <g id="XMLID_271_" transform="translate(30.29 30.639)">
            <g id="XMLID_272_">
              <path id="XMLID_273_" d="M34.038,26.1v4.576H32.145V26.893H18.893v3.786H17V26.1a1.128,1.128,0,0,1,.986-1.1H33.131A1.06,1.06,0,0,1,34.038,26.1Z" transform="translate(-17 -25)" fill="#003391"/>
            </g>
          </g>
          <g id="XMLID_268_" transform="translate(30.29 34.426)">
            <g id="XMLID_269_" transform="translate(0 0)">
              <path id="XMLID_270_" d="M35.931,33.626a.947.947,0,1,1-1.893,0V28.893H18.893v4.731a.947.947,0,1,1-1.893,0V28.1a1.128,1.128,0,0,1,.986-1.1H35.024a1.06,1.06,0,0,1,.907,1.1Z" transform="translate(-17 -27)" fill="#003391"/>
            </g>
          </g>
        </g>
      </g>
    </g>
    <g id="Group_48876" data-name="Group 48876" transform="translate(21.823 6.639)">
      <g id="Group_48875" data-name="Group 48875">
        <g id="Group_48874" data-name="Group 48874">
          <g id="Group_48873" data-name="Group 48873">
            <path id="Path_124729" data-name="Path 124729" d="M16.733,30.5a.98.98,0,0,1-.35-.064.946.946,0,0,1-.579-1.066l1.668-8.335H12.947a.945.945,0,0,1-.8-1.448L21.61,4.444a.947.947,0,0,1,1.73.689L21.447,14.6a.947.947,0,0,1-1.857-.371l.877-4.383-5.812,9.3h3.972a.95.95,0,0,1,.93,1.134l-.877,4.381L25.4,13.91a.946.946,0,0,1,1.6,1L17.536,30.058A.94.94,0,0,1,16.733,30.5Z" transform="translate(-11.999 -4.001)" fill="#35ccde"/>
          </g>
        </g>
      </g>
    </g>
  </g>
</svg>
