<svg xmlns="http://www.w3.org/2000/svg" width="66.03" height="59.294" viewBox="0 0 66.03 59.294">
  <g id="الترفيه" transform="translate(0 -26.114)">
    <path id="Path_124722" data-name="Path 124722" d="M223.521,89.117a1.733,1.733,0,0,0,.869-.236l7.554-4.362a1.738,1.738,0,0,0,0-3.01l-7.554-4.361a1.738,1.738,0,0,0-2.607,1.5v8.723a1.745,1.745,0,0,0,1.738,1.741Zm.193-10.129,6.975,4.027-6.975,4.027Z" transform="translate(-193.181 -44.248)" fill="#7a6af7"/>
    <circle id="Ellipse_9921" data-name="Ellipse 9921" cx="1.238" cy="1.238" r="1.238" transform="translate(38.762 49.195)" fill="#7a6af7"/>
    <circle id="Ellipse_9922" data-name="Ellipse 9922" cx="1.238" cy="1.238" r="1.238" transform="matrix(0.987, -0.16, 0.16, 0.987, 43.689, 50.791)" fill="#7a6af7"/>
    <path id="Path_124723" data-name="Path 124723" d="M129.9,26.114H78.354a.965.965,0,1,0,0,1.931H129.9a1.611,1.611,0,0,1,1.609,1.609V44.467a.965.965,0,1,0,1.931,0V29.654a3.544,3.544,0,0,0-3.54-3.54Z" transform="translate(-67.409)" fill="#35ccde"/>
    <path id="Path_124724" data-name="Path 124724" d="M65.065,48.557a.965.965,0,0,0-.965.965V60.037H60.912l.342-2.837a2.51,2.51,0,0,0-.422-1.717,4.493,4.493,0,0,0-3.51-6.545q-.214-.022-.428-.025a4.5,4.5,0,0,0-4.006-4.957,4.495,4.495,0,0,0-8.809.28,4.607,4.607,0,0,0-.054.493q-.135-.008-.271-.008a4.483,4.483,0,0,0-3.017,1.163,4.495,4.495,0,0,0-7.5,3.07,4.526,4.526,0,0,0-1.532.651H19.94a3.7,3.7,0,0,0-7.146,0H10.056a.965.965,0,1,0,0,1.931h2.738a3.7,3.7,0,0,0,7.146,0H30.073a4.479,4.479,0,0,0,.151,3.915,2.512,2.512,0,0,0-.443,1.75l.342,2.837H1.931V29.654A1.611,1.611,0,0,1,3.54,28.045H6.11a.965.965,0,1,0,0-1.931H3.54A3.544,3.544,0,0,0,0,29.654V67.037a3.544,3.544,0,0,0,3.54,3.54H24.7v7.545H21.785a.965.965,0,1,0,0,1.931H32.539l.38,3.147a2.512,2.512,0,0,0,2.492,2.209H55.625A2.512,2.512,0,0,0,58.117,83.2L59.64,70.577h2.851a3.544,3.544,0,0,0,3.54-3.54V49.522a.965.965,0,0,0-.965-.965ZM34.187,50.781a.972.972,0,0,0,1.006-1.128,2.563,2.563,0,0,1,4.492-2.083,1.383,1.383,0,0,0,2.1,0,2.571,2.571,0,0,1,2.513-.86,1.382,1.382,0,0,0,1.659-1.479,2.585,2.585,0,0,1,2.285-2.8,2.552,2.552,0,0,1,2.81,2.233,1.375,1.375,0,0,0,1.37,1.2h0a2.565,2.565,0,0,1,2.462,3.279,1.378,1.378,0,0,0,1.534,1.737,2.56,2.56,0,0,1,2.772,3.551,2.493,2.493,0,0,0-.432-.041H32.273a2.5,2.5,0,0,0-.4.036,2.516,2.516,0,0,1-.237-.914,2.564,2.564,0,0,1,2.556-2.731Zm16.452,32.7.337-9.9c.184-.112.363-.228.536-.352a6.457,6.457,0,0,0,2.245-2.69l-.868,12.944Zm-12.492,0-.868-12.944a6.457,6.457,0,0,0,2.244,2.69c.173.124.352.24.536.352l.337,9.9Zm7.371-10.391c-3.7,0-6.716-2.037-6.716-4.541S41.814,64,45.517,64s6.716,2.037,6.716,4.541S49.221,73.087,45.517,73.087Zm.965-10.973V56.32h3.149l-.219,6.439a10.9,10.9,0,0,0-2.93-.645Zm-1.931,0a10.894,10.894,0,0,0-2.93.645L41.4,56.32h3.149v5.794ZM39.471,56.32l.252,7.41c-.067.045-.135.09-.2.137A6.19,6.19,0,0,0,37.055,67.2L36.326,56.32Zm2.55,18.151a11.021,11.021,0,0,0,2.531.505v8.5H42.328Zm4.462.505a11.016,11.016,0,0,0,2.531-.505l-.307,9.006H46.483Zm7.5-7.78a6.189,6.189,0,0,0-2.468-3.329c-.066-.047-.133-.092-.2-.137l.252-7.41h3.145ZM16.367,52.341a1.771,1.771,0,1,1,1.771-1.771A1.773,1.773,0,0,1,16.367,52.341ZM1.931,67.037v-5.07H30.356l.806,6.679H3.54a1.611,1.611,0,0,1-1.609-1.609Zm24.7,11.084V70.577H31.4l.91,7.545Zm8.2,4.846-3.138-26a.579.579,0,0,1,.575-.649h2.118l1.82,27.157h-.8a.58.58,0,0,1-.575-.51Zm21.365,0a.58.58,0,0,1-.575.51h-.8l1.82-27.157h2.118a.579.579,0,0,1,.575.649ZM62.49,68.646H59.873l.806-6.679H64.1v5.07A1.611,1.611,0,0,1,62.49,68.646Z" transform="translate(0 0)" fill="#003391"/>
  </g>
</svg>
