<svg xmlns="http://www.w3.org/2000/svg" width="58" height="63.999" viewBox="0 0 58 63.999">
  <g id="Go_Green" data-name="Go Green" transform="translate(-3 -0.001)">
    <path id="Path_124722" data-name="Path 124722" d="M59.671,34.329a4.535,4.535,0,0,0-6.414,0l-7.764,7.764A3.987,3.987,0,0,0,42,40H30.644a11.018,11.018,0,0,0-16.285-.773L10,43.586,8.707,42.293a1,1,0,0,0-1.414,0l-4,4a1,1,0,0,0,0,1.414l16,16a1,1,0,0,0,1.414,0l4-4a1,1,0,0,0,0-1.414L23.414,57l1.122-1.122A3.022,3.022,0,0,1,26.657,55H41.272a9.933,9.933,0,0,0,7.071-2.929L59.671,40.743a4.535,4.535,0,0,0,0-6.414ZM20,61.586,5.414,47,8,44.414,22.586,59ZM58.257,39.329,46.929,50.657A7.948,7.948,0,0,1,41.272,53H26.657a4.967,4.967,0,0,0-3.535,1.464L22,55.586,11.414,45l4.359-4.359a9.018,9.018,0,0,1,13.451.784l.154.195a1,1,0,0,0,.785.38H42a2,2,0,0,1,0,4H28a1,1,0,0,0,0,2H42a3.992,3.992,0,0,0,3.953-3.539l8.718-8.718a2.6,2.6,0,0,1,3.586,0,2.536,2.536,0,0,1,0,3.586Z" fill="#003391"/>
    <path id="Path_124723" data-name="Path 124723" d="M19.744,20.378c-.014.02-.035.031-.048.051,0,.005,0,.012-.006.017A21.884,21.884,0,0,0,15,34c0,.164,0,.326.012.489a1,1,0,0,0,1,.931l.07,0a1,1,0,0,0,.928-1.067C17,34.233,17,34.117,17,34a19.864,19.864,0,0,1,3.808-11.692c2.83,1.843,4.486,3.627,4.554,4.956A8.119,8.119,0,0,1,24.2,30.833c-.294.608-.6,1.248-.889,1.933a1,1,0,1,0,1.847.769c.27-.648.563-1.254.842-1.83a9.532,9.532,0,0,0,1.363-4.546c-.1-2.017-1.895-4.174-5.29-6.418a20.113,20.113,0,0,1,5.376-4.3c1.948,3.8,4.291,5.8,6.85,5.8a4.98,4.98,0,0,0,.557-.031,8.442,8.442,0,0,0,4.835-1.913c.88-.681,1.245-.962,3.264-.257,1.885.656,3.873-.167,5.673-2.3A20.018,20.018,0,0,1,52.751,21.7a13.835,13.835,0,0,0-2.791,4.43c-.853,1.862-1.43,3.009-2.49,3.109a15.6,15.6,0,0,1-2.068-.009c-2.639-.13-5.92-.284-8.265,4.325a10.637,10.637,0,0,0-1.057,3.312,1,1,0,0,0,.852,1.129.971.971,0,0,0,.14.01,1,1,0,0,0,.989-.861,8.529,8.529,0,0,1,.861-2.685c1.756-3.452,3.8-3.351,6.385-3.231a17.118,17.118,0,0,0,2.348,0c2.268-.214,3.212-2.275,4.125-4.268a13.107,13.107,0,0,1,2.144-3.6,19.828,19.828,0,0,1,2.725,6.927,1,1,0,1,0,1.966-.367A21.981,21.981,0,0,0,38,12.044v-1.1a2.987,2.987,0,0,1,1.679-2.685,5.929,5.929,0,0,0,4.5,2.067A7.164,7.164,0,0,0,46.552,9.9a15.084,15.084,0,0,0,3.6-1.831,3.481,3.481,0,0,1,3.6-.647,1,1,0,0,0,1.034-1.587C54.571,5.557,49.479-.822,44.578.091c-4.731.882-5.285,3.751-5.516,6.24A4.98,4.98,0,0,0,37,7.956,4.98,4.98,0,0,0,34.938,6.33c-.231-2.488-.785-5.358-5.516-6.24-4.9-.917-9.993,5.466-10.208,5.738a1,1,0,0,0,1.034,1.587,3.48,3.48,0,0,1,3.6.647,15.084,15.084,0,0,0,3.6,1.831,7.149,7.149,0,0,0,2.375.427,5.929,5.929,0,0,0,4.5-2.068A2.987,2.987,0,0,1,36,10.94v1.086A21.929,21.929,0,0,0,19.744,20.378Zm25.2-18.321c2.191-.412,4.81,1.491,6.593,3.195a6.126,6.126,0,0,0-2.486,1.14A13.158,13.158,0,0,1,45.89,8.007a4.083,4.083,0,0,1-4.235-.6L44.3,6.3a1,1,0,0,0-.774-1.844l-2.342.983C41.459,3.731,42.161,2.576,44.944,2.057ZM28.11,8.007a13.158,13.158,0,0,1-3.162-1.616A6.116,6.116,0,0,0,22.46,5.251c1.78-1.7,4.392-3.6,6.6-3.194,2.783.519,3.485,1.674,3.763,3.384l-2.342-.983A1,1,0,0,0,29.7,6.3l2.643,1.109a4.087,4.087,0,0,1-4.236.6Zm15.5,10.138c-2.83-.987-3.875-.418-5.146.563a6.524,6.524,0,0,1-3.833,1.507c-2.369.272-4.276-2.476-5.4-4.645a20,20,0,0,1,17.7,1.069c-.867.976-2.089,1.937-3.322,1.506Z" fill="#35ccde"/>
  </g>
</svg>
