<svg xmlns="http://www.w3.org/2000/svg" width="54" height="60" viewBox="0 0 54 60">
  <g id="Report-Papers-Business-Graph-Financial" transform="translate(-5 -2)">
    <path id="Path_124722" data-name="Path 124722" d="M46.707,6.293A1,1,0,0,0,46,6H18a5,5,0,0,0-4.842,3.751l1.936.5A3,3,0,0,1,18,8H45v5a3,3,0,0,0,3,3h5V57a3,3,0,0,1-3,3H18a3,3,0,0,1-3-3V34H13V57a5.006,5.006,0,0,0,5,5H50a5.006,5.006,0,0,0,5-5V15a1,1,0,0,0-.293-.707ZM47,13V9.414L51.586,14H48A1,1,0,0,1,47,13Z" fill="#003391"/>
    <path id="Path_124723" data-name="Path 124723" d="M54,2H22a5,5,0,0,0-3.309,1.251l1.326,1.5A2.989,2.989,0,0,1,22,4H54a3,3,0,0,1,3,3V53a2.989,2.989,0,0,1-.75,1.983l1.5,1.325A5,5,0,0,0,59,53V7a5.006,5.006,0,0,0-5-5Z" fill="#003391"/>
    <path id="Path_124724" data-name="Path 124724" d="M16,28V27a3,3,0,0,0,0-6H14a1,1,0,0,1,0-2h2a1,1,0,0,1,1,1h2a3,3,0,0,0-3-3V16H14v1a3,3,0,0,0,0,6h2a1,1,0,0,1,0,2H14a1,1,0,0,1-1-1H11a3,3,0,0,0,3,3v1Z" fill="#7a6af7"/>
    <path id="Path_124725" data-name="Path 124725" d="M25,22A10,10,0,1,0,15,32,10,10,0,0,0,25,22ZM7,22a8,8,0,1,1,8,8A8,8,0,0,1,7,22Z" fill="#003391"/>
    <path id="Path_124726" data-name="Path 124726" d="M28,16H40v2H28Z" fill="#35ccde"/>
    <path id="Path_124727" data-name="Path 124727" d="M28,12h2v2H28Z" fill="#35ccde"/>
    <path id="Path_124728" data-name="Path 124728" d="M32,12h8v2H32Z" fill="#35ccde"/>
    <path id="Path_124729" data-name="Path 124729" d="M24,31a1,1,0,0,0-1,1v5H21v2H47V37H45V24a1,1,0,0,0-1-1H40a1,1,0,0,0-1,1V37H37V28a1,1,0,0,0-1-1H32a1,1,0,0,0-1,1v9H29V32a1,1,0,0,0-1-1Zm17-6h2V37H41Zm-8,4h2v8H33Zm-8,8V33h2v4Z" fill="#003391"/>
    <path id="Path_124730" data-name="Path 124730" d="M22,43a1,1,0,0,0-1,1V54a1,1,0,0,0,1,1H32a1,1,0,0,0,1-1V44a1,1,0,0,0-1-1Zm9,10H23V45h8Z" fill="#7a6af7"/>
    <path id="Path_124731" data-name="Path 124731" d="M37,43H49v2H37Z" fill="#35ccde"/>
    <path id="Path_124732" data-name="Path 124732" d="M37,51H49v2H37Z" fill="#35ccde"/>
    <path id="Path_124733" data-name="Path 124733" d="M37,47H49v2H37Z" fill="#35ccde"/>
  </g>
</svg>
