<svg id="Icon" xmlns="http://www.w3.org/2000/svg" width="64" height="64" viewBox="0 0 64 64">
  <g id="Group_48871" data-name="Group 48871">
    <g id="Group_48862" data-name="Group 48862">
      <path id="Path_124699" data-name="Path 124699" d="M40.8,64H24.2a1,1,0,0,1-1-1V58.4a1,1,0,0,1,1-1,1.075,1.075,0,0,1,1,1V62H39.7V58.4a1,1,0,0,1,1-1,1.075,1.075,0,0,1,1,1V63a.871.871,0,0,1-.9,1Z" fill="#003391"/>
    </g>
    <g id="Group_48863" data-name="Group 48863">
      <path id="Path_124700" data-name="Path 124700" d="M45.4,64H19.6a1,1,0,0,1-1-1,1.075,1.075,0,0,1,1-1H45.4a1,1,0,0,1,1,1A1.075,1.075,0,0,1,45.4,64Z" fill="#003391"/>
    </g>
    <g id="Group_48864" data-name="Group 48864">
      <path id="Path_124701" data-name="Path 124701" d="M63,44.4H2a1,1,0,0,1-1-1V23.2a1,1,0,0,1,1-1,1.075,1.075,0,0,1,1,1V42.3H62V13.1A3.116,3.116,0,0,0,58.9,10H26.2a1,1,0,0,1-1-1,1.075,1.075,0,0,1,1-1H58.9A5.121,5.121,0,0,1,64,13.1V43.4A1.075,1.075,0,0,1,63,44.4Z" fill="#003391"/>
    </g>
    <g id="Group_48865" data-name="Group 48865">
      <path id="Path_124702" data-name="Path 124702" d="M58.9,55.3H6a5.037,5.037,0,0,1-5-5.1V43.3a1,1,0,0,1,1-1H63a1,1,0,0,1,1,1v6.9A5.121,5.121,0,0,1,58.9,55.3ZM3,44.4v5.8a3.116,3.116,0,0,0,3.1,3.1H59a3.116,3.116,0,0,0,3.1-3.1V44.4Z" fill="#003391"/>
    </g>
    <g id="Group_48866" data-name="Group 48866">
      <path id="Path_124703" data-name="Path 124703" d="M32.5,51.9a3,3,0,1,1,3-3A3.009,3.009,0,0,1,32.5,51.9Zm0-4.1a1,1,0,1,0,1,1A1.075,1.075,0,0,0,32.5,47.8Z" fill="#003391"/>
    </g>
    <g id="Group_48867" data-name="Group 48867">
      <path id="Path_124704" data-name="Path 124704" d="M33.1,39.8H31.8a2.354,2.354,0,0,1-2.3-1.9l-.3-2a.215.215,0,0,0-.2-.2,3.552,3.552,0,0,1-.9-.4c-.1,0-.2-.1-.3,0l-1.6,1.2a2.286,2.286,0,0,1-3-.2l-.9-1a2.156,2.156,0,0,1-.2-2.9l1.2-1.6a.187.187,0,0,0,0-.3c-.1-.3-.3-.6-.4-.9l-.2-.2-2-.3A2.189,2.189,0,0,1,19,26.9V25.5a2.354,2.354,0,0,1,1.9-2.3l2-.3a.215.215,0,0,0,.2-.2,3.552,3.552,0,0,1,.4-.9v-.2L22.2,20a2.155,2.155,0,0,1,.2-2.9l.9-1a2.286,2.286,0,0,1,3-.2l1.6,1.2c.1.1.2,0,.3,0,.3-.1.6-.3.9-.4a.215.215,0,0,0,.2-.2l.3-2a2.276,2.276,0,0,1,2.3-1.9h1.3a2.354,2.354,0,0,1,2.3,1.9l.3,2a.215.215,0,0,0,.2.2,3.552,3.552,0,0,1,.9.4h.3l1.6-1.2a2.41,2.41,0,0,1,3,.2l.9,1a2.155,2.155,0,0,1,.2,2.9l-1.2,1.6a.188.188,0,0,0,0,.3c.1.3.3.6.4.9a.215.215,0,0,0,.2.2l2,.3a2.276,2.276,0,0,1,1.9,2.3V27a2.354,2.354,0,0,1-1.9,2.3l-2,.3a.215.215,0,0,0-.2.2,3.552,3.552,0,0,1-.4.9v.2l1.2,1.6a2.155,2.155,0,0,1-.2,2.9l-.9,1a2.286,2.286,0,0,1-3,.2L37,35.3a.188.188,0,0,0-.3,0c-.3.1-.6.3-.9.4-.1,0-.1.1-.1.2l-.3,2a2.276,2.276,0,0,1-2.3,1.9Zm-5-6.5a3.553,3.553,0,0,1,1,.2c.2.1.5.2.7.3a2.49,2.49,0,0,1,1.5,1.8l.3,2a.215.215,0,0,0,.2.2h1.3a.215.215,0,0,0,.2-.2l.3-2a2.293,2.293,0,0,1,1.5-1.8,4.875,4.875,0,0,0,.7-.3,2.356,2.356,0,0,1,2.3.2l1.6,1.2a.188.188,0,0,0,.3,0l.9-1a.188.188,0,0,0,0-.3l-1-1.6a2.132,2.132,0,0,1-.2-2.3c.1-.2.2-.5.3-.7a2.293,2.293,0,0,1,1.8-1.5l1.9-.3a.215.215,0,0,0,.2-.2V25.6a.215.215,0,0,0-.2-.2l-2-.3a2.293,2.293,0,0,1-1.8-1.5,4.875,4.875,0,0,0-.3-.7,2.113,2.113,0,0,1,.2-2.3L41,19a.188.188,0,0,0,0-.3l-.9-.9a.187.187,0,0,0-.3,0L38.2,19a2.132,2.132,0,0,1-2.3.2c-.2-.1-.5-.2-.7-.3a2.49,2.49,0,0,1-1.5-1.8l-.3-2a.215.215,0,0,0-.2-.2H31.9a.215.215,0,0,0-.2.2l-.3,2a2.293,2.293,0,0,1-1.5,1.8c-.2.1-.5.2-.7.3a2.356,2.356,0,0,1-2.3-.2l-1.6-1.2a.187.187,0,0,0-.3,0l-.9,1a.187.187,0,0,0,0,.3l1.2,1.6a2.132,2.132,0,0,1,.2,2.3c-.1.2-.2.5-.3.7a2.293,2.293,0,0,1-1.8,1.5l-1.9.3a.215.215,0,0,0-.2.2v1.4a.215.215,0,0,0,.2.2l2,.3a2.293,2.293,0,0,1,1.8,1.5,4.876,4.876,0,0,0,.3.7,2.113,2.113,0,0,1-.2,2.3l-1.2,1.6a.187.187,0,0,0,0,.3l.9.9a.188.188,0,0,0,.3,0L27,33.7c.1-.3.6-.4,1.1-.4Z" fill="#7a6af7"/>
    </g>
    <g id="Group_48868" data-name="Group 48868">
      <path id="Path_124705" data-name="Path 124705" d="M32.5,31.9a5.7,5.7,0,0,1-5.7-5.7,5.763,5.763,0,0,1,5.7-5.7,5.7,5.7,0,0,1,5.7,5.7,5.763,5.763,0,0,1-5.7,5.7Zm0-9.4a3.7,3.7,0,1,0,3.7,3.7A3.757,3.757,0,0,0,32.5,22.5Z" fill="#003391"/>
    </g>
    <g id="Group_48869" data-name="Group 48869">
      <path id="Path_124706" data-name="Path 124706" d="M12.4,23.9H11.3a2.232,2.232,0,0,1-2.1-1.8l-.3-1.7A3.552,3.552,0,0,0,8,20L6.6,21a2.248,2.248,0,0,1-2.8-.2L3.1,20a2.118,2.118,0,0,1-.2-2.7l1-1.4L3.6,15l-1.8-.3A2.232,2.232,0,0,1,0,12.6V11.4A2.232,2.232,0,0,1,1.8,9.3L3.5,9l.1-.1c.1-.3.2-.5.3-.8l-1-1.5a2.108,2.108,0,0,1,.2-2.7l.8-.8a2.248,2.248,0,0,1,2.8-.2l1.4,1L9,3.6l.3-1.8A2.232,2.232,0,0,1,11.4,0h1.1a2.232,2.232,0,0,1,2.1,1.8l.3,1.7.1.1c.3.1.5.2.8.3l1.5-1a2.259,2.259,0,0,1,2.8.2l.8.8a2.118,2.118,0,0,1,.2,2.7L20.1,8l.3.9,1.8.3A2.232,2.232,0,0,1,24,11.3v1.2a2.148,2.148,0,0,1-1.8,2.1l-1.7.3a3.552,3.552,0,0,0-.4.9l1,1.5a2.118,2.118,0,0,1-.2,2.7l-.8.8a2.259,2.259,0,0,1-2.8.2l-1.4-1-.9.3-.3,1.8a2.346,2.346,0,0,1-2.3,1.8ZM8.1,18a2.92,2.92,0,0,1,.9.2l.6.3A2.428,2.428,0,0,1,11,20.2l.3,1.7,1.2.1a.1.1,0,0,0,.1-.1l.3-1.7a2.044,2.044,0,0,1,1.4-1.7,1.421,1.421,0,0,1,.6-.2,1.966,1.966,0,0,1,2.2.2l1.4,1h.1l.8-.8v-.1l-1-1.4a2.146,2.146,0,0,1-.2-2.2l.3-.6A2.216,2.216,0,0,1,20.2,13l1.6-.3.1-.1V11.4l-.1-.1L19.9,11a2.044,2.044,0,0,1-1.7-1.4A1.421,1.421,0,0,0,18,9a2.17,2.17,0,0,1,.2-2.2l1-1.4V5.3l-.8-.8h-.1l-1.4,1a2.17,2.17,0,0,1-2.2.2l-.6-.3a2.428,2.428,0,0,1-1.4-1.7L12.4,2H11.3a.1.1,0,0,0-.1.1l-.3,1.7A2.044,2.044,0,0,1,9.5,5.5c-.1.1-.3.1-.5.2a1.966,1.966,0,0,1-2.2-.2l-1.4-1H5.3l-.8.8v.1l1,1.4A1.982,1.982,0,0,1,5.7,9a1.421,1.421,0,0,0-.2.6A2.216,2.216,0,0,1,3.8,11l-1.7.3-.1.1v1.2l.1.1,1.7.3a2.044,2.044,0,0,1,1.7,1.4l.3.6a2.17,2.17,0,0,1-.2,2.2l-1,1.4v.1l.8.8.6.7-.6-.8,1.4-1A2.01,2.01,0,0,1,8.1,18Z" fill="#35ccde"/>
    </g>
    <g id="Group_48870" data-name="Group 48870">
      <path id="Path_124707" data-name="Path 124707" d="M11.9,17a4.975,4.975,0,0,1-5.1-5,5.058,5.058,0,0,1,5.1-5.1A5,5,0,0,1,17,12,4.974,4.974,0,0,1,11.9,17Zm0-8.1A3.1,3.1,0,1,0,15,12,3.254,3.254,0,0,0,11.9,8.9Z" fill="#003391"/>
    </g>
  </g>
</svg>
