<svg xmlns="http://www.w3.org/2000/svg" width="62" height="62" viewBox="0 0 62 62">
  <g id="الإعلام" transform="translate(-1 -1)">
    <path id="Path_124722" data-name="Path 124722" d="M62,1H38a1,1,0,0,0-1,1V34a1,1,0,0,0,1,1H62a1,1,0,0,0,1-1V2A1,1,0,0,0,62,1ZM61,33H39V3H61Z" fill="#003391"/>
    <path id="Path_124723" data-name="Path 124723" d="M60,38H34a3,3,0,0,0-3,3V60a3,3,0,0,0,3,3H60a3,3,0,0,0,3-3V41A3,3,0,0,0,60,38Zm1,22a1,1,0,0,1-1,1H34a1,1,0,0,1-1-1V41a1,1,0,0,1,1-1H60a1,1,0,0,1,1,1Z" fill="#003391"/>
    <path id="Path_124724" data-name="Path 124724" d="M57,56H55a1,1,0,0,0-2,0H37a1,1,0,0,0,0,2H53a1,1,0,0,0,2,0h2A1,1,0,0,0,57,56Z" fill="#003391"/>
    <path id="Path_124725" data-name="Path 124725" d="M33,31V7a3,3,0,0,0-3-3H4A3,3,0,0,0,1,7V31a3,3,0,0,0,3,3H30A3,3,0,0,0,33,31Zm-2,0a1,1,0,0,1-1,1H4a1,1,0,0,1-1-1V7A1,1,0,0,1,4,6H30a1,1,0,0,1,1,1Z" fill="#003391"/>
    <path id="Path_124726" data-name="Path 124726" d="M21,17a4,4,0,1,0-4-4A4,4,0,0,0,21,17Zm0-6a2,2,0,1,1-2,2A2,2,0,0,1,21,11Z" fill="#35ccde"/>
    <path id="Path_124727" data-name="Path 124727" d="M24.707,20.293a1,1,0,0,0-1.414,0L20,23.586l-6.293-6.293a1,1,0,0,0-1.414,0l-7,7a1,1,0,0,0,1.414,1.414L13,19.414l6.293,6.293a1,1,0,0,0,1.414,0L24,22.414l3.293,3.293a1,1,0,0,0,1.414-1.414Z" fill="#35ccde"/>
    <path id="Path_124728" data-name="Path 124728" d="M43,8H53a1,1,0,0,0,0-2H43A1,1,0,0,0,43,8Z" fill="#003391"/>
    <path id="Path_124729" data-name="Path 124729" d="M43,17H57a1,1,0,0,0,0-2H43A1,1,0,0,0,43,17Z" fill="#003391"/>
    <path id="Path_124730" data-name="Path 124730" d="M43,26H57a1,1,0,0,0,0-2H43A1,1,0,0,0,43,26Z" fill="#003391"/>
    <path id="Path_124731" data-name="Path 124731" d="M43,30h5a1,1,0,0,0,0-2H43A1,1,0,0,0,43,30Z" fill="#003391"/>
    <path id="Path_124732" data-name="Path 124732" d="M43,13h2a1,1,0,0,0,0-2H43A1,1,0,0,0,43,13Z" fill="#003391"/>
    <path id="Path_124733" data-name="Path 124733" d="M50,13h7a1,1,0,0,0,0-2H50A1,1,0,0,0,50,13Z" fill="#003391"/>
    <path id="Path_124734" data-name="Path 124734" d="M43,22h7a1,1,0,0,0,0-2H43A1,1,0,0,0,43,22Z" fill="#003391"/>
    <path id="Path_124735" data-name="Path 124735" d="M57,20H55a1,1,0,0,0,0,2h2A1,1,0,0,0,57,20Z" fill="#003391"/>
    <path id="Path_124736" data-name="Path 124736" d="M15,37C7.28,37,1,41.935,1,48a9.664,9.664,0,0,0,3,6.814V62a1,1,0,0,0,1.707.707l4.4-4.4A17.117,17.117,0,0,0,15,59c7.72,0,14-4.935,14-11S22.72,37,15,37Zm0,20a14.962,14.962,0,0,1-4.847-.776,1,1,0,0,0-1.03.239L6,59.586v-5.2a1,1,0,0,0-.318-.732A7.691,7.691,0,0,1,3,48c0-4.962,5.383-9,12-9s12,4.038,12,9S21.617,57,15,57Z" fill="#003391"/>
    <circle id="Ellipse_9921" data-name="Ellipse 9921" cx="1.5" cy="1.5" r="1.5" transform="translate(13.5 46.5)" fill="#7a6af7"/>
    <circle id="Ellipse_9922" data-name="Ellipse 9922" cx="1.5" cy="1.5" r="1.5" transform="translate(20.5 46.5)" fill="#7a6af7"/>
    <circle id="Ellipse_9923" data-name="Ellipse 9923" cx="1.5" cy="1.5" r="1.5" transform="translate(6.5 46.5)" fill="#7a6af7"/>
    <path id="Path_124737" data-name="Path 124737" d="M45.262,53.714l6.647-3.83a2.174,2.174,0,0,0,0-3.764l-6.646-3.828A2.178,2.178,0,0,0,42,44.173v7.658a2.18,2.18,0,0,0,3.262,1.883ZM44,44.173a.176.176,0,0,1,.264-.148l6.647,3.829a.172.172,0,0,1,0,.3L44.265,51.98A.176.176,0,0,1,44,51.832Z" fill="#35ccde"/>
  </g>
</svg>
