<svg xmlns="http://www.w3.org/2000/svg" width="60.01" height="60.01" viewBox="0 0 60.01 60.01">
  <g id="التعدين" transform="translate(-1.99 -2)">
    <path id="Path_124722" data-name="Path 124722" d="M13,48a3,3,0,1,0,3,3A3.009,3.009,0,0,0,13,48Zm0,4a1,1,0,1,1,1-1A1,1,0,0,1,13,52Z" fill="#003391"/>
    <path id="Path_124723" data-name="Path 124723" d="M51,48a3,3,0,1,0,3,3A3.009,3.009,0,0,0,51,48Zm0,4a1,1,0,1,1,1-1A1,1,0,0,1,51,52Z" fill="#003391"/>
    <path id="Path_124724" data-name="Path 124724" d="M51.19,40.01l.22-.1a.992.992,0,0,0,.54-1.23l-.83-2.5,2.69-3.58a.99.99,0,0,0,0-1.2l-3-4a.991.991,0,0,0-1-.38l-4.54.91-4.64-3.71a1.057,1.057,0,0,0-.35-.18l-7-2a.992.992,0,0,0-1.11.41l-1.83,2.74-4.71,1.88a1,1,0,0,0-.55.54l-3,7a1,1,0,0,0,.21,1.1l4,4a1.067,1.067,0,0,0,.45.26l.13.03H13.28l-1.22-9.58,2.65-2.65a.99.99,0,0,0,.29-.71V22.92a1.033,1.033,0,0,0-.29-.71L12,19.5V13.47l2.49-2.49H21v2h-.66a1.033,1.033,0,0,0-.71.29l-2.34,2.34a.99.99,0,0,0-.29.71v3.31a1.033,1.033,0,0,0,.29.71l2.34,2.34,1.41-1.41-2.05-2.05V16.73l1.76-1.76h2.49L25,16.73v2.49l-2.05,2.05,1.41,1.41,2.34-2.34a.99.99,0,0,0,.29-.71V16.32a1.033,1.033,0,0,0-.29-.71l-2.34-2.34a.99.99,0,0,0-.71-.29h-.66v-2h8a1,1,0,0,0,1-1V6a1,1,0,0,0-1-1H14.49L11.78,2.29A.99.99,0,0,0,11.07,2H6.93a1.033,1.033,0,0,0-.71.29L3.29,5.22A.99.99,0,0,0,3,5.93v4.14a1.033,1.033,0,0,0,.29.71L6,13.49v6.03L3.29,22.23a.99.99,0,0,0-.29.71v4.14a1.033,1.033,0,0,0,.29.71l2.65,2.65L4.3,44.3a10.975,10.975,0,0,0,8.69,17.71H51a11,11,0,0,0,.19-21.99ZM15,7H30V9H15ZM45.35,29.95l4.23-.85L51.75,32,49.5,35H44.57l-2.08-3.46ZM44.52,37h4.77l.49,1.46L46.3,40H42.38Zm-4.6,3H34.63l-4.98-1.33,11.09-6.16,2.07,3.44ZM31.38,26.93a1.054,1.054,0,0,0,.46-.37l1.59-2.39,6.11,1.74,3.68,2.94-7.71,4.28-7.37-4.91,3.23-1.29Zm-7.19,7.84,2.26-5.27,7.09,4.73-6.36,3.53ZM5,9.66V6.35L7.34,4.01h3.31l2.34,2.34V9.66L10.65,12H7.34ZM10,14v5H8V14ZM5,26.66V23.35l2.34-2.34h3.31l2.34,2.34v3.31L10.65,29H7.34Zm6.28,13.49a10.783,10.783,0,0,0-4.7,1.94L7.89,31h2.23ZM51,60H13a9,9,0,0,1,0-18H51a9,9,0,0,1,0,18Z" fill="#003391"/>
    <path id="Path_124725" data-name="Path 124725" d="M12,8a3,3,0,1,0-3,3A3.009,3.009,0,0,0,12,8ZM8,8A1,1,0,1,1,9,9,1,1,0,0,1,8,8Z" fill="#7a6af7"/>
    <path id="Path_124726" data-name="Path 124726" d="M12,25a3,3,0,1,0-3,3A3.009,3.009,0,0,0,12,25ZM8,25a1,1,0,1,1,1,1A1,1,0,0,1,8,25Z" fill="#7a6af7"/>
    <path id="Path_124727" data-name="Path 124727" d="M19,44h2v2H19Z" fill="#003391"/>
    <path id="Path_124728" data-name="Path 124728" d="M43,56h2v2H43Z" fill="#003391"/>
    <path id="Path_124729" data-name="Path 124729" d="M20,51a7,7,0,1,0-7,7H41V56H17.89A6.97,6.97,0,0,0,20,51Zm-7,5a5,5,0,1,1,5-5A5,5,0,0,1,13,56Z" fill="#35ccde"/>
    <path id="Path_124730" data-name="Path 124730" d="M51,44H23v2H46.11A6.994,6.994,0,1,0,51,44Zm0,12a5,5,0,1,1,5-5A5,5,0,0,1,51,56Z" fill="#35ccde"/>
  </g>
</svg>
