<svg xmlns="http://www.w3.org/2000/svg" width="71.251" height="64.557" viewBox="0 0 71.251 64.557">
  <path id="التجزئة" d="M77.495,88.08H73.709V61.495a7.562,7.562,0,0,0,5.034-6.863,1.15,1.15,0,0,0-.166-.594L70.426,40.549q-.039-.064-.082-.126V34.458A3.162,3.162,0,0,0,67.186,31.3h-38.6a3.162,3.162,0,0,0-3.158,3.158v6.365L17.438,54.037a1.15,1.15,0,0,0-.166.594,7.562,7.562,0,0,0,5.034,6.863v7.548H13.934l-.869-3.888a1.149,1.149,0,0,0-1.121-.9H9.149a1.149,1.149,0,0,0,0,2.3h1.873l3.166,14.161a2.949,2.949,0,0,0,.91,5.533,3.194,3.194,0,0,0,1.666,3.81V94.1a1.758,1.758,0,0,0,1.756,1.756H77.495A1.758,1.758,0,0,0,79.251,94.1V89.836A1.758,1.758,0,0,0,77.495,88.08ZM70.2,59.864c-2.973,0-5.466-1.749-6.094-4.083H76.291c-.627,2.334-3.12,4.083-6.094,4.083ZM27.649,41.729h8.305l-3.59,11.753H20.459l7.092-11.736A.226.226,0,0,1,27.649,41.729Zm30.009,0,3.59,11.753H49.157V41.729Zm-10.8,11.753H34.767l3.59-11.753h8.5V53.482Zm-.154,2.3c-.627,2.334-3.12,4.083-6.094,4.083s-5.466-1.749-6.094-4.083Zm14.793,0c-.627,2.334-3.12,4.083-6.094,4.083s-5.466-1.749-6.094-4.083Zm14.059-2.3H63.652l-3.59-11.753h8.305a.226.226,0,0,1,.1.017ZM28.582,33.6h38.6a.861.861,0,0,1,.86.86v4.973H27.722V34.458A.861.861,0,0,1,28.582,33.6ZM19.724,55.781H31.912c-.627,2.334-3.12,4.083-6.094,4.083s-5.467-1.749-6.094-4.083ZM30.336,71.341a.716.716,0,0,1,.458.244.429.429,0,0,1,.063.406l-1.876,8.391H16.469l-2.022-9.041ZM14.894,83.335a.663.663,0,0,1,.654-.655H29.9a1.149,1.149,0,0,0,1.121-.9L33.1,72.493a2.724,2.724,0,0,0-.512-2.344,3,3,0,0,0-2.251-1.105H24.6V62.085a9.719,9.719,0,0,0,1.213.077,8.814,8.814,0,0,0,7.4-3.762,9.153,9.153,0,0,0,14.793,0,9.152,9.152,0,0,0,14.793,0,8.814,8.814,0,0,0,7.4,3.762,9.719,9.719,0,0,0,1.213-.077V88.08H61.584V71.614h.194a1.149,1.149,0,0,0,1.149-1.149V67.216a1.149,1.149,0,0,0-1.149-1.149H34.238a1.149,1.149,0,0,0-1.149,1.149v3.249a1.149,1.149,0,0,0,1.149,1.149h.194V88.08H31.823a3.192,3.192,0,0,0-3.063-4.09H15.549a.663.663,0,0,1-.654-.654Zm45.735-14.02H35.387v-.95H60.629Zm-13.77,2.3V88.08H36.73V71.614Zm2.3,0H59.286V88.08H49.157ZM28.756,88.08a.9.9,0,1,1,.9-.9.9.9,0,0,1-.9.9Zm-10.6-1.792a.9.9,0,1,1-.9.9A.9.9,0,0,1,18.154,86.288Zm3.066,0h4.473a3.18,3.18,0,0,0,0,1.792H21.219a3.18,3.18,0,0,0,0-1.792Zm55.733,7.27H19.063v-3.18H76.952ZM33.565,36.515a1.149,1.149,0,0,1,1.149-1.149h8.77a1.149,1.149,0,0,1,0,2.3h-8.77A1.149,1.149,0,0,1,33.565,36.515Zm17.816,0a1.149,1.149,0,0,1,1.149-1.149H61.3a1.149,1.149,0,0,1,0,2.3h-8.77A1.149,1.149,0,0,1,51.382,36.515ZM40.721,82.1l2.487-4.307a1.149,1.149,0,0,1,1.99,1.149l-2.487,4.307a1.149,1.149,0,1,1-1.99-1.149Zm-2.33-1.345,2.487-4.307a1.149,1.149,0,1,1,1.99,1.149L40.381,81.9a1.149,1.149,0,1,1-1.99-1.149Zm19.235-1.813-2.487,4.307A1.149,1.149,0,0,1,53.148,82.1l2.487-4.307a1.149,1.149,0,0,1,1.991,1.149ZM55.295,77.6,52.808,81.9a1.149,1.149,0,0,1-1.991-1.149L53.3,76.446A1.149,1.149,0,0,1,55.295,77.6Z" transform="translate(-8 -31.3)" fill="#003391"/>
</svg>
