<svg xmlns="http://www.w3.org/2000/svg" width="65.211" height="61.648" viewBox="0 0 65.211 61.648">
  <g id="الرياضة" transform="translate(-5.528 -18.978)">
    <path id="Path_124722" data-name="Path 124722" d="M328.559,46.2c-5.283-2.431-12.143,1.141-15.292,7.962a15.219,15.219,0,0,0-.806,11.5,9.046,9.046,0,0,0,4.675,5.28,8.406,8.406,0,0,0,3.537.763c4.5,0,9.277-3.356,11.755-8.725a15.219,15.219,0,0,0,.805-11.5A9.047,9.047,0,0,0,328.559,46.2Zm.035,1.784a7.308,7.308,0,0,1,2.595,2.762l-.242.524L327.755,49.8ZM317.568,59.755l1.2-2.609,3.192,1.469-1.2,2.609Zm2.538,2.885-1.2,2.609-3.192-1.469,1.2-2.609Zm-.679-6.911,1.2-2.609,3.192,1.469-1.205,2.61Zm3.955,3.537,3.192,1.469-1.2,2.609-3.192-1.469Zm.654-1.417,1.2-2.609,3.192,1.469-1.2,2.609Zm1.859-4.024,1.2-2.609,3.192,1.469-1.2,2.609Zm-2.51-6.669a8.033,8.033,0,0,1,1.607-.168,7.014,7.014,0,0,1,2.183.342l-.838,1.817-3.193-1.469Zm-.9,1.939,3.192,1.469-1.2,2.609L321.286,51.7Zm-1.913-.881.5.228-1.2,2.609-1.915-.881a12.653,12.653,0,0,1,2.624-1.957Zm-3.739,3.161,2.376,1.093-1.2,2.609L315.2,53.786A15.563,15.563,0,0,1,316.839,51.375Zm-2.322,3.813,2.839,1.307-1.2,2.609-2.54-1.169a15.959,15.959,0,0,1,.905-2.748Zm-1.178,7.5a13.073,13.073,0,0,1,0-3.165l2.162.995-1.2,2.609Zm3.76,6.463a7.311,7.311,0,0,1-2.593-2.764l.55-1.192,3.192,1.469Zm5.205.83a7.378,7.378,0,0,1-3.788-.178l1.149-2.488,3.192,1.469Zm1.207-2.614L320.319,65.9l1.2-2.609,3.192,1.469Zm2.37,1.091-.953-.438,1.2-2.609,2.16.994a13.315,13.315,0,0,1-2.412,2.055Zm3.446-3.3L326.787,64l1.2-2.609,2.843,1.308a15.855,15.855,0,0,1-1.507,2.47Zm2.13-3.9-2.811-1.294,1.2-2.609,2.385,1.1a15.589,15.589,0,0,1-.778,2.806Zm.973-4.434-1.925-.886,1.2-2.609.5.23a12.451,12.451,0,0,1,.22,3.265Z" transform="translate(-266.345 -23.015)" fill="#35ccde"/>
    <path id="Path_124723" data-name="Path 124723" d="M63.7,19.97c-6.766-3.113-15.5,1.345-19.463,9.936a19.053,19.053,0,0,0-.975,14.409,12.28,12.28,0,0,0,3.754,5.393l-3.1,6.713-.337-.072a6.941,6.941,0,0,0-1.112-.145L41.9,55.38a3.278,3.278,0,0,1-.554-2.284,4.836,4.836,0,0,0-.818-3.369L23.371,24.873A4.99,4.99,0,1,0,15.15,30.53L25.181,45.065A16.645,16.645,0,1,0,33.939,73.21c.119-.119.235-.239.35-.361a5.842,5.842,0,1,0,8.377-3.157l1.26.26,1.405.761,3.5,5.073-.1.07a1.784,1.784,0,0,0-.458,2.484,3.648,3.648,0,0,0,5.063.932l2.052-1.411a3.643,3.643,0,0,0,1.058-1.127l.871.472a3.924,3.924,0,0,0,2.9.34l3.39-.912a1.309,1.309,0,0,0,.73-2.018l-2.574-3.649,4.816-2.035.016-.007a1.309,1.309,0,0,0,.354-2.154l-3.436-3.356,3.771-2.4a1.309,1.309,0,0,0,.075-2.156L64.578,56.8a3.929,3.929,0,0,0-2.63-.762l-12.313.8,2.254-4.881a11.275,11.275,0,0,0,2.017.18c5.722,0,11.759-4.195,14.868-10.928a19.052,19.052,0,0,0,.975-14.409A11.7,11.7,0,0,0,63.7,19.97Zm-21.164,37.8-2.124,9.9a3.391,3.391,0,0,1-2.39-1.1,16.666,16.666,0,0,0,.807-5.141,16.922,16.922,0,0,0-.1-1.81C39.133,58.4,40.758,57.638,42.532,57.773Zm-3.515,11.22a5.806,5.806,0,0,0-2.558,1,16.45,16.45,0,0,0,.949-1.822A4.569,4.569,0,0,0,39.018,68.993ZM24.632,46.552a15.176,15.176,0,0,1,2.811.747.78.78,0,0,0,.93-.307h0a.78.78,0,0,0-.381-1.152c-.167-.062-.335-.121-.5-.177L16.434,29.643a3.429,3.429,0,0,1,5.653-3.884L39.239,50.614a3.277,3.277,0,0,1,.554,2.284,4.836,4.836,0,0,0,.818,3.369l.063.091a5.309,5.309,0,0,0-2.316,1.14,16.541,16.541,0,0,0-4.42-7.841q-.485-.484-1-.92a.78.78,0,1,0-1.006,1.192c.113.1.223.2.334.3l-5.2,5.191A10.567,10.567,0,0,1,24.632,46.552ZM37.061,58.945a10.616,10.616,0,0,1-8.889-2.428l5.2-5.192a14.946,14.946,0,0,1,3.688,7.62Zm-14.919-12.6q.469,0,.937.029A12.111,12.111,0,0,0,25.96,56.52l-3.818,3.811L12.015,50.223a15.094,15.094,0,0,1,10.126-3.876ZM7.02,61.433a14.968,14.968,0,0,1,3.892-10.108L21.038,61.433l-3.8,3.79a12.361,12.361,0,0,0-10.193-2.87c-.018-.3-.029-.611-.029-.919Zm.2,2.471a10.613,10.613,0,0,1,8.913,2.424l-5.223,5.214A14.946,14.946,0,0,1,7.221,63.9ZM19.67,76.318a15.048,15.048,0,0,1-7.654-3.675l5.223-5.214a10.563,10.563,0,0,1,2.431,8.889Zm1.551.173a12.311,12.311,0,0,0-2.876-10.165l3.8-3.79L32.268,72.644a15.111,15.111,0,0,1-11.047,3.848Zm12.152-4.95L23.247,61.433l3.82-3.813a12.144,12.144,0,0,0,8.059,3.06,12.384,12.384,0,0,0,2.11-.183c.019.31.03.622.03.936a14.969,14.969,0,0,1-3.892,10.108ZM44.082,74.78A4.282,4.282,0,1,1,39.8,70.5a4.282,4.282,0,0,1,4.282,4.282ZM43.6,68.287l-1.651-.353,2.119-9.884,1.651.353Zm4.76,4.066,3.057,1.656-1.3.893ZM54.5,76.575l-2.052,1.411a2.087,2.087,0,0,1-2.9-.532.224.224,0,0,1,.058-.312l3.343-2.3,2.113,1.144a2.078,2.078,0,0,1-.567.587Zm8.349-1.356-3.043.819a2.366,2.366,0,0,1-1.75-.205L45.084,68.805l.585-2.731L59.583,71.12a1.7,1.7,0,0,1,.815.622Zm2.757-7.574-5.13,2.167L46,64.535l.335-1.56L61.5,64.08a3.279,3.279,0,0,0,.427-.029ZM62.056,57.591a2.372,2.372,0,0,1,1.592.46l2.485,1.84-3.7,2.361a1.724,1.724,0,0,1-1.048.264L46.665,61.435l.62-2.891Zm-14.194-.648-1.159.075-1.227-.262,2.836-6.143a10.976,10.976,0,0,0,1,.522,10.751,10.751,0,0,0,1.044.415Zm19.494-16.4c-3.607,7.811-11.41,11.926-17.4,9.173a10.169,10.169,0,0,1-5.24-5.942,17.49,17.49,0,0,1,.928-13.215C48.5,24.4,53.957,20.533,59.075,20.533a9.434,9.434,0,0,1,3.969.855,10.169,10.169,0,0,1,5.24,5.942A17.491,17.491,0,0,1,67.356,40.545Z" transform="translate(0 0)" fill="#003391"/>
    <path id="Path_124724" data-name="Path 124724" d="M97.663,81.472l-.149-.223a.78.78,0,1,0-1.3.865l.149.223a.78.78,0,1,0,1.3-.865Z" transform="translate(-78.781 -53.871)" fill="#35ccde"/>
    <path id="Path_124725" data-name="Path 124725" d="M108.793,98.193a.78.78,0,1,0-1.3.865l5.561,8.353a.78.78,0,1,0,1.3-.865Z" transform="translate(-88.594 -68.612)" fill="#35ccde"/>
  </g>
</svg>
