<svg xmlns="http://www.w3.org/2000/svg" width="62.141" height="62.425" viewBox="0 0 62.141 62.425">
  <g id="_OUTLINE" data-name=" OUTLINE" transform="translate(-15.994 -14.958)">
    <path id="Path_124722" data-name="Path 124722" d="M129.942,180.911a71.3,71.3,0,0,0-17.354,37.2l-.5,3.441,2.05.3.5-3.441a69.237,69.237,0,0,1,16.851-36.122Z" transform="translate(-83.65 -144.469)" fill="#7a6af7"/>
    <rect id="Rectangle_13842" data-name="Rectangle 13842" width="3.107" height="2.071" transform="translate(59.493 75.161)" fill="#35ccde"/>
    <path id="Path_124723" data-name="Path 124723" d="M75.028,42.02H70.885V30.628a4.142,4.142,0,0,0-7.867-1.813,28.163,28.163,0,0,0-2.552-2.109,69.465,69.465,0,0,1,9.517-5.459l-1.608,3.216,1.853.926,3.477-6.954-6.954-3.477-.926,1.853,4.235,2.117a71.536,71.536,0,0,0-11.434,6.536,27.941,27.941,0,0,0-3.967-2.033,10.955,10.955,0,0,0,2.763-7.3V15.093H56.386a10.965,10.965,0,0,0-7.8,3.233l-1.766,1.766L38.361,16.71a3.1,3.1,0,0,0-3.351.688L31.9,20.51l3.714,2.064a27.97,27.97,0,0,0-9.524,48.206l1.324-1.593a26.034,26.034,0,0,1-4.17-4.382h.179a3.969,3.969,0,0,0,3.965-3.965,1.881,1.881,0,0,1,.555-1.339l2.427-2.427a3.939,3.939,0,0,0,1.161-2.8v-.68a3.939,3.939,0,0,0-1.161-2.8l-1.213-1.213a3.97,3.97,0,0,0-5.607,0l-.178.178a1.881,1.881,0,0,1-1.339.555H18.089c-.014-.344-.023-.689-.023-1.036a25.906,25.906,0,0,1,.188-3.107h3.829a3.233,3.233,0,0,0,2.286-5.519l-3.357-3.357a25.885,25.885,0,0,1,17.2-13.269l3,1.669L34.637,32.27v3.042l-4.392-1.757-4.7,4.7,6.224,2.49,2.49,6.224,4.7-4.7L37.2,37.878h3.042L46.826,31.3,52,40.616,55.117,37.5a3.1,3.1,0,0,0,.688-3.351L52.423,25.7l.664-.664A25.716,25.716,0,0,1,56.8,26.788q-.628.471-1.248.954l1.278,1.63q.911-.715,1.846-1.4A26.048,26.048,0,0,1,62.6,31.306V42.02H58.457a3.111,3.111,0,0,0-3.107,3.107V69.983a3.1,3.1,0,0,0,.834,2.115,25.719,25.719,0,0,1-3.941,1.708v-.893a3.087,3.087,0,0,0-.91-2.2L49.44,68.822a1.028,1.028,0,0,1-.3-.732V66.876a1.037,1.037,0,0,1,1.036-1.036,3.111,3.111,0,0,0,3.107-3.107V59.627a3.111,3.111,0,0,0-3.107-3.107H47.923a3.087,3.087,0,0,0-2.2.91l-5,5a1.028,1.028,0,0,1-.732.3H38.78a3.111,3.111,0,0,0-3.107,3.107V68.09a3.087,3.087,0,0,0,.91,2.2l.858.858a1.028,1.028,0,0,1,.3.732v2.535A25.7,25.7,0,0,1,34,73.178l-.8,1.912a28.015,28.015,0,0,0,25.409-2H75.028a3.111,3.111,0,0,0,3.107-3.107V45.127a3.111,3.111,0,0,0-3.107-3.107Zm-53,10.357a3.939,3.939,0,0,0,2.8-1.161l.178-.178a1.893,1.893,0,0,1,2.678,0L28.9,52.251a1.881,1.881,0,0,1,.555,1.339v.68a1.881,1.881,0,0,1-.555,1.339l-2.427,2.427a3.939,3.939,0,0,0-1.161,2.8,1.9,1.9,0,0,1-1.894,1.894H21.836a25.791,25.791,0,0,1-3.582-10.357ZM22.9,42.109a1.161,1.161,0,0,1-.821,1.982H18.59a25.8,25.8,0,0,1,1.486-4.812Zm12.111,1.175-1.653-4.132L29.23,37.5l1.514-1.514,4.132,1.653,1.653,4.132ZM52.724,22.468,49.992,25.2l3.889,9.723a1.034,1.034,0,0,1-.229,1.117l-1.17,1.17L47.3,27.889l-7.917,7.917H36.708V33.128l7.917-7.917-6.037-3.354-.007-.033-.039.008-3.238-1.8,1.17-1.17a1.034,1.034,0,0,1,1.117-.229l9.723,3.889,2.732-2.732a8.9,8.9,0,0,1,5.237-2.559A8.9,8.9,0,0,1,52.724,22.468Zm-2.552,51.94a26.075,26.075,0,0,1-10.357.423V71.877a3.087,3.087,0,0,0-.91-2.2l-.858-.858a1.028,1.028,0,0,1-.3-.732V65.841A1.037,1.037,0,0,1,38.78,64.8h1.213a3.087,3.087,0,0,0,2.2-.91l5-5a1.028,1.028,0,0,1,.732-.3h2.249a1.037,1.037,0,0,1,1.036,1.036v3.107a1.037,1.037,0,0,1-1.036,1.036,3.111,3.111,0,0,0-3.107,3.107V68.09a3.087,3.087,0,0,0,.91,2.2l1.894,1.894a1.028,1.028,0,0,1,.3.732Zm14.5-43.781a2.071,2.071,0,1,1,4.143,0V42.02H64.671ZM76.064,69.983a1.037,1.037,0,0,1-1.036,1.036H58.457a1.037,1.037,0,0,1-1.036-1.036V45.127a1.037,1.037,0,0,1,1.036-1.036H75.028a1.037,1.037,0,0,1,1.036,1.036Z" fill="#003391"/>
    <rect id="Rectangle_13843" data-name="Rectangle 13843" width="3.107" height="2.071" transform="translate(71.921 75.161)" fill="#35ccde"/>
    <rect id="Rectangle_13844" data-name="Rectangle 13844" width="2.071" height="22.785" transform="translate(60.529 46.163)" fill="#35ccde"/>
    <rect id="Rectangle_13845" data-name="Rectangle 13845" width="2.071" height="22.785" transform="translate(65.707 46.163)" fill="#35ccde"/>
    <rect id="Rectangle_13846" data-name="Rectangle 13846" width="2.071" height="22.785" transform="translate(70.885 46.163)" fill="#35ccde"/>
    <path id="Path_124724" data-name="Path 124724" d="M219.107,250.071v.607l-2.5,2.5a2.058,2.058,0,0,0-.607,1.465v.607a2.074,2.074,0,0,0,2.071,2.071h2.678a2.058,2.058,0,0,0,1.465-.607l1.465-1.465h1.642a2.074,2.074,0,0,0,2.071-2.071v-3.107A2.074,2.074,0,0,0,225.321,248h-4.143A2.074,2.074,0,0,0,219.107,250.071Zm2.071.607v-.607h4.143v3.107h-1.642a2.058,2.058,0,0,0-1.465.607l-1.465,1.465h-2.678v-.607l2.5-2.5a2.058,2.058,0,0,0,.607-1.465Z" transform="translate(-174.113 -202.873)" fill="#35ccde"/>
  </g>
</svg>
