<svg xmlns="http://www.w3.org/2000/svg" width="60.575" height="60.575" viewBox="0 0 60.575 60.575">
  <g id="_OUTLINE" data-name=" OUTLINE" transform="translate(-16 -16)">
    <path id="Path_124722" data-name="Path 124722" d="M144,448h3.029v2.019H144Z" transform="translate(-111.847 -377.482)" fill="#35ccde"/>
    <path id="Path_124723" data-name="Path 124723" d="M192,448h3.029v2.019H192Z" transform="translate(-153.789 -377.482)" fill="#35ccde"/>
    <path id="Path_124724" data-name="Path 124724" d="M240,448h3.029v2.019H240Z" transform="translate(-195.732 -377.482)" fill="#35ccde"/>
    <path id="Path_124725" data-name="Path 124725" d="M288,448h3.029v2.019H288Z" transform="translate(-237.674 -377.482)" fill="#35ccde"/>
    <path id="Path_124726" data-name="Path 124726" d="M336,448h3.029v2.019H336Z" transform="translate(-279.617 -377.482)" fill="#35ccde"/>
    <path id="Path_124727" data-name="Path 124727" d="M384,448h3.029v2.019H384Z" transform="translate(-321.559 -377.482)" fill="#35ccde"/>
    <path id="Path_124728" data-name="Path 124728" d="M432,448h3.029v2.019H432Z" transform="translate(-363.502 -377.482)" fill="#35ccde"/>
    <path id="Path_124729" data-name="Path 124729" d="M480,448h2.019v2.019H480Z" transform="translate(-405.444 -377.482)" fill="#35ccde"/>
    <path id="Path_124730" data-name="Path 124730" d="M16,378.019H34.173v3.029h-5.39a16.706,16.706,0,0,0-11.891,4.925,3.029,3.029,0,0,0,2.142,5.17H76.575v-2.019H19.033a1.01,1.01,0,0,1-.714-1.724q.15-.15.3-.3H26.1a3.032,3.032,0,0,0,3.029-3.029v-1.01H76.575v-2.019H69.508v-3.029h7.067V376H16Zm11.105,6.058a1.011,1.011,0,0,1-1.01,1.01H21.31a14.646,14.646,0,0,1,5.8-1.925Zm31.3-6.058h9.086v3.029H58.4Zm-11.105,0h9.086v3.029H47.3Zm-11.105,0h9.086v3.029H36.192Z" transform="translate(0 -314.569)" fill="#003391"/>
    <path id="Path_124731" data-name="Path 124731" d="M80,272h2.019v2.019H80Z" transform="translate(-55.923 -223.693)" fill="#35ccde"/>
    <path id="Path_124732" data-name="Path 124732" d="M176,272h2.019v2.019H176Z" transform="translate(-139.808 -223.693)" fill="#35ccde"/>
    <path id="Path_124733" data-name="Path 124733" d="M46.288,155.105v-3.029a2.021,2.021,0,0,0-2.019-2.019H42.249v-3.029A3.032,3.032,0,0,0,39.22,144H23.067a3.032,3.032,0,0,0-3.029,3.029v3.029H18.019A2.021,2.021,0,0,0,16,152.077v3.029h2.019v-3.029h2.019v11.105a3.034,3.034,0,0,0,2.019,2.855v2.193a3.029,3.029,0,1,0,6.058,0v-2.019h6.058v2.019a3.029,3.029,0,1,0,6.058,0v-2.193a3.034,3.034,0,0,0,2.019-2.855V152.077h2.019v3.029ZM26.1,146.019h10.1v2.019H26.1Zm0,22.211a1.01,1.01,0,1,1-2.019,0v-2.019H26.1Zm12.115,0a1.01,1.01,0,1,1-2.019,0v-2.019h2.019Zm2.019-5.048a1.011,1.011,0,0,1-1.01,1.01H23.067a1.011,1.011,0,0,1-1.01-1.01v-5.048H40.23Zm0-7.067H22.058v-9.086a1.011,1.011,0,0,1,1.01-1.01h1.01v2.272a1.769,1.769,0,0,0,1.767,1.767h10.6a1.769,1.769,0,0,0,1.767-1.767v-2.272h1.01a1.011,1.011,0,0,1,1.01,1.01Z" transform="translate(0 -111.847)" fill="#003391"/>
    <path id="Path_124734" data-name="Path 124734" d="M294.093,113.086H292.01L291,108.038h-3.856V104h-2.019v4.038h-3.856l-1.01,5.048h-2.083l-1.013,8.1L272,122.379v.8a10.508,10.508,0,0,0,6.086,9.513l8.048,3.714,8.048-3.714a10.508,10.508,0,0,0,6.086-9.513v-.8l-5.163-1.191Zm-11.169-3.029h6.421l.606,3.029h-7.633Zm-2.965,5.048h12.352l.7,5.6-6.876-1.587-6.876,1.587Zm13.377,15.756-7.2,3.324-7.2-3.324a8.487,8.487,0,0,1-4.876-6.885l11.068-2.554v8.827h2.019v-8.827l11.068,2.554a8.487,8.487,0,0,1-4.876,6.885Z" transform="translate(-223.694 -76.895)" fill="#003391"/>
    <path id="Path_124735" data-name="Path 124735" d="M19.544,30.134H54.706a3.021,3.021,0,0,0,2.881-2.093L61.5,16H55.388l-3.853,7.067H36.91L41.853,16H33.388l-5.953,7.067H19.611a3.492,3.492,0,0,0-2.021.64l-.067.047a3.51,3.51,0,0,0,2.021,6.38ZM18.686,25.4l.066-.047a1.483,1.483,0,0,1,.858-.272h8.764l5.953-7.067h3.65l-4.943,7.067h19.7l3.853-7.067h2.131l-3.051,9.4a1.007,1.007,0,0,1-.96.7H19.544a1.491,1.491,0,0,1-.858-2.71Z" transform="translate(-0.03 0)" fill="#7a6af7"/>
    <path id="Path_124736" data-name="Path 124736" d="M400,32h12.115v2.019H400Z" transform="translate(-335.54 -13.981)" fill="#35ccde"/>
    <path id="Path_124737" data-name="Path 124737" d="M376,72h11.105v2.019H376Z" transform="translate(-314.569 -48.933)" fill="#35ccde"/>
  </g>
</svg>
